<?xml version="1.0" encoding="utf-8"?>
<!-- Generator: Adobe Illustrator 21.1.0, SVG Export Plug-In . SVG Version: 6.00 Build 0)  -->
<svg version="1.1" baseProfile="basic" id="Layer_1"
	 xmlns="http://www.w3.org/2000/svg" xmlns:xlink="http://www.w3.org/1999/xlink" x="0px" y="0px" viewBox="0 0 1200 1200"
	 xml:space="preserve">
<style type="text/css">
	.st0{opacity:0.31;}
	.st1{fill:#FFFFFF;}
	.st2{fill:#B0B0B0;}
	.st3{fill:url(#SVGID_1_);}
	.st4{fill:#161D21;}
	.st5{fill:#F9F9F9;}
	.st6{opacity:0.2;}
	.st7{fill:#27557D;}
	.st8{fill:#F76031;}
	.st9{fill:#FFD11D;}
	.st10{fill:#F0ECEC;}
	.st11{opacity:0.2;fill:#FFFFFF;}
	.st12{fill:#EBE5EE;}
	.st13{fill:#2E3192;}
	.st14{opacity:0.17;fill:#FFFFFF;}
</style>
<g class="st0">
	<path class="st1" d="M44.9,612.4C43.2,466.6,100.6,320.7,215.8,214c115.1-106.7,265-152.8,410.3-140l3.9-3.6
		c-10.1-1-20.3-1.7-30.5-2c-143.6-5.5-280.7,45.3-386.2,142.9C107.8,309,46.8,441.8,41.3,585.4c-0.4,10.2-0.5,20.4-0.3,30.6
		L44.9,612.4z"/>
	<path class="st1" d="M1040.1,336.2l2.9-2.7c-19.5-33.1-42.7-64.3-69.4-93.2c-38-41-81.4-75.3-128.6-102.3l-3,2.8
		c46.8,26.5,90.4,60.5,128.9,102C997.8,272,1020.9,303.3,1040.1,336.2z"/>
	<path class="st1" d="M1108.8,539.4c20.5,165-35.8,337.2-166.8,458.5c-216.1,200.2-554.9,187.3-755.1-28.9
		c-38.5-41.5-69-87.6-91.8-136.3l-3,2.8c23.3,49.2,54.1,95,92.1,136c97.7,105.4,230.5,166.5,374.1,172
		c143.6,5.5,280.7-45.3,386.2-142.9c105.4-97.7,166.5-230.5,172-374.1c1.2-30.5-0.2-60.8-4.1-90.5L1108.8,539.4z"/>
</g>
<g class="st0">
	<path class="st1" d="M190.5,393.1c16.3-29.8,36.3-58.1,60.1-84.4c160.6-177.3,433.1-194.2,614.3-40.8l2.4-2.6
		c-86.7-73.5-196.4-110.8-310.5-105.2C437.7,166,328,218,248,306.3c-24.2,26.7-44.8,55.9-61.7,86.8H190.5z"/>
	<path class="st1" d="M137,580.5h-3.8c-0.9,15.7-0.9,31.6-0.2,47.6c5.7,114.1,53.6,219.5,135.3,298.6l2.4-2.6
		C175.1,831.4,129.9,705,137,580.5z"/>
	<path class="st1" d="M971.5,393.1c-4.5-8.3-9.3-16.4-14.3-24.4l-2.6,2.9c4.4,7.1,8.6,14.2,12.6,21.5H971.5z"/>
	<path class="st1" d="M1024.5,580.5h-3.8c6.6,114.4-30.8,231.3-113.6,322.8c-135.7,149.9-351.4,185.1-524.4,99.8l-2.6,2.9
		c67.7,33.8,143.2,49.8,220.8,45.9C720,1046,829.7,994,909.8,905.7c80-88.4,120.9-202.6,115-321.7
		C1024.7,582.8,1024.6,581.6,1024.5,580.5z"/>
</g>
<g class="st0">
	<path class="st1" d="M764.2,1050.8c6.5-2.7,13-5.6,19.4-8.6l-1.5-3.2c-6.3,3-12.8,5.9-19.3,8.6L764.2,1050.8z"/>
	<path class="st1" d="M196,892.2l-2.8,2.1c4.2,5.7,8.6,11.3,13.1,16.7l2.7-2.2C204.5,903.4,200.2,897.8,196,892.2z"/>
	<path class="st1" d="M172.3,857.3l-3,1.9c3.7,6,7.6,12,11.5,17.8l2.9-2C179.9,869.2,176,863.3,172.3,857.3z"/>
	<path class="st1" d="M121.1,742l-3.4,1c2,6.8,4.1,13.6,6.4,20.3l3.3-1.1C125.2,755.5,123.1,748.8,121.1,742z"/>
	<path class="st1" d="M252.1,955l-2.4,2.6c5.1,4.8,10.5,9.6,15.8,14.2l2.3-2.7C262.4,964.5,257.2,959.8,252.1,955z"/>
	<path class="st1" d="M151.9,820.5l-3.2,1.6c3.2,6.3,6.5,12.6,9.9,18.8l3.1-1.7C158.3,833,155,826.8,151.9,820.5z"/>
	<path class="st1" d="M134.7,781.9l-3.3,1.3c2.6,6.6,5.3,13.2,8.2,19.6l3.2-1.4C140,795,137.3,788.5,134.7,781.9z"/>
	<path class="st1" d="M724.3,1065.4c6.7-2.1,13.5-4.4,20.1-6.9l-1.2-3.3c-6.6,2.4-13.3,4.7-20,6.8L724.3,1065.4z"/>
	<path class="st1" d="M641,1080.3l0.5,3.5c7-0.9,14.1-2,21-3.2l-0.6-3.5C654.9,1078.3,647.9,1079.4,641,1080.3z"/>
	<path class="st1" d="M682.5,1073l0.8,3.5c6.9-1.5,13.8-3.2,20.6-5.1l-0.9-3.4C696.3,1069.8,689.4,1071.5,682.5,1073z"/>
	<path class="st1" d="M284.1,982.5l-2.2,2.8c5.5,4.4,11.3,8.7,17,12.8l2.1-2.9C295.3,991.1,289.6,986.8,284.1,982.5z"/>
	<path class="st1" d="M318.4,1007l-1.9,3c5.9,3.9,12,7.6,18.1,11.2l1.8-3C330.3,1014.6,324.2,1010.9,318.4,1007z"/>
	<path class="st1" d="M406,1052.1c-4.4-1.7-8.9-3.5-13.2-5.4l-1.4,3.3c5,2.1,10.1,4.1,15.1,6.1L406,1052.1z"/>
	<path class="st1" d="M354.7,1028.5l-1.7,3.1c6.2,3.3,12.6,6.5,19,9.6l1.5-3.2C367.2,1035,360.9,1031.8,354.7,1028.5z"/>
	<path class="st1" d="M222.6,924.8l-2.6,2.4c4.7,5.3,9.6,10.5,14.5,15.5l2.5-2.5C232.1,935.2,227.3,930,222.6,924.8z"/>
	<path class="st1" d="M210.1,304.7l-2.7-2.2c-4.5,5.5-8.9,11.1-13.1,16.7l2.8,2.1C201.3,315.7,205.7,310.1,210.1,304.7z"/>
	<path class="st1" d="M266.8,241.8c-5.3,4.6-10.7,9.3-15.8,14.2l2.4,2.6c5.1-4.8,10.4-9.5,15.7-14L266.8,241.8z"/>
	<path class="st1" d="M235.8,270.8c-4.9,5-9.8,10.2-14.5,15.5l2.6,2.4c4.7-5.2,9.5-10.4,14.4-15.4L235.8,270.8z"/>
	<path class="st1" d="M297.2,217.9c-4.7,3.4-9.4,6.9-14,10.5l2.2,2.8c4-3.2,8.2-6.2,12.3-9.3L297.2,217.9z"/>
	<path class="st1" d="M495.2,137.8l-0.6-3.5c-6.3,1.1-12.6,2.4-18.8,3.7l0.5,3.5C482.5,140.2,488.9,138.9,495.2,137.8z"/>
	<path class="st1" d="M599.1,1084l0.5,3.5c6.9-0.3,13.8-0.8,20.7-1.4l-0.3-3.5C613.1,1083.2,606.1,1083.7,599.1,1084z"/>
	<path class="st1" d="M181.9,336.4c-4,5.8-7.9,11.8-11.6,17.8l3,1.9c3.7-6,7.6-11.9,11.5-17.7L181.9,336.4z"/>
	<path class="st1" d="M159.5,372.6c-3.5,6.1-6.8,12.5-10,18.8l3.2,1.6c3.2-6.3,6.5-12.5,9.9-18.6L159.5,372.6z"/>
	<path class="st1" d="M112.4,490.9c-1.7,6.9-3.3,13.8-4.7,20.8l3.5,0.7c1.4-6.9,3-13.8,4.7-20.6L112.4,490.9z"/>
	<path class="st1" d="M140.3,410.6c-2.9,6.4-5.7,13-8.3,19.6l3.3,1.3c2.6-6.5,5.4-13.1,8.2-19.5L140.3,410.6z"/>
	<path class="st1" d="M124.6,450.1c-2.3,6.7-4.5,13.5-6.5,20.3l3.4,1c2-6.7,4.2-13.5,6.5-20.1L124.6,450.1z"/>
	<path class="st1" d="M1039.3,744.9c2-6.8,3.9-13.7,5.7-20.5l-3.4-0.9c-1.7,6.8-3.6,13.7-5.6,20.4L1039.3,744.9z"/>
	<path class="st1" d="M1014.8,413.9l3.2-1.4c-2.9-6.4-5.9-12.9-9-19.2l-3.2,1.6C1009,401,1012,407.5,1014.8,413.9z"/>
	<path class="st1" d="M948.9,306.4l2.7-2.2c-4.5-5.5-9.1-10.9-13.8-16.2l-2.6,2.4C939.9,295.6,944.5,301,948.9,306.4z"/>
	<path class="st1" d="M802.7,1032.7c6.2-3.3,12.5-6.7,18.5-10.3l-1.8-3.1c-6,3.5-12.2,7-18.4,10.2L802.7,1032.7z"/>
	<path class="st1" d="M974,340.2l2.9-2c-3.9-5.8-8.1-11.6-12.3-17.3l-2.8,2.1C966,328.7,970.1,334.4,974,340.2z"/>
	<path class="st1" d="M580.2,130.4l0-3.5c-7,0-14.2,0.1-21.3,0.4l0.2,3.5C566.1,130.5,573.2,130.3,580.2,130.4z"/>
	<path class="st1" d="M516,134.5l1-0.1c7-0.9,14-1.7,21-2.3l-0.3-3.5c-7,0.6-14.1,1.4-21.1,2.3l-1,0.1L516,134.5z"/>
	<path class="st1" d="M622.3,132.3l0.3-3.5c-7-0.6-14.2-1.1-21.2-1.4l-0.2,3.5C608.3,131.2,615.3,131.7,622.3,132.3z"/>
	<path class="st1" d="M745.6,160.4l1.2-3.3c-6.6-2.5-13.4-4.8-20.1-7l-1.1,3.4C732.3,155.6,739,158,745.6,160.4z"/>
	<path class="st1" d="M705.3,147.4l0.9-3.4c-6.8-1.9-13.8-3.6-20.7-5.2l-0.8,3.4C691.7,143.8,698.6,145.5,705.3,147.4z"/>
	<path class="st1" d="M664.1,138l0.6-3.5c-7-1.3-14-2.4-21-3.3l-0.5,3.5C650.2,135.6,657.2,136.7,664.1,138z"/>
	<path class="st1" d="M996,376.1l3.1-1.7c-3.4-6.2-7-12.3-10.7-18.3l-3,1.9C989.1,363.9,992.7,370,996,376.1z"/>
	<path class="st1" d="M935.9,928.9c4.7-5.2,9.4-10.7,13.9-16.1l-2.7-2.2c-4.4,5.4-9.1,10.8-13.8,16L935.9,928.9z"/>
	<path class="st1" d="M962.9,896c4.2-5.6,8.4-11.4,12.4-17.3l-2.9-2c-4,5.8-8.1,11.6-12.3,17.1L962.9,896z"/>
	<path class="st1" d="M986.9,861c3.7-6,7.4-12.2,10.8-18.3l-3.1-1.7c-3.4,6.1-7.1,12.2-10.8,18.2L986.9,861z"/>
	<path class="st1" d="M839.3,1011.3c5.9-3.8,11.8-7.8,17.6-11.9l-2-2.9c-5.7,4.1-11.6,8-17.4,11.8L839.3,1011.3z"/>
	<path class="st1" d="M1007.8,823.9c3.2-6.3,6.3-12.8,9.2-19.2l-3.2-1.5c-2.9,6.4-5.9,12.8-9.1,19.1L1007.8,823.9z"/>
	<path class="st1" d="M873.9,986.7c5.5-4.3,11.1-8.8,16.5-13.4l-2.3-2.7c-5.3,4.5-10.8,9-16.3,13.3L873.9,986.7z"/>
	<path class="st1" d="M906.2,959.2c5.2-4.8,10.3-9.8,15.2-14.8l-2.5-2.5c-4.9,5-10,9.9-15.1,14.7L906.2,959.2z"/>
	<path class="st1" d="M1050.2,535l3.5-0.5c-1.1-7-2.3-14-3.7-20.9l-3.5,0.7C1047.9,521.1,1049.2,528.1,1050.2,535z"/>
	<path class="st1" d="M1025.3,785.1c2.6-6.6,5.1-13.3,7.5-19.9l-3.3-1.2c-2.3,6.6-4.8,13.3-7.4,19.8L1025.3,785.1z"/>
	<path class="st1" d="M1030.2,453.1l3.3-1.1c-2.3-6.7-4.7-13.4-7.3-20l-3.3,1.3C1025.5,439.8,1027.9,446.5,1030.2,453.1z"/>
	<path class="st1" d="M1042,493.6l3.4-0.8c-1.7-6.8-3.5-13.7-5.5-20.5l-3.4,1C1038.5,480,1040.4,486.8,1042,493.6z"/>
	<path class="st1" d="M1058.3,576.7c-0.5-7-1.1-14.1-1.8-21.2l-3.5,0.4c0.8,7,1.4,14.1,1.8,21L1058.3,576.7z"/>
	<path class="st1" d="M1049.7,703.6c1.4-6.9,2.7-13.9,3.8-20.9l-3.5-0.6c-1.1,6.9-2.4,13.9-3.8,20.8L1049.7,703.6z"/>
	<path class="st1" d="M1056.3,661.6c0.8-7,1.4-14.1,1.9-21.2l-3.5-0.2c-0.5,7-1.1,14.1-1.9,21L1056.3,661.6z"/>
	<path class="st1" d="M1059.2,619.2c0.2-7.1,0.2-14.2,0-21.3l-3.5,0.1c0.1,7,0.1,14.1,0,21.1L1059.2,619.2z"/>
</g>
<circle class="st1" cx="1162.7" cy="655.5" r="19.1"/>
<path class="st1" d="M1003.4,181.7c0,6.2-5,11.2-11.2,11.2c-6.2,0-11.2-5-11.2-11.2c0-6.2,5-11.2,11.2-11.2
	C998.4,170.5,1003.4,175.5,1003.4,181.7z"/>
<circle class="st1" cx="40.9" cy="732.4" r="20.8"/>
<g>
	<g>
		<g>
			<g>
				<g>
					<g>
						<path class="st2" d="M110.7,710.1c0,0-5.8,10.8,35.4,19.8h863.7c0,0,28.9-1.8,36.5-15.5l0-7.5L110.7,710.1z"/>
						<path class="st1" d="M110.9,688.3h935.8v24c0,0,1.4,3.2-9.6,2.4H119.7c0,0-8.6,2.4-9.4-3.2L110.9,688.3z"/>
						<path class="st2" d="M1003.2,702.3c0,0.9-0.6,1.7-1.4,1.7H970c-0.8,0-1.4-0.8-1.4-1.7l0,0c0-1,0.6-1.7,1.4-1.7h31.8
							C1002.6,700.6,1003.2,701.4,1003.2,702.3L1003.2,702.3z"/>
					</g>
					<path class="st2" d="M515.2,688.5c0,0-3.6,12,8.4,13.2h108.6c0,0,11.5,1.5,10-12.8L515.2,688.5z"/>
					<g>
						<linearGradient id="SVGID_1_" gradientUnits="userSpaceOnUse" x1="641.6534" y1="689.1223" x2="641.6534" y2="688.8401">
							<stop  offset="2.439020e-02" style="stop-color:#5F6767"/>
							<stop  offset="0.4756" style="stop-color:#676B6C"/>
							<stop  offset="0.5137" style="stop-color:#717576"/>
							<stop  offset="0.6192" style="stop-color:#878A8B"/>
							<stop  offset="0.7202" style="stop-color:#949899"/>
							<stop  offset="0.811" style="stop-color:#999C9D"/>
						</linearGradient>
						<path class="st3" d="M641.7,689.1v-0.3h0C641.6,688.9,641.6,689,641.7,689.1z"/>
					</g>
				</g>
			</g>
			<path class="st4" d="M954.7,688.2V261.6c0-19.4-15.8-35.2-35.2-35.2h-682c-19.4,0-35.2,15.8-35.2,35.2v426.5H954.7z"/>
			<rect x="226.5" y="252.8" class="st5" width="703.9" height="409.2"/>
		</g>
		<g class="st6">
			<path class="st1" d="M1046.7,712.3v-24H581.2v41.7h428.6c0,0,28.9-1.8,36.5-15.5l0-0.9C1047,712.9,1046.7,712.3,1046.7,712.3z"/>
			<path class="st1" d="M919.5,226.4H581.2v461.7h373.5V261.6C954.7,242.3,938.9,226.4,919.5,226.4z"/>
		</g>
	</g>
	<g>
		<g>
			<g>
				<path class="st4" d="M485.9,1035.5c0,12-9.8,21.8-21.8,21.8H92.5c-12,0-21.8-9.8-21.8-21.8v-138c0-12,9.8-21.8,21.8-21.8h371.6
					c12,0,21.8,9.8,21.8,21.8V1035.5z"/>
				<path class="st7" d="M485.9,1019.9c0,12-9.8,21.8-21.8,21.8H92.5c-12,0-21.8-9.8-21.8-21.8V882c0-12,9.8-21.8,21.8-21.8h371.6
					c12,0,21.8,9.8,21.8,21.8V1019.9z"/>
			</g>
			<circle class="st8" cx="115.6" cy="1000.5" r="11.9"/>
			<ellipse class="st9" cx="154.7" cy="1000.5" rx="11.9" ry="11.9"/>
			<g>
				<g>
					<g>
						<polygon class="st10" points="333.2,643.8 144.4,643.8 144.4,942.8 412.2,942.8 412.2,722.8 						"/>
					</g>
					<g>
						<polygon class="st5" points="333.2,643.8 144.4,643.8 144.4,942.8 412.2,942.8 412.2,722.8 333.2,722.8 						"/>
					</g>
				</g>
				<g>
					<g>
						<rect x="167.5" y="732.2" class="st2" width="100.6" height="6.7"/>
						<rect x="167.5" y="759.5" class="st2" width="222.2" height="6.7"/>
						<rect x="167.5" y="774.7" class="st2" width="222.2" height="6.7"/>
						<rect x="167.5" y="789.9" class="st2" width="222.2" height="6.7"/>
						<rect x="167.5" y="805.1" class="st2" width="222.2" height="6.7"/>
					</g>
					<g>
						<rect x="167.5" y="820.3" class="st2" width="222.2" height="6.7"/>
						<rect x="167.5" y="835.5" class="st2" width="222.2" height="6.7"/>
						<rect x="167.5" y="850.7" class="st2" width="222.2" height="6.7"/>
						<rect x="167.5" y="865.9" class="st2" width="222.2" height="6.7"/>
					</g>
					<g>
						<rect x="167.5" y="881" class="st2" width="222.2" height="6.7"/>
						<rect x="167.5" y="896.2" class="st2" width="222.2" height="6.7"/>
						<rect x="167.5" y="911.4" class="st2" width="222.2" height="6.7"/>
					</g>
				</g>
				<rect x="144.4" y="643.8" class="st8" width="188.7" height="15.7"/>
			</g>
		</g>
		<g>
			<path class="st7" d="M1019.7,929.7H866.5c-8.5,0-15.3,6.9-15.3,15.3v97c0,8.5,6.9,15.3,15.3,15.3h153.2V929.7z"/>
			<path class="st11" d="M902.8,929.7v95.9c0,8.2-12.8,8.2-12.8,0v-95.9h-23.5c-8.5,0-15.3,6.9-15.3,15.3v97
				c0,8.5,6.9,15.3,15.3,15.3h47.8V929.7H902.8z"/>
			<g>
				<g>
					<path class="st12" d="M975.1,891.1c0-6.5-5.3-11.8-11.8-11.8H791.8c-6.5,0-11.8,5.3-11.8,11.8v100.1c0,6.5,5.3,11.8,11.8,11.8
						h171.4c6.5,0,11.8-5.3,11.8-11.8V891.1z"/>
					<rect x="780" y="973" class="st4" width="195.1" height="17.1"/>
					<rect x="791.2" y="925.5" class="st8" width="138.5" height="18.3"/>
					<rect x="791.2" y="950.2" class="st8" width="138.5" height="4.5"/>
					<rect x="791.2" y="914.3" class="st8" width="69.2" height="5.4"/>
					<rect x="791.2" y="905.6" class="st8" width="69.2" height="5.4"/>
				</g>
				<path class="st11" d="M963.3,1003.1H878c0-0.2,0-0.3,0-0.5V879.3h85.3c6.5,0,11.8,5.3,11.8,11.8v100.1
					C975.1,997.8,969.8,1003.1,963.3,1003.1z"/>
			</g>
			<path class="st7" d="M1071,929.7h-51.3h-4.3H914.5c-8.5,0-15.3,6.9-15.3,15.3v97c0,8.5,6.9,15.3,15.3,15.3h100.9h4.3h51.3
				c8.5,0,15.3-6.9,15.3-15.3v-97C1086.3,936.5,1079.5,929.7,1071,929.7z"/>
			<path class="st11" d="M937,929.7h-22.5c-8.5,0-15.3,6.9-15.3,15.3v97c0,8.5,6.9,15.3,15.3,15.3H937V929.7z"/>
			<circle class="st9" cx="919.5" cy="954.6" r="6.7"/>
		</g>
		<g>
			<path class="st4" d="M535.1,768.5c0-10.8,8.8-19.6,19.6-19.6h163.1c10.8,0,19.6,8.8,19.6,19.6v269.2c0,10.8-8.8,19.6-19.6,19.6
				H554.7c-10.8,0-19.6-8.8-19.6-19.6V768.5z"/>
			<rect x="554.2" y="771.6" class="st5" width="164.1" height="263"/>
			<rect x="554.2" y="769.5" class="st8" width="164.1" height="12.4"/>
			<path class="st12" d="M636.3,1054.2c-4.4,0-7.9-3.6-7.9-7.9c0-4.4,3.6-7.9,7.9-7.9c4.4,0,7.9,3.6,7.9,7.9
				C644.2,1050.6,640.7,1054.2,636.3,1054.2z"/>
			<g>
				<rect x="623.2" y="993.7" class="st2" width="26.2" height="25.6"/>
				<rect x="653.9" y="993.7" class="st2" width="25.6" height="25.6"/>
				<rect x="684.2" y="993.7" class="st2" width="25.6" height="25.6"/>
				<rect x="593.1" y="993.7" class="st8" width="25.6" height="25.6"/>
				<rect x="562.7" y="993.7" class="st2" width="25.6" height="25.6"/>
			</g>
			<path class="st1" d="M666.8,761.9c0,1-0.8,1.7-1.7,1.7h-57.6c-1,0-1.7-0.8-1.7-1.7v-5.1c0-1,0.8-1.7,1.7-1.7h57.6
				c1,0,1.7,0.8,1.7,1.7V761.9z"/>
			<g>
				<circle class="st2" cx="636.3" cy="896.8" r="44.6"/>
				<g>
					<polygon class="st1" points="642.9,892.8 640,892.8 627.8,892.8 628.8,897.3 639.9,897.3 642.9,897.3 646.8,897.3 648,892.8 
											"/>
					<path class="st1" d="M629.2,908.2c-2.5,0-4.6,2-4.6,4.6c0,2.5,2,4.6,4.6,4.6c2.5,0,4.6-2,4.6-4.6
						C633.7,910.3,631.7,908.2,629.2,908.2z"/>
					<path class="st1" d="M646.3,908.2c-2.5,0-4.6,2-4.6,4.6c0,2.5,2,4.6,4.6,4.6c2.5,0,4.6-2,4.6-4.6
						C650.9,910.3,648.8,908.2,646.3,908.2z"/>
					<g>
						<path class="st1" d="M657.9,881.9c-0.2-0.1-0.4-0.1-0.6-0.1c-1,0-1.9,0.6-2.2,1.6l-0.3,1h-33.3l-1.7-6.4
							c-0.2-1-1.2-1.7-2.2-1.7h-11.6c-1.2,0-2.3,1-2.3,2.3c0,1.2,1,2.3,2.3,2.3h9.9l5.9,23.2c0.2,1,1.2,1.7,2.2,1.7h27.6
							c1,0,1.9-0.7,2.2-1.6l5.8-19.4c0.1-0.2,0.1-0.4,0.1-0.7C659.5,883.1,658.8,882.2,657.9,881.9 M649.9,900.7l-0.1,0.5h-24.1
							l-3-12.3h30.9L649.9,900.7z"/>
					</g>
				</g>
			</g>
			<path class="st11" d="M717.9,748.9h-82.7v308.4h82.7c10.8,0,19.6-8.8,19.6-19.6V768.5C737.5,757.7,728.7,748.9,717.9,748.9z"/>
		</g>
	</g>
</g>
<g>
	<path class="st13" d="M455,436.7c-5.3,0-9.3-4.2-9.3-9.5c0-5.2,4.2-9.3,9.5-9.2c5.1,0,9.2,4.2,9.1,9.4
		C464.4,432.7,460.2,436.8,455,436.7z"/>
	<g>
		<path class="st13" d="M368,406.7c10.7,0,21.3-0.1,32,0.1c7,0.1,13.8,1.5,19.8,5.5c6.8,4.5,11,10.9,12.3,19
			c0.7,4.2,0.7,8.4-0.5,12.5c-1.6,5.6-5,9.8-9.9,13c-0.5,0.3-1,0.6-1.5,0.9c0,0,0,0.1-0.1,0.1c0.1,0.1,0.3,0.2,0.4,0.2
			c10.2,2.4,16.3,8.9,18.6,18.9c2.4,10.5-0.1,20-7.6,27.9c-4.8,5.1-10.9,8.1-17.8,9.2c-2.4,0.4-4.9,0.6-7.4,0.6
			c-12.4,0.1-24.8,0-37.2,0c-0.4,0-0.8,0-1.2,0C368,478.7,368,442.7,368,406.7z M382.7,501.9c0.4,0,0.7,0.1,1,0.1
			c6.9,0,13.8,0,20.7-0.1c3.1,0,6.2-0.4,9.2-1.4c4.4-1.4,8.1-3.8,10.2-8.1c1.4-2.9,1.8-5.9,1.7-9.1c-0.3-5.9-2.7-10.5-7.8-13.6
			c-4.1-2.5-8.6-3.4-13.3-3.5c-7-0.1-14,0-21,0c-0.3,0-0.5,0-0.8,0.1C382.7,478.1,382.7,489.9,382.7,501.9z M382.6,453.2
			c0.3,0,0.5,0.1,0.7,0.1c5.3,0,10.6,0.1,15.9,0c1.8,0,3.6-0.2,5.4-0.6c4.5-1,8.3-3.1,10.9-7c2.3-3.4,2.9-7.3,2.3-11.3
			c-0.8-5.5-3.4-9.7-8.4-12.3c-3.9-2-8.1-2.4-12.3-2.5c-4.5-0.1-8.9,0-13.4,0c-0.9,0-1.1,0.2-1.1,1.1c0,10.6,0,21.1,0,31.7
			C382.6,452.6,382.6,452.9,382.6,453.2z"/>
		<path class="st13" d="M570.5,522.9c-1-0.1-1.9-0.2-2.9-0.4c-0.6-0.1-1.3-0.2-2.1-0.3c0-1.6,0-3.1,0-4.7c0-1.6,0-1.6-1.6-1.9
			c-5.8-1.1-11.2-3.3-15.7-7.2c-5.3-4.6-8.4-10.4-9.9-17.2c-0.6-2.5-0.8-5-1.3-7.5c5,0,9.8,0,14.5,0c0.5,2.3,0.9,4.6,1.5,6.8
			c2.3,7.6,7.8,11.6,15.5,12.7c4.5,0.6,8.9,0.5,13.1-1.1c5.1-1.9,9-5.3,10.7-10.6c1.8-5.8,0-11.2-4.9-15.4
			c-3.4-2.8-7.4-4.7-11.5-6.3c-5.9-2.3-11.8-4.6-17.6-7.1c-5.4-2.4-10.3-5.8-13.9-10.6c-3.4-4.4-5.1-9.3-5.4-14.8
			c-0.4-5.9,0.6-11.5,3.5-16.7c3.9-6.9,10-11.3,17.4-13.8c1.8-0.6,3.6-1,5.5-1.5c0-2,0-4.1,0-6.3c4.6-0.8,9.1-0.8,13.7,0
			c0,1.7,0,3.3,0,4.9c0,1.5,0,1.5,1.4,1.8c6.7,1.4,12.5,4.5,17,9.6c4,4.6,6.3,10,7.5,15.9c0.4,2.2,0.7,4.5,1,6.8
			c-0.5,0-0.8,0.1-1.1,0.1c-3.9,0-7.8,0-11.7,0c-0.8,0-1-0.2-1.2-1c-0.8-4.9-2.4-9.5-5.7-13.3c-3.1-3.6-7.2-5.5-11.9-6
			c-4.2-0.4-8.3,0-12.2,1.8c-5.3,2.4-8,6.8-8.8,12.4c-0.5,3.8,0,7.4,2.3,10.6c2,2.9,4.9,4.9,8.1,6.3c4.3,1.9,8.8,3.6,13.2,5.3
			c4.5,1.7,9.1,3.2,13.3,5.6c5.3,2.9,10,6.6,13.2,11.9c3.2,5.2,4.3,11,3.7,17c-0.5,6.4-2.9,12-7.2,16.7c-4.4,4.9-10,7.9-16.4,9.5
			c-1.3,0.3-2.5,0.6-3.8,0.8c-0.7,0.1-0.9,0.4-0.8,1c0,1.8,0,3.6,0,5.5c-1.3,0.1-2.5,0.2-3.7,0.4c-0.4,0-0.7,0.1-1.1,0.2
			C573.1,522.9,571.8,522.9,570.5,522.9z"/>
		<path class="st13" d="M729.5,482.9c0.3,1.3,0.6,2.5,1,3.6c3.3,9.3,9.8,14.8,19.5,16.6c10.5,1.9,19.2-1.6,26.5-9
			c0.8-0.8,1.5-1.6,2.3-2.5c3.5,2.8,6.9,5.5,10.5,8.4c-1.2,1.2-2.2,2.4-3.4,3.5c-5,4.9-10.6,8.7-17.3,10.9
			c-5.7,1.9-11.6,2.3-17.6,1.8c-7.2-0.6-13.9-2.7-19.9-6.8c-8.4-5.9-13.5-14-15.4-24.1c-1.9-10.2-0.5-19.9,5-28.9
			c5.7-9.5,14.2-15.1,25-17.1c7.5-1.4,14.9-0.9,22.1,1.9c8.9,3.5,15.3,9.7,19.5,18.2c3,5.9,4.4,12.3,4.8,18.9
			c0.1,1.5,0.1,2.9,0.2,4.5C771.4,482.9,750.5,482.9,729.5,482.9z M776.7,471.4c0-0.2,0.1-0.2,0.1-0.3c0-0.1,0-0.2,0-0.4
			c-0.9-5-3-9.4-6.7-12.9c-5.7-5.2-12.5-7-20-6.2c-9.7,1-17,7.1-19.7,16.5c-0.3,1-0.5,2.1-0.7,3.3
			C745.4,471.4,761,471.4,776.7,471.4z"/>
		<path class="st13" d="M626.5,456c-2-3.9-4-7.6-6-11.6c2.8-1,5.4-2,8.2-2.9c6.7-2.1,13.6-3.1,20.7-2.9c7.1,0.2,14,1.4,20.4,4.9
			c6,3.3,10.2,8,11.8,14.8c0.4,1.8,0.6,3.7,0.7,5.5c0,16.7,0,33.3,0,50c0,0.2,0,0.4,0,0.7c-4.3,0-8.5,0-12.9,0c0-2.2,0-4.5,0-6.9
			c-1,0.8-1.8,1.6-2.6,2.2c-4.8,3.8-10.3,5.9-16.4,6.3c-7,0.5-13.7-0.2-20.2-3c-6.6-2.9-11.7-7.3-14.3-14.1
			c-4.5-11.6-0.7-24.4,11.7-31c4.8-2.6,10.1-3.8,15.5-4.1c5.2-0.4,10.3,0.1,15.3,1.8c3.4,1.2,6.4,2.8,9.2,5c0.2,0.2,0.5,0.4,0.7,0.5
			c0.1-0.1,0.2-0.1,0.2-0.1c-0.1-3.1,0.1-6.3-0.4-9.4c-0.7-4.3-3.7-6.9-7.5-8.6c-2.9-1.3-6-1.9-9.2-2.2c-8.6-0.8-16.6,1-24.3,4.8
			C627,455.8,626.8,455.9,626.5,456z M648.7,504.3c5.1,0,9-0.7,12.4-2.3c6.3-2.9,9.3-9.3,7.3-15.7c-1.4-4.5-4.7-7.1-8.9-8.7
			c-4-1.5-8.2-1.8-12.4-1.6c-3.6,0.1-7.1,0.7-10.4,2.2c-5,2.3-8,6.2-8.1,11.8c-0.1,5.5,2.7,9.5,7.6,11.9
			C640.1,503.8,644.4,504.3,648.7,504.3z"/>
		<path class="st13" d="M528.4,502.6c0,4.1,0,8,0,12c-19.5,0-39.1,0-58.7,0c12.7-20.7,25.4-41.3,38.2-62.1c-11.4,0-22.5,0-33.8,0
			c0-4.1,0-8,0-12.1c18.8,0,37.6,0,56.6,0c-12.6,20.7-25.2,41.3-38,62.2C504.8,502.6,516.6,502.6,528.4,502.6z"/>
		<path class="st13" d="M722.4,514.7c-0.4,0-0.6,0-0.9,0c-4.1,0-8.2,0-12.2,0c-4.2,0-8.1-0.9-11.6-3.4c-4.1-3-6.1-7.2-7-12
			c-0.4-2.2-0.6-4.4-0.6-6.6c0-28.1,0-56.3,0-84.4c0-0.5,0-0.9,0-1.5c4.5,0,9,0,13.6,0c0,0.4,0.1,0.9,0.1,1.3c0,27.5,0,55,0,82.4
			c0,1.9,0.2,3.8,0.6,5.6c1,3.9,3.5,5.8,7.5,5.8c1.3,0,1.9,0.4,2.5,1.6c1.8,4,4.3,7.5,7.4,10.5C721.9,514.2,722.1,514.4,722.4,514.7
			z"/>
		<path class="st13" d="M461.8,514.7c-4.5,0-9,0-13.6,0c0-0.4,0-0.8,0-1.1c0-24,0-48,0-72.1c0-0.4,0.2-0.7,0.3-1.1
			c0.4,0.1,0.9,0.2,1.2,0.4c3.4,2.6,7.3,2.6,10.8,0c0.3-0.2,0.8-0.3,1.2-0.4c0.1,0.4,0.3,0.7,0.3,1.1c0,24.1,0,48.1,0,72.2
			C461.9,513.9,461.9,514.3,461.8,514.7z"/>
	</g>
</g>
<g>
	<path class="st13" d="M1122.2,319.6c3.2,0,3.2-5,0-5C1119,314.6,1119,319.6,1122.2,319.6L1122.2,319.6z"/>
</g>
<circle class="st14" cx="725.6" cy="82.6" r="55.4"/>
<circle class="st1" cx="725.6" cy="82.6" r="42.4"/>
</svg>
