<?xml version="1.0" encoding="utf-8"?>
<!-- Generator: Adobe Illustrator 21.1.0, SVG Export Plug-In . SVG Version: 6.00 Build 0)  -->
<svg version="1.1" baseProfile="basic" id="Layer_1"
	 xmlns="http://www.w3.org/2000/svg" xmlns:xlink="http://www.w3.org/1999/xlink" x="0px" y="0px" viewBox="0 0 345 236"
	 xml:space="preserve">
<style type="text/css">
	.st0{fill:#CDD6DF;}
	.st1{fill:#E5EAEE;}
	.st2{fill:#AEB7C8;}
	.st3{fill:#DFE4E7;}
	.st4{fill:#EBF1F1;}
	.st5{fill:#81C617;}
	.st6{fill:none;stroke:#FFFFFF;stroke-linecap:round;stroke-linejoin:round;stroke-miterlimit:10;}
	.st7{fill:#FF637D;}
	.st8{opacity:0.1;}
	.st9{fill:#F0C200;}
	.st10{fill:#E9A800;}
	.st11{fill:#FFFFFF;}
	.st12{fill:#CCCCCC;stroke:#CCCCCC;stroke-miterlimit:10;}
	.st13{fill:#E2B80A;}
	.st14{fill:#EDC418;}
	.st15{opacity:0.24;}
	.st16{opacity:0.2;}
	.st17{opacity:0.21;fill:none;stroke:#FFFFFF;stroke-linecap:round;stroke-linejoin:round;stroke-dasharray:4,4;}
	.st18{opacity:0.21;}
	.st19{fill:#EEEEEE;}
	.st20{fill:#C9CFD1;}
	.st21{fill:#BCC0C1;}
	.st22{opacity:0.1;fill:#505A77;}
	.st23{fill:#0081E0;}
	.st24{fill:#01C5DE;}
	.st25{fill:#DCEAF4;}
	.st26{fill:#FFFFFF;stroke:#FFFFFF;stroke-linecap:round;stroke-linejoin:round;stroke-miterlimit:10;}
	.st27{fill:#60B000;}
	.st28{opacity:0.18;fill:none;stroke:#FFFFFF;stroke-miterlimit:10;}
	.st29{opacity:0.36;fill:none;stroke:#FFFFFF;stroke-miterlimit:10;}
	.st30{fill:#1B9CE1;}
</style>
<g>
	<polygon class="st0" points="164.8,155.6 185.1,122.2 258.4,94.4 242.1,125.8 	"/>
	<g>
		<polygon class="st0" points="164.8,229.2 87.5,197.8 87.5,125.8 164.8,155.6 		"/>
		<polygon class="st1" points="164.8,229.2 242.1,197.8 242.1,125.8 164.8,155.6 		"/>
		<polygon class="st2" points="66,94.4 87.5,125.8 164.8,155.6 144.4,122.2 		"/>
		<polygon class="st2" points="164.8,99.4 164.8,155.6 185.1,122.2 205.8,114.3 		"/>
		<polygon class="st3" points="164.8,99.4 164.8,155.6 144.4,122.2 123.5,114.8 		"/>
		<polygon class="st4" points="80.5,94.4 82.9,100.2 123.5,114.8 164.8,99.4 154.8,67.7 		"/>
		<polygon class="st3" points="249.1,94.4 246.7,100.2 205.8,114.3 164.8,99.4 174.8,67.7 		"/>
	</g>
</g>
<g>
	<circle class="st5" cx="130.3" cy="73.9" r="12.1"/>
	<polyline class="st6" points="124.7,74.3 128.2,78.1 135.8,70.6 	"/>
</g>
<g>
	<g>
		<polygon class="st7" points="213.2,89 179.3,89 179.3,43.4 208.7,43.4 213.2,48.2 		"/>
		<polyline class="st6" points="185.4,58.1 187.2,59.9 191,56.2 		"/>
		<polyline class="st6" points="185.4,65.6 187.2,67.4 191,63.6 		"/>
		<circle class="st6" cx="188.2" cy="72.9" r="1.1"/>
		<line class="st6" x1="194.5" y1="59" x2="207.2" y2="59"/>
		<line class="st6" x1="194.5" y1="66.2" x2="207.2" y2="66.2"/>
		<line class="st6" x1="194.5" y1="73.4" x2="207.2" y2="73.4"/>
	</g>
	<polygon class="st8" points="208.7,43.4 208.7,48.2 213.2,48.2 	"/>
</g>
<g>
	<rect x="225.3" y="69.2" class="st9" width="33.6" height="0"/>
	<polygon class="st10" points="242.1,35.6 225.3,48.4 258.9,48.4 	"/>
	<polygon class="st10" points="242.1,55.9 245.8,58.8 258.9,48.4 225.3,48.4 238.4,58.8 	"/>
	<polygon class="st9" points="238.4,58.8 242.1,61.8 245.8,58.8 242.1,55.9 	"/>
	<rect x="228.5" y="38.8" class="st11" width="25.2" height="24.3"/>
	<line class="st12" x1="232.9" y1="44.4" x2="239.4" y2="44.4"/>
	<line class="st12" x1="232.9" y1="48.7" x2="249.6" y2="48.7"/>
	<line class="st12" x1="232.9" y1="52" x2="249.6" y2="52"/>
	<line class="st12" x1="231.6" y1="55.9" x2="249.5" y2="55.9"/>
	<polygon class="st13" points="242.1,61.8 238.4,58.8 225.3,69.2 258.9,69.2 245.8,58.8 	"/>
	<polygon class="st14" points="225.3,48.4 225.3,69.2 238.4,58.8 	"/>
	<polygon class="st14" points="245.8,58.8 258.9,69.2 258.9,48.4 	"/>
</g>
<g class="st15">
	<path class="st11" d="M145.5,14.7l0.1-0.7h1.6l-0.9,4.3c-0.1,0.3-0.1,0.5-0.1,0.5c0,0.1,0,0.2,0.1,0.2c0,0.1,0.1,0.1,0.2,0.1
		c0.2,0,0.5-0.1,0.8-0.4c0.3-0.3,0.6-0.7,0.9-1.2c0.3-0.5,0.4-1,0.4-1.6c0-0.5-0.1-0.9-0.3-1.4c-0.2-0.4-0.4-0.8-0.8-1.1
		c-0.3-0.3-0.8-0.6-1.3-0.7c-0.5-0.2-1.1-0.3-1.7-0.3c-0.7,0-1.2,0.1-1.8,0.3c-0.5,0.2-1,0.4-1.4,0.7c-0.4,0.3-0.8,0.7-1,1.2
		c-0.2,0.4-0.4,0.9-0.6,1.4c-0.1,0.5-0.2,1-0.2,1.5c0,0.7,0.1,1.3,0.4,1.9c0.3,0.6,0.7,1,1.2,1.4c0.5,0.4,1.2,0.7,1.9,0.8
		c0.7,0.2,1.6,0.2,2.5,0.1c0.7-0.1,1.4-0.3,1.9-0.5s0.9-0.6,1.3-1h1.3c-0.2,0.4-0.5,0.8-0.8,1.1c-0.3,0.3-0.7,0.6-1.2,0.8
		c-0.4,0.2-0.9,0.4-1.5,0.5c-0.6,0.1-1.2,0.2-1.8,0.2c-1,0-1.9-0.1-2.7-0.4c-0.8-0.3-1.4-0.6-2-1.1c-0.5-0.5-0.9-1.1-1.2-1.7
		c-0.3-0.7-0.4-1.4-0.4-2.2c0-0.9,0.1-1.6,0.4-2.4c0.3-0.7,0.7-1.4,1.2-1.9c0.5-0.5,1.2-1,2-1.3c0.8-0.3,1.6-0.5,2.5-0.5
		c0.8,0,1.5,0.1,2.1,0.3s1.2,0.5,1.6,1c0.5,0.4,0.8,0.9,1,1.5c0.2,0.6,0.4,1.2,0.4,1.9c0,0.5-0.1,1.1-0.3,1.6
		c-0.2,0.5-0.5,1-0.8,1.4c-0.4,0.4-0.8,0.7-1.3,1c-0.5,0.2-1,0.4-1.6,0.4c-0.3,0-0.6-0.1-0.8-0.2c-0.2-0.1-0.3-0.3-0.4-0.5
		c-0.3,0.3-0.7,0.6-1.2,0.6c-0.5,0.1-0.9,0-1.3-0.1c-0.4-0.2-0.8-0.5-1-0.9c-0.3-0.4-0.4-0.9-0.4-1.5c0-0.6,0.1-1.2,0.4-1.9
		c0.3-0.6,0.7-1.1,1.2-1.5c0.5-0.4,1.1-0.6,1.7-0.6C144.6,13.9,145.1,14.1,145.5,14.7z M142.2,17.8c0,0.5,0.1,0.8,0.3,1.1
		c0.2,0.3,0.5,0.4,0.8,0.4c0.4,0,0.7-0.2,1-0.4c0.3-0.3,0.5-0.7,0.7-1.1c0.1-0.5,0.2-0.9,0.2-1.3c0-0.2,0-0.4-0.1-0.6
		c0-0.2-0.1-0.3-0.2-0.4c-0.1-0.1-0.2-0.2-0.4-0.3c-0.1-0.1-0.3-0.1-0.5-0.1c-0.4,0-0.7,0.1-0.9,0.4c-0.3,0.3-0.5,0.6-0.7,1.1
		C142.3,16.8,142.2,17.3,142.2,17.8z"/>
</g>
<g class="st16">
	<path id="Facebook_3_" class="st11" d="M156.1,39.3c0,0.5,0,2.5,0,2.5h-1.8v3h1.8v9h3.7v-9h2.5c0,0,0.2-1.5,0.3-3.1
		c-0.3,0-2.8,0-2.8,0s0-1.8,0-2.1c0-0.3,0.4-0.7,0.8-0.7c0.4,0,1.3,0,2,0c0-0.4,0-1.8,0-3.2c-1.1,0-2.2,0-2.8,0
		C156,35.8,156.1,38.8,156.1,39.3z"/>
</g>
<g>
	<path class="st17" d="M300.5,122.6c0,0-21.9,25.3-33.1,21.2c-11.2-4.1,20.7-26.1,16.9,2.3c-3.9,28.3-39.9,25.4-39.9,25.4l-30.9,3.9
		"/>
	<g class="st18">
		<polygon class="st19" points="298.5,113.8 320,102.8 302.2,115.9 312.7,122.7 320,102.8 289.6,109.1 		"/>
		<polygon class="st20" points="302.2,115.9 300.1,122.7 298.5,113.8 320,102.8 		"/>
		<polygon class="st21" points="302.2,115.9 300.1,122.7 306.3,118.6 		"/>
	</g>
</g>
<g>
	<path class="st14" d="M284.7,59.6h-6.3c-6.6,0-12,5.3-12.2,11.8c0,0.1,0,0.1,0,0.2v0.2l0,0v9.6c0,1.4,1.2,2.6,2.6,2.6h9.6h4.5h1.7
		c6.7,0,12.2-5.5,12.2-12.2l0,0C297,65.1,291.5,59.6,284.7,59.6z"/>
	<circle class="st11" cx="274.7" cy="72.2" r="1.7"/>
	<circle class="st11" cx="281.2" cy="72.2" r="1.7"/>
	<circle class="st11" cx="287.7" cy="72.2" r="1.7"/>
</g>
<g>
	<circle class="st22" cx="91.8" cy="45.9" r="18.5"/>
	<circle class="st23" cx="90.7" cy="44.8" r="18.5"/>
	<path class="st24" d="M105.2,43.8c0.7-1.5,2.5-2.7,2.5-6.5c-1.4-3.2-3.8-6-6.7-7.9c-0.9,0.7-1.5,1.5-1.6,1.9
		c-0.3,1.1-1.3,2.5-4.2,2.9c-2.9,0.4-0.3,0.4-1.3,2.2s-1,5.1-1.9,1s-0.4-6.2-2.7-5.2s-2.7,4.8-5.4,0c-1.4-2.4-2.3-3-2.8-3.1
		c-5.3,3.3-8.8,9.1-8.8,15.8c0,10.2,8.3,18.5,18.5,18.5c2.5,0,4.8-0.5,7-1.4c-0.2-0.6-0.7-1.1-1.5-1.3c-3.7-0.8,3.9-1.9-0.9-4.4
		S90.9,51,93,51.1s6.3-1,6.5-1.9s-1.4-4.3,2-2.7S104.3,45.8,105.2,43.8z"/>
	<path class="st22" d="M88,69.7c0,0.6-0.5,1-1,1H66.8c-0.6,0-1-0.5-1-1v-27c0-0.6,0.5-1,1-1H87c0.6,0,1,0.5,1,1V69.7z"/>
	<path class="st7" d="M86.9,68.5c0,0.6-0.5,1-1,1H65.7c-0.6,0-1-0.5-1-1v-27c0-0.6,0.5-1,1-1h20.1c0.6,0,1,0.5,1,1V68.5z"/>
	<g>
		<path class="st25" d="M68.7,49.1l-0.3,1h-0.7l1.1-3.6h0.8l1.2,3.6h-0.7l-0.3-1H68.7z M69.7,48.6l-0.3-0.9
			c-0.1-0.2-0.1-0.5-0.2-0.7h0c-0.1,0.2-0.1,0.5-0.2,0.7l-0.3,0.9H69.7z"/>
	</g>
	<line class="st26" x1="73.6" y1="47" x2="84.2" y2="47"/>
	<line class="st26" x1="73.6" y1="49.9" x2="84.2" y2="49.9"/>
	<line class="st26" x1="67.6" y1="52.4" x2="76.9" y2="52.4"/>
	<line class="st26" x1="78.9" y1="52.4" x2="84.2" y2="52.4"/>
	<line class="st26" x1="67.6" y1="54.9" x2="75.2" y2="54.9"/>
	<line class="st26" x1="76.9" y1="54.9" x2="84.2" y2="54.9"/>
	<line class="st26" x1="67.6" y1="58.1" x2="80.6" y2="58.1"/>
	<line class="st26" x1="67.6" y1="61.3" x2="78.9" y2="61.3"/>
	<path class="st8" d="M85.9,40.5H65.7c-0.6,0-1,0.5-1,1v3.3h22.2v-3.3C86.9,40.9,86.4,40.5,85.9,40.5z"/>
	<rect x="67.6" y="64.1" class="st11" width="4.3" height="4.3"/>
	<rect x="73.7" y="64.1" class="st8" width="4.3" height="4.3"/>
	<rect x="79.4" y="64.1" class="st8" width="4.3" height="4.3"/>
	<circle class="st22" cx="87" cy="41.2" r="6.1"/>
	<circle class="st27" cx="86.9" cy="40.5" r="6.1"/>
	<polyline class="st6" points="84.8,40.3 87,38.1 89,40.2 	"/>
	<line class="st6" x1="87" y1="38.1" x2="87" y2="42.9"/>
	<path class="st24" d="M99.3,42.6c0,0.6-0.9,1.1-2,1.1c-1.1,0-2.9-0.5-2.9-1.1s1.8-1.1,2.9-1.1C98.4,41.6,99.3,42.1,99.3,42.6z"/>
</g>
<circle class="st28" cx="58.1" cy="152" r="7.9"/>
<circle class="st9" cx="61.3" cy="124.1" r="1.8"/>
<circle class="st29" cx="75.4" cy="177.5" r="5.1"/>
<polygon class="st28" points="34.7,102.2 36.9,109 44.1,109 38.3,113.3 40.5,120.1 34.7,115.9 28.9,120.1 31.1,113.3 25.3,109 
	32.5,109 "/>
<g>
	<circle class="st30" cx="190.5" cy="17" r="10.2"/>
	<line class="st6" x1="187.2" y1="17" x2="194.5" y2="17"/>
	<line class="st6" x1="190.8" y1="13.4" x2="190.8" y2="20.7"/>
</g>
</svg>
