<?xml version="1.0" encoding="utf-8"?>
<!-- Generator: Adobe Illustrator 16.0.0, SVG Export Plug-In . SVG Version: 6.00 Build 0)  -->
<!DOCTYPE svg PUBLIC "-//W3C//DTD SVG 1.1//EN" "http://www.w3.org/Graphics/SVG/1.1/DTD/svg11.dtd">
<svg version="1.1" id="Layer_1" xmlns="http://www.w3.org/2000/svg" xmlns:xlink="http://www.w3.org/1999/xlink" x="0px" y="0px"
	 width="220.667px" height="56px" viewBox="0 0 220.667 56" enable-background="new 0 0 220.667 56" xml:space="preserve">
<path fill="#3D85F9" d="M46.228,41.752c2.883-2.819,4.617-6.385,4.617-10.27c0-9.113-9.477-16.5-21.167-16.5
	s-21.167,7.387-21.167,16.5c0,9.112,9.477,16.5,21.167,16.5c0.383,0,0.756-0.029,1.133-0.045l-0.085,0.045h20.119
	C48.42,46.55,46.95,43.596,46.228,41.752z"/>
<g opacity="0.1">
	<circle cx="24.296" cy="26.91" r="2.604"/>
	<circle cx="35.284" cy="26.91" r="2.604"/>
	<path d="M39.144,33.381c-0.188,0-0.354,0.076-0.482,0.191c-0.018,0.02-0.036,0.042-0.055,0.061c-2.123,2.19-5.51,3.612-9.34,3.612
		c-2.811,0-5.727-0.759-8-2.454c-0.285-0.212-0.557-0.438-0.822-0.678c-0.314-0.281-0.596-0.805-1.075-0.805
		c-0.399,0-0.721,0.325-0.721,0.723c0,0.048,0.019,0.089,0.028,0.135c0.053,0.271,0.491,0.684,0.663,0.904
		c0.227,0.294,0.464,0.576,0.72,0.847c0.518,0.54,1.105,1.009,1.739,1.408c1.379,0.866,2.939,1.483,4.54,1.784
		c0.953,0.179,1.959,0.287,2.929,0.287c0.862,0,1.758-0.112,2.608-0.244c0.822-0.127,1.633-0.327,2.416-0.611
		c1.435-0.521,2.784-1.305,3.897-2.354c0.295-0.278,0.572-0.574,0.837-0.877c0.133-0.152,0.262-0.306,0.391-0.461
		c0.208-0.254,0.51-0.541,0.437-0.904C39.787,33.62,39.473,33.381,39.144,33.381z"/>
</g>
<g>
	<circle fill="#FFFFFF" cx="24.296" cy="26.075" r="2.603"/>
	<circle fill="#FFFFFF" cx="35.284" cy="26.075" r="2.603"/>
	<path fill="#FFFFFF" d="M39.144,32.546c-0.188,0-0.354,0.075-0.482,0.192c-0.018,0.019-0.036,0.041-0.055,0.061
		c-2.123,2.189-5.51,3.61-9.34,3.61c-2.811,0-5.727-0.759-8-2.454c-0.285-0.212-0.557-0.438-0.822-0.678
		c-0.314-0.281-0.596-0.805-1.075-0.805c-0.399,0-0.721,0.325-0.721,0.723c0,0.049,0.019,0.089,0.028,0.135
		c0.053,0.271,0.491,0.684,0.663,0.904c0.227,0.295,0.464,0.578,0.72,0.847c0.518,0.541,1.105,1.009,1.739,1.408
		c1.379,0.868,2.939,1.483,4.54,1.784c0.953,0.18,1.959,0.287,2.929,0.287c0.862,0,1.758-0.111,2.608-0.244
		c0.822-0.127,1.633-0.326,2.416-0.609c1.435-0.521,2.784-1.307,3.897-2.355c0.295-0.277,0.572-0.572,0.837-0.877
		c0.133-0.151,0.262-0.305,0.391-0.461c0.208-0.252,0.51-0.541,0.437-0.902C39.787,32.785,39.473,32.546,39.144,32.546z"/>
</g>
<g>
	<path fill="#3D85F9" d="M57.94,44.741V18.795c0-1.011,0.281-1.825,0.843-2.443c0.562-0.618,1.293-0.927,2.193-0.927
		c0.899,0,1.63,0.309,2.193,0.925c0.562,0.617,0.843,1.428,0.843,2.437v8.237c1.575-1.406,3.486-2.109,5.736-2.109
		c3.093,0,5.539,1.251,7.338,3.753c1.63,2.277,2.446,5.019,2.446,8.225c0,3.009-0.9,5.637-2.699,7.886
		c-1.913,2.391-4.33,3.585-7.254,3.585c-1.153,0-2.235-0.239-3.248-0.717s-1.786-1.166-2.32-2.066
		c-0.225,0.844-0.576,1.476-1.054,1.897c-0.479,0.422-1.139,0.633-1.982,0.633c-0.9,0-1.631-0.309-2.193-0.927
		C58.221,46.566,57.94,45.752,57.94,44.741z M64.013,36.471c0,1.687,0.365,3.106,1.097,4.259c0.871,1.378,2.081,2.067,3.627,2.067
		c1.49,0,2.671-0.661,3.543-1.982c0.787-1.181,1.181-2.573,1.181-4.176s-0.379-2.979-1.139-4.133c-0.9-1.35-2.095-2.024-3.585-2.024
		c-1.491,0-2.65,0.591-3.479,1.771C64.427,33.434,64.013,34.84,64.013,36.471z"/>
	<path fill="#3D85F9" d="M85.606,16.058c0.899,0,1.687,0.323,2.362,0.97c0.675,0.647,1.012,1.42,1.012,2.32
		c0,0.984-0.331,1.821-0.991,2.509c-0.661,0.689-1.455,1.033-2.383,1.033s-1.736-0.358-2.425-1.075
		c-0.689-0.717-1.033-1.54-1.033-2.467c0-0.871,0.344-1.638,1.033-2.299C83.87,16.389,84.678,16.058,85.606,16.058z M82.569,44.736
		V28.542c0-1.013,0.281-1.828,0.843-2.446c0.562-0.618,1.293-0.928,2.193-0.928c0.899,0,1.63,0.31,2.193,0.928
		c0.562,0.619,0.844,1.434,0.844,2.446v16.194c0,1.013-0.282,1.828-0.844,2.446c-0.562,0.619-1.293,0.928-2.193,0.928
		c-0.9,0-1.631-0.309-2.193-0.928C82.85,46.564,82.569,45.749,82.569,44.736z"/>
	<path fill="#3D85F9" d="M91.426,44.146l9.531-13.412h-7.001c-0.759,0-1.413-0.245-1.961-0.737s-0.822-1.146-0.822-1.961
		c0-0.815,0.259-1.455,0.78-1.919c0.52-0.464,1.188-0.696,2.003-0.696h13.749c0.478,0,0.886,0.099,1.223,0.295
		c0.534,0.337,0.801,0.858,0.801,1.561c0,0.422-0.042,0.745-0.126,0.97c-0.084,0.225-0.268,0.521-0.548,0.885l-9.531,13.411h8.013
		c0.759,0,1.398,0.232,1.919,0.696c0.52,0.464,0.78,1.104,0.78,1.919c0,0.844-0.253,1.505-0.759,1.982
		c-0.506,0.479-1.153,0.717-1.94,0.717h-14.17c-0.731,0-1.322-0.175-1.771-0.527c-0.45-0.351-0.675-0.878-0.675-1.581
		c0-0.338,0.07-0.66,0.211-0.971C91.271,44.47,91.37,44.259,91.426,44.146z"/>
	<path fill="#3D85F9" d="M130.479,28.711c0,0.702-0.211,1.37-0.633,2.003c-0.422,0.632-0.97,0.948-1.645,0.948
		c-0.422,0-1.364-0.253-2.826-0.759c-0.815-0.28-1.476-0.422-1.982-0.422c-1.631,0-2.924,0.633-3.88,1.898
		c-0.844,1.124-1.265,2.545-1.265,4.259c0,1.66,0.436,3.065,1.307,4.218c0.984,1.294,2.264,1.94,3.838,1.94
		c0.507,0,1.16-0.134,1.962-0.401c0.801-0.267,1.637-0.555,2.509-0.864c0.73,0,1.35,0.253,1.855,0.759
		c0.507,0.507,0.76,1.125,0.76,1.856c0,1.378-0.956,2.474-2.868,3.289c-1.462,0.618-2.98,0.928-4.555,0.928
		c-3.205,0-5.82-1.131-7.845-3.395s-3.037-5.04-3.037-8.33c0-3.177,1.026-5.925,3.079-8.245s4.653-3.479,7.803-3.479
		c1.715,0,3.247,0.253,4.597,0.759C129.537,26.377,130.479,27.389,130.479,28.711z"/>
	<path fill="#3D85F9" d="M133.094,44.741V18.795c0-1.011,0.28-1.825,0.844-2.443c0.562-0.618,1.293-0.927,2.192-0.927
		s1.631,0.309,2.193,0.924c0.562,0.616,0.844,1.428,0.844,2.435v8.239c0.618-0.731,1.434-1.265,2.446-1.603
		c1.012-0.337,2.052-0.506,3.12-0.506c2.474,0,4.484,0.731,6.031,2.193c1.546,1.463,2.319,3.459,2.319,5.989v11.64
		c0,1.013-0.281,1.828-0.843,2.446c-0.563,0.619-1.294,0.928-2.193,0.928c-0.9,0-1.631-0.309-2.193-0.928
		c-0.562-0.618-0.844-1.434-0.844-2.446V34.108c0-1.35-0.365-2.375-1.096-3.078c-0.731-0.703-1.688-1.055-2.868-1.055
		c-1.209,0-2.158,0.387-2.847,1.16c-0.689,0.773-1.033,1.765-1.033,2.973v10.628c0,1.013-0.281,1.828-0.844,2.446
		c-0.562,0.619-1.294,0.928-2.193,0.928s-1.631-0.309-2.192-0.927C133.375,46.566,133.094,45.752,133.094,44.741z"/>
	<path fill="#3D85F9" d="M177.63,29.132v15.015c0,1.181-0.113,2.024-0.338,2.53c-0.45,0.956-1.322,1.434-2.614,1.434
		c-0.844,0-1.477-0.211-1.898-0.633s-0.745-1.082-0.97-1.981c-0.816,0.928-1.701,1.638-2.657,2.129
		c-0.956,0.492-2.011,0.738-3.163,0.738c-2.84,0-5.223-1.103-7.148-3.311c-1.926-2.207-2.889-5.012-2.889-8.414
		c0-3.317,0.97-6.101,2.91-8.35c1.939-2.249,4.315-3.374,7.127-3.374c1.209,0,2.312,0.226,3.311,0.675
		c0.998,0.45,1.835,1.153,2.51,2.109c0.084-0.759,0.4-1.371,0.949-1.835c0.548-0.464,1.188-0.696,1.919-0.696
		c1.292,0,2.15,0.45,2.572,1.35C177.503,27.052,177.63,27.923,177.63,29.132z M162.026,36.639c0,1.66,0.379,3.052,1.139,4.176
		c0.899,1.321,2.122,1.982,3.669,1.982c1.49,0,2.671-0.646,3.543-1.94c0.786-1.181,1.181-2.587,1.181-4.218
		c0-1.603-0.38-2.979-1.139-4.133c-0.9-1.35-2.095-2.024-3.585-2.024c-1.519,0-2.728,0.661-3.627,1.982
		C162.418,33.645,162.026,35.036,162.026,36.639z"/>
	<path fill="#3D85F9" d="M183.028,44.736V30.734h-1.35c-0.787,0-1.434-0.238-1.939-0.717c-0.507-0.478-0.76-1.139-0.76-1.982
		c0-0.759,0.261-1.385,0.78-1.877c0.521-0.492,1.16-0.738,1.919-0.738h1.35v-3.627c0-1.012,0.281-1.827,0.844-2.446
		c0.562-0.618,1.293-0.928,2.193-0.928c0.899,0,1.63,0.31,2.192,0.928c0.562,0.619,0.844,1.434,0.844,2.446v3.627h1.771
		c0.844,0,1.532,0.204,2.066,0.611c0.534,0.408,0.802,1.075,0.802,2.003c0,0.9-0.268,1.575-0.802,2.024
		c-0.534,0.45-1.223,0.675-2.066,0.675h-1.771v14.002c0,1.013-0.281,1.828-0.844,2.446c-0.562,0.619-1.293,0.928-2.192,0.928
		c-0.9,0-1.631-0.309-2.193-0.928C183.309,46.564,183.028,45.749,183.028,44.736z"/>
</g>
</svg>
