<?xml version="1.0" encoding="utf-8"?>
<!-- Generator: Adobe Illustrator 21.1.0, SVG Export Plug-In . SVG Version: 6.00 Build 0)  -->
<svg version="1.1" baseProfile="basic" xmlns="http://www.w3.org/2000/svg" xmlns:xlink="http://www.w3.org/1999/xlink" x="0px"
	 y="0px" viewBox="0 0 500 468" xml:space="preserve">
<style type="text/css">
	.st0{fill:#FFFFFF;}
	.st1{fill:#E6E7E8;}
	.st2{fill:#191617;}
	.st3{fill:#231F20;}
	.st4{fill:#CFF5F9;}
	.st5{fill:#161113;}
	.st6{fill:#BCBEC0;}
	.st7{fill:#F1F2F2;}
	.st8{fill:#5090DD;}
	.st9{fill:#6098EA;}
	.st10{fill:#F97658;}
	.st11{fill:#FF805B;}
	.st12{fill:#EF624B;}
	.st13{fill:#E84D3D;}
	.st14{fill:#414042;}
	.st15{fill:#8CA33A;}
	.st16{fill:#90AD41;}
	.st17{fill:#879B32;}
	.st18{fill:#838C2D;}
	.st19{fill:#D1D3D4;}
	.st20{fill:#EFB930;}
	.st21{fill:#FBCA3D;}
	.st22{fill:#E8AD2A;}
	.st23{fill:#E5A320;}
	.st24{fill:#89A037;}
	.st25{fill:#EAB42D;}
</style>
<g id="BACKGROUND">
	<rect class="st0" width="500" height="500"/>
</g>
<g id="OBJECTS">
	<circle class="st1" cx="266.3" cy="258.2" r="174.2"/>
	<g>
		<path class="st2" d="M317.5,173.9l130.4,52.3c4.4,1.8,12.5,5.2,14.3,9.7c3.9,9.9,2.4,24.6-5.1,29.4l-271,174.7
			c-4.8,3.1-10.8,3.4-15.9,0.8L30.5,369.1c-9.7-4.9-11-16.4-7.1-27c0.9-2.4,2.6-4.5,4.9-5.8l273.1-161.6c4.7-3,10.6-3.4,15.6-1
			C317.1,173.7,317.3,173.8,317.5,173.9z"/>
		<path class="st3" d="M313.3,156.5l144.7,74c6.3,3.2,6.8,12.1,0.8,16L182.3,425.3c-3.4,2.2-7.7,2.4-11.3,0.6L29.6,354.1
			c-7.8-3.9-8.4-14.8-1-19.6L302,157.1C305.4,154.8,309.7,154.6,313.3,156.5z"/>
		<path class="st4" d="M305.7,173.6l120.7,61.7c7.3,3.7,7.9,14,0.9,18.5L199,403.5c-4.2,2.7-9.5,3-13.9,0.7L59.4,340.5
			c-5.1-2.6-5.5-9.7-0.7-12.8l233-153.4C295.9,171.6,301.2,171.3,305.7,173.6z"/>
		<path class="st3" d="M98.3,399.4L81,390.3c-1.3-0.7-1.8-2.3-1.1-3.6l0,0c0.7-1.3,2.3-1.8,3.6-1.1l17.3,9.1
			c1.3,0.7,1.8,2.3,1.1,3.6v0C101.2,399.6,99.6,400.1,98.3,399.4z"/>
		<path class="st5" d="M81,390.3l5-3.4l-2.7-1.5c0,0-3-0.8-3.6,1.7C79,389.7,81,390.3,81,390.3z"/>
		<g>
			<polygon class="st6" points="438,269.5 419.5,282.5 418.4,282.6 416.6,279.2 436.2,266.1 437.7,266.3 			"/>
			<polygon class="st7" points="438.8,269.6 419.5,282.5 418.1,279.4 437.7,266.3 			"/>
		</g>
		<g>
			<polygon class="st6" points="409.3,287.9 390.7,301 389.7,301 387.9,297.7 407.5,284.5 408.9,284.7 			"/>
			<polygon class="st7" points="410.1,288 390.7,301 389.3,297.9 408.9,284.7 			"/>
		</g>
		<path class="st2" d="M402.5,210.4l-57-29.8c-1.4-0.8-3.2-0.2-4,1.3l-0.5,1c-0.8,1.4-0.2,3.2,1.3,4l57,29.8c1.4,0.8,3.2,0.2,4-1.3
			l0.5-1C404.5,212.9,404,211.1,402.5,210.4z"/>
	</g>
	<g>
		<path class="st8" d="M326.4,164.6c0-12.9-10.5-23.4-23.4-23.4c-12.9,0-23.4,10.5-23.4,23.4c0,9.4,5.6,17.6,13.6,21.3l3.5,20h5.5
			l9.6-19.6C320.4,182.8,326.4,174.4,326.4,164.6z"/>
		<path class="st9" d="M320.9,164.6c0-12.9-10.5-23.4-23.4-23.4c-12.9,0-23.4,10.5-23.4,23.4c0,9.4,5.6,17.6,13.6,21.3l9,20
			l9.6-19.6C314.9,182.8,320.9,174.4,320.9,164.6z"/>
		<g>
			<g>
				<path class="st0" d="M303.2,162.4h-13.2H283c0,0,1.3,12.5,5.6,12.8c2,0.1,5.2,0.1,8.1,0.1c2.9,0,6.1,0,8.1-0.1
					c4.3-0.3,5.6-12.8,5.6-12.8H303.2z M289.4,173.1c0,0.4-0.3,0.7-0.7,0.7c-0.4,0-0.7-0.3-0.7-0.7v-8.5c0-0.4,0.3-0.7,0.7-0.7
					c0.4,0,0.7,0.3,0.7,0.7V173.1z M294.7,173.1c0,0.4-0.3,0.7-0.7,0.7c-0.4,0-0.7-0.3-0.7-0.7v-8.5c0-0.4,0.3-0.7,0.7-0.7
					c0.4,0,0.7,0.3,0.7,0.7V173.1z M300,173.1c0,0.4-0.3,0.7-0.7,0.7c-0.4,0-0.7-0.3-0.7-0.7v-8.5c0-0.4,0.3-0.7,0.7-0.7
					c0.4,0,0.7,0.3,0.7,0.7V173.1z M305.4,173.1c0,0.4-0.3,0.7-0.7,0.7c-0.4,0-0.7-0.3-0.7-0.7v-8.5c0-0.4,0.3-0.7,0.7-0.7
					c0.4,0,0.7,0.3,0.7,0.7V173.1z"/>
			</g>
			<path class="st0" d="M310.3,163.1H283c-0.5,0-0.8-0.4-0.8-0.8l0,0c0-0.5,0.4-0.8,0.8-0.8h27.3c0.5,0,0.8,0.4,0.8,0.8l0,0
				C311.1,162.7,310.8,163.1,310.3,163.1z"/>
			<path class="st0" d="M296.6,155.1c-2.9,0-5.3,2.9-5.3,6.4v0.6h1.4v-0.6c0-2.7,1.7-4.9,3.9-4.9c2.1,0,3.9,2.2,3.9,4.9v0.6h1.4
				v-0.6C301.9,158,299.6,155.1,296.6,155.1z"/>
		</g>
		<path class="st0" d="M297.5,145.1c-10.7,0-19.4,8.7-19.4,19.4s8.7,19.4,19.4,19.4c10.7,0,19.4-8.7,19.4-19.4
			S308.3,145.1,297.5,145.1z M297.5,183.1c-10.2,0-18.6-8.3-18.6-18.6c0-10.2,8.3-18.6,18.6-18.6c10.2,0,18.6,8.3,18.6,18.6
			C316.1,174.8,307.8,183.1,297.5,183.1z"/>
	</g>
	<g>
		<g>
			<rect x="214.1" y="202.4" class="st10" width="70.9" height="73.1"/>
			<polygon class="st11" points="272.5,284.8 202.8,284.8 202.8,211.7 273.7,211.7 			"/>
			<polygon class="st12" points="214.1,202.4 202.8,211.7 214.1,211.7 			"/>
			<polygon class="st12" points="284.9,202.4 272.5,211.7 272.5,284.8 284.9,275.5 			"/>
			<polygon class="st11" points="272.5,284.8 278.7,265 284.9,275.5 			"/>
			<polygon class="st13" points="278.7,265 278.7,207.1 284.9,202.4 284.9,275.5 			"/>
			<path class="st14" d="M241.3,193.7c-8.1,0-14.7,8.1-14.7,18v0.5h2v-0.5c0-8.8,5.7-15.9,12.7-15.9c7,0,12.7,7.1,12.7,15.9v0.5h2
				v-0.5C255.9,201.7,249.4,193.7,241.3,193.7z"/>
			<path class="st14" d="M251.4,183.8c-8.1,0-14.7,8.1-14.7,18v0.5h2v-0.5c0-8.8,5.7-15.9,12.7-15.9c7,0,12.7,7.1,12.7,15.9v0.5h2
				v-0.5C266,191.9,259.4,183.8,251.4,183.8z"/>
		</g>
		<g>
			<rect x="263.2" y="218.5" class="st15" width="70.9" height="73.1"/>
			<polygon class="st16" points="321.7,301 252,301 252,227.8 322.8,227.8 			"/>
			<polygon class="st17" points="263.2,218.5 252,227.8 263.2,227.8 			"/>
			<polygon class="st17" points="334.1,218.5 321.7,227.8 321.7,301 334.1,291.7 			"/>
			<polygon class="st16" points="321.7,301 327.9,281.1 334.1,291.7 			"/>
			<polygon class="st18" points="327.9,281.1 327.9,223.2 334.1,218.5 334.1,291.7 			"/>
			<path class="st14" d="M290.4,209.8c-8.1,0-14.7,8.1-14.7,18v0.5h2v-0.5c0-8.8,5.7-15.9,12.7-15.9c7,0,12.7,7.1,12.7,15.9v0.5h2
				v-0.5C305.1,217.9,298.5,209.8,290.4,209.8z"/>
			<path class="st14" d="M300.5,199.9c-8.1,0-14.7,8.1-14.7,18v0.5h2V218c0-8.8,5.7-15.9,12.7-15.9c7,0,12.7,7.1,12.7,15.9v0.5h2
				V218C315.1,208,308.6,199.9,300.5,199.9z"/>
		</g>
		<g>
			<polygon class="st7" points="307.4,302 213.6,295.6 230.8,275.5 307.4,275.5 			"/>
			<rect x="213.6" y="295.6" class="st0" width="76.6" height="26.5"/>
			<polygon class="st1" points="307.4,275.5 290.3,295.6 290.3,322.1 307.4,301.2 			"/>
			<rect x="213.6" y="304.8" class="st1" width="76.6" height="1.4"/>
			<polygon class="st19" points="290.3,304.8 307.4,287.7 307.4,288.8 290.3,306.1 			"/>
		</g>
	</g>
	<g>
		<g>
			<path class="st8" d="M180.3,261.4c0-12.9-10.5-23.4-23.4-23.4c-12.9,0-23.4,10.5-23.4,23.4c0,9.4,5.6,17.6,13.6,21.3l3.5,20h5.5
				l9.6-19.6C174.2,279.6,180.3,271.2,180.3,261.4z"/>
			<path class="st9" d="M174.8,261.4c0-12.9-10.5-23.4-23.4-23.4c-12.9,0-23.4,10.5-23.4,23.4c0,9.4,5.6,17.6,13.6,21.3l9,20
				l9.6-19.6C168.8,279.6,174.8,271.2,174.8,261.4z"/>
			<g>
				<g>
					<path class="st0" d="M157.1,259.2h-13.2h-7.1c0,0,1.3,12.5,5.6,12.8c2,0.1,5.2,0.1,8.1,0.1c2.9,0,6.1,0,8.1-0.1
						c4.3-0.3,5.6-12.8,5.6-12.8H157.1z M143.3,269.9c0,0.4-0.3,0.7-0.7,0.7c-0.4,0-0.7-0.3-0.7-0.7v-8.5c0-0.4,0.3-0.7,0.7-0.7
						c0.4,0,0.7,0.3,0.7,0.7V269.9z M148.6,269.9c0,0.4-0.3,0.7-0.7,0.7s-0.7-0.3-0.7-0.7v-8.5c0-0.4,0.3-0.7,0.7-0.7
						s0.7,0.3,0.7,0.7V269.9z M153.9,269.9c0,0.4-0.3,0.7-0.7,0.7c-0.4,0-0.7-0.3-0.7-0.7v-8.5c0-0.4,0.3-0.7,0.7-0.7
						c0.4,0,0.7,0.3,0.7,0.7V269.9z M159.2,269.9c0,0.4-0.3,0.7-0.7,0.7c-0.4,0-0.7-0.3-0.7-0.7v-8.5c0-0.4,0.3-0.7,0.7-0.7
						c0.4,0,0.7,0.3,0.7,0.7V269.9z"/>
				</g>
				<path class="st0" d="M164.2,259.9h-27.3c-0.5,0-0.8-0.4-0.8-0.8l0,0c0-0.5,0.4-0.8,0.8-0.8h27.3c0.5,0,0.8,0.4,0.8,0.8l0,0
					C165,259.5,164.6,259.9,164.2,259.9z"/>
				<path class="st0" d="M150.5,251.9c-2.9,0-5.3,2.9-5.3,6.4v0.6h1.4v-0.6c0-2.7,1.7-4.9,3.9-4.9c2.1,0,3.9,2.2,3.9,4.9v0.6h1.4
					v-0.6C155.8,254.7,153.4,251.9,150.5,251.9z"/>
			</g>
			<path class="st0" d="M151.4,241.9c-10.7,0-19.4,8.7-19.4,19.4c0,10.7,8.7,19.4,19.4,19.4c10.7,0,19.4-8.7,19.4-19.4
				C170.8,250.6,162.1,241.9,151.4,241.9z M151.4,279.9c-10.2,0-18.6-8.3-18.6-18.6c0-10.2,8.3-18.6,18.6-18.6
				c10.2,0,18.6,8.3,18.6,18.6C170,271.6,161.6,279.9,151.4,279.9z"/>
		</g>
		<g>
			<path class="st8" d="M100.3,301.6c0-12.9-10.5-23.4-23.4-23.4c-12.9,0-23.4,10.5-23.4,23.4c0,9.4,5.6,17.6,13.6,21.3l3.5,20h5.5
				l9.6-19.6C94.3,319.8,100.3,311.4,100.3,301.6z"/>
			<path class="st9" d="M94.8,301.6c0-12.9-10.5-23.4-23.4-23.4s-23.4,10.5-23.4,23.4c0,9.4,5.6,17.6,13.6,21.3l9,20l9.6-19.6
				C88.8,319.8,94.8,311.4,94.8,301.6z"/>
			<g>
				<g>
					<path class="st0" d="M77.1,299.4H64h-7.1c0,0,1.3,12.5,5.6,12.8c2,0.1,5.2,0.1,8.1,0.1c2.9,0,6.1,0,8.1-0.1
						c4.3-0.3,5.6-12.8,5.6-12.8H77.1z M63.3,310.1c0,0.4-0.3,0.7-0.7,0.7c-0.4,0-0.7-0.3-0.7-0.7v-8.5c0-0.4,0.3-0.7,0.7-0.7
						c0.4,0,0.7,0.3,0.7,0.7V310.1z M68.6,310.1c0,0.4-0.3,0.7-0.7,0.7s-0.7-0.3-0.7-0.7v-8.5c0-0.4,0.3-0.7,0.7-0.7
						s0.7,0.3,0.7,0.7V310.1z M74,310.1c0,0.4-0.3,0.7-0.7,0.7s-0.7-0.3-0.7-0.7v-8.5c0-0.4,0.3-0.7,0.7-0.7s0.7,0.3,0.7,0.7V310.1z
						 M79.3,310.1c0,0.4-0.3,0.7-0.7,0.7c-0.4,0-0.7-0.3-0.7-0.7v-8.5c0-0.4,0.3-0.7,0.7-0.7c0.4,0,0.7,0.3,0.7,0.7V310.1z"/>
				</g>
				<path class="st0" d="M84.2,300.1H56.9c-0.5,0-0.8-0.4-0.8-0.8l0,0c0-0.5,0.4-0.8,0.8-0.8h27.3c0.5,0,0.8,0.4,0.8,0.8l0,0
					C85.1,299.7,84.7,300.1,84.2,300.1z"/>
				<path class="st0" d="M70.5,292.1c-2.9,0-5.3,2.9-5.3,6.4v0.6h1.4v-0.6c0-2.7,1.7-4.9,3.9-4.9c2.1,0,3.9,2.2,3.9,4.9v0.6h1.4
					v-0.6C75.8,295,73.5,292.1,70.5,292.1z"/>
			</g>
			<path class="st0" d="M71.4,282.1c-10.7,0-19.4,8.7-19.4,19.4c0,10.7,8.7,19.4,19.4,19.4c10.7,0,19.4-8.7,19.4-19.4
				C90.9,290.9,82.2,282.1,71.4,282.1z M71.4,320.2c-10.2,0-18.6-8.3-18.6-18.6c0-10.2,8.3-18.6,18.6-18.6
				c10.2,0,18.6,8.3,18.6,18.6C90,311.8,81.7,320.2,71.4,320.2z"/>
		</g>
		<g>
			<path class="st8" d="M415.4,225.3c0-12.9-10.5-23.4-23.4-23.4c-12.9,0-23.4,10.5-23.4,23.4c0,9.4,5.6,17.6,13.6,21.3l3.5,20h5.5
				l9.6-19.6C409.4,243.5,415.4,235.1,415.4,225.3z"/>
			<path class="st9" d="M410,225.3c0-12.9-10.5-23.4-23.4-23.4c-12.9,0-23.4,10.5-23.4,23.4c0,9.4,5.6,17.6,13.6,21.3l9,20l9.6-19.6
				C404,243.5,410,235.1,410,225.3z"/>
			<g>
				<g>
					<path class="st0" d="M392.3,223.1h-13.2H372c0,0,1.3,12.5,5.6,12.8c2,0.1,5.2,0.1,8.1,0.1c2.9,0,6.1,0,8.1-0.1
						c4.3-0.3,5.6-12.8,5.6-12.8H392.3z M378.4,233.8c0,0.4-0.3,0.7-0.7,0.7c-0.4,0-0.7-0.3-0.7-0.7v-8.5c0-0.4,0.3-0.7,0.7-0.7
						c0.4,0,0.7,0.3,0.7,0.7V233.8z M383.8,233.8c0,0.4-0.3,0.7-0.7,0.7c-0.4,0-0.7-0.3-0.7-0.7v-8.5c0-0.4,0.3-0.7,0.7-0.7
						c0.4,0,0.7,0.3,0.7,0.7V233.8z M389.1,233.8c0,0.4-0.3,0.7-0.7,0.7c-0.4,0-0.7-0.3-0.7-0.7v-8.5c0-0.4,0.3-0.7,0.7-0.7
						c0.4,0,0.7,0.3,0.7,0.7V233.8z M394.4,233.8c0,0.4-0.3,0.7-0.7,0.7c-0.4,0-0.7-0.3-0.7-0.7v-8.5c0-0.4,0.3-0.7,0.7-0.7
						c0.4,0,0.7,0.3,0.7,0.7V233.8z"/>
				</g>
				<path class="st0" d="M399.4,223.8H372c-0.5,0-0.8-0.4-0.8-0.8l0,0c0-0.5,0.4-0.8,0.8-0.8h27.3c0.5,0,0.8,0.4,0.8,0.8l0,0
					C400.2,223.4,399.8,223.8,399.4,223.8z"/>
				<path class="st0" d="M385.7,215.8c-2.9,0-5.3,2.9-5.3,6.4v0.6h1.4v-0.6c0-2.7,1.7-4.9,3.9-4.9s3.9,2.2,3.9,4.9v0.6h1.4v-0.6
					C391,218.7,388.6,215.8,385.7,215.8z"/>
			</g>
			<path class="st0" d="M386.6,205.8c-10.7,0-19.4,8.7-19.4,19.4s8.7,19.4,19.4,19.4c10.7,0,19.4-8.7,19.4-19.4
				S397.3,205.8,386.6,205.8z M386.6,243.9c-10.2,0-18.6-8.3-18.6-18.6s8.3-18.6,18.6-18.6c10.2,0,18.6,8.3,18.6,18.6
				S396.8,243.9,386.6,243.9z"/>
		</g>
	</g>
	<g>
		<rect x="171.8" y="257.6" class="st20" width="70.9" height="73.1"/>
		<polygon class="st21" points="230.2,340 160.5,340 160.5,266.9 231.4,266.9 		"/>
		<polygon class="st22" points="171.8,257.6 160.5,266.9 171.8,266.9 		"/>
		<polygon class="st22" points="242.6,257.6 230.2,266.9 230.2,340 242.6,330.7 		"/>
		<polygon class="st20" points="230.2,340 236.4,320.2 242.6,330.7 		"/>
		<polygon class="st23" points="236.4,320.2 236.4,262.3 242.6,257.6 242.6,330.7 		"/>
		<path class="st14" d="M199,248.9c-8.1,0-14.7,8.1-14.7,18v0.5h2v-0.5c0-8.8,5.7-15.9,12.7-15.9c7,0,12.7,7.1,12.7,15.9v0.5h2v-0.5
			C213.6,257,207.1,248.9,199,248.9z"/>
		<path class="st14" d="M209.1,239c-8.1,0-14.7,8.1-14.7,18v0.5h2v-0.5c0-8.8,5.7-15.9,12.7-15.9c7,0,12.7,7.1,12.7,15.9v0.5h2v-0.5
			C223.7,247.1,217.1,239,209.1,239z"/>
	</g>
	<g>
		<path class="st8" d="M214.4,352.8c0-12.9-10.5-23.4-23.4-23.4c-12.9,0-23.4,10.5-23.4,23.4c0,9.4,5.6,17.6,13.6,21.3l3.5,20h5.5
			l9.6-19.6C208.4,371,214.4,362.6,214.4,352.8z"/>
		<path class="st9" d="M208.9,352.8c0-12.9-10.5-23.4-23.4-23.4c-12.9,0-23.4,10.5-23.4,23.4c0,9.4,5.6,17.6,13.6,21.3l9,20
			l9.6-19.6C202.9,371,208.9,362.6,208.9,352.8z"/>
		<g>
			<g>
				<path class="st0" d="M191.2,350.6H178h-7.1c0,0,1.3,12.5,5.6,12.8c2,0.1,5.2,0.1,8.1,0.1c2.9,0,6.1,0,8.1-0.1
					c4.3-0.3,5.6-12.8,5.6-12.8H191.2z M177.4,361.3c0,0.4-0.3,0.7-0.7,0.7s-0.7-0.3-0.7-0.7v-8.5c0-0.4,0.3-0.7,0.7-0.7
					s0.7,0.3,0.7,0.7V361.3z M182.7,361.3c0,0.4-0.3,0.7-0.7,0.7c-0.4,0-0.7-0.3-0.7-0.7v-8.5c0-0.4,0.3-0.7,0.7-0.7
					c0.4,0,0.7,0.3,0.7,0.7V361.3z M188,361.3c0,0.4-0.3,0.7-0.7,0.7c-0.4,0-0.7-0.3-0.7-0.7v-8.5c0-0.4,0.3-0.7,0.7-0.7
					c0.4,0,0.7,0.3,0.7,0.7V361.3z M193.3,361.3c0,0.4-0.3,0.7-0.7,0.7c-0.4,0-0.7-0.3-0.7-0.7v-8.5c0-0.4,0.3-0.7,0.7-0.7
					c0.4,0,0.7,0.3,0.7,0.7V361.3z"/>
			</g>
			<path class="st0" d="M198.3,351.3h-27.3c-0.5,0-0.8-0.4-0.8-0.8l0,0c0-0.5,0.4-0.8,0.8-0.8h27.3c0.5,0,0.8,0.4,0.8,0.8l0,0
				C199.1,350.9,198.7,351.3,198.3,351.3z"/>
			<path class="st0" d="M184.6,343.3c-2.9,0-5.3,2.9-5.3,6.4v0.6h1.4v-0.6c0-2.7,1.7-4.9,3.9-4.9s3.9,2.2,3.9,4.9v0.6h1.4v-0.6
				C189.9,346.1,187.5,343.3,184.6,343.3z"/>
		</g>
		<path class="st0" d="M185.5,333.3c-10.7,0-19.4,8.7-19.4,19.4s8.7,19.4,19.4,19.4c10.7,0,19.4-8.7,19.4-19.4
			S196.2,333.3,185.5,333.3z M185.5,371.3c-10.2,0-18.6-8.3-18.6-18.6c0-10.2,8.3-18.6,18.6-18.6c10.2,0,18.6,8.3,18.6,18.6
			C204.1,363,195.8,371.3,185.5,371.3z"/>
	</g>
	<g>
		<g>
			<circle class="st8" cx="298.6" cy="134.1" r="3.3"/>
			<circle class="st9" cx="297.8" cy="134.1" r="3.3"/>
		</g>
		<g>
			<circle class="st8" cx="298.6" cy="116.1" r="3.3"/>
			<circle class="st9" cx="297.8" cy="116.1" r="3.3"/>
		</g>
		<g>
			<circle class="st8" cx="298.6" cy="98.2" r="3.3"/>
			<circle class="st9" cx="297.8" cy="98.2" r="3.3"/>
		</g>
		<g>
			<circle class="st8" cx="298.6" cy="80.2" r="3.3"/>
			<circle class="st9" cx="297.8" cy="80.2" r="3.3"/>
		</g>
		<g>
			<circle class="st8" cx="68" cy="269.2" r="3.3"/>
			<circle class="st9" cx="67.2" cy="269.2" r="3.3"/>
		</g>
		<g>
			<circle class="st8" cx="68" cy="251.3" r="3.3"/>
			<circle class="st9" cx="67.2" cy="251.3" r="3.3"/>
		</g>
		<g>
			<circle class="st8" cx="68" cy="233.3" r="3.3"/>
			<circle class="st9" cx="67.2" cy="233.3" r="3.3"/>
		</g>
		<g>
			<circle class="st8" cx="68" cy="215.4" r="3.3"/>
			<circle class="st9" cx="67.2" cy="215.4" r="3.3"/>
		</g>
		<g>
			<circle class="st8" cx="270.5" cy="382.1" r="3.3"/>
			<circle class="st9" cx="269.7" cy="382.1" r="3.3"/>
		</g>
		<g>
			<circle class="st8" cx="250.4" cy="382.1" r="3.3"/>
			<circle class="st9" cx="249.6" cy="382.1" r="3.3"/>
		</g>
		<g>
			<circle class="st8" cx="228.7" cy="382.1" r="3.3"/>
			<circle class="st9" cx="227.8" cy="382.1" r="3.3"/>
		</g>
		<g>
			<circle class="st8" cx="206.6" cy="382.1" r="3.3"/>
			<circle class="st9" cx="205.7" cy="382.1" r="3.3"/>
		</g>
		<g>
			<circle class="st8" cx="149.2" cy="228.3" r="3.3"/>
			<circle class="st9" cx="148.3" cy="228.3" r="3.3"/>
		</g>
		<g>
			<circle class="st8" cx="149.2" cy="210.3" r="3.3"/>
			<circle class="st9" cx="148.3" cy="210.3" r="3.3"/>
		</g>
		<g>
			<circle class="st8" cx="149.2" cy="192.3" r="3.3"/>
			<circle class="st9" cx="148.3" cy="192.3" r="3.3"/>
		</g>
		<g>
			<circle class="st8" cx="149.2" cy="174.4" r="3.3"/>
			<circle class="st9" cx="148.3" cy="174.4" r="3.3"/>
		</g>
		<g>
			<circle class="st8" cx="397.7" cy="191.7" r="3.3"/>
			<circle class="st9" cx="396.9" cy="191.7" r="3.3"/>
		</g>
		<g>
			<circle class="st8" cx="397.7" cy="173.7" r="3.3"/>
			<circle class="st9" cx="396.9" cy="173.7" r="3.3"/>
		</g>
		<g>
			<circle class="st8" cx="397.7" cy="155.7" r="3.3"/>
			<circle class="st9" cx="396.9" cy="155.7" r="3.3"/>
		</g>
		<g>
			<circle class="st8" cx="397.7" cy="137.8" r="3.3"/>
			<circle class="st9" cx="396.9" cy="137.8" r="3.3"/>
		</g>
	</g>
	<g>
		<g>
			<g>
				<path class="st24" d="M96.2,208.3H48.1c-6.6,0-12-5.4-12-12v-34.8c0-6.6,5.4-12,12-12h48.1c6.6,0,12,5.4,12,12v34.8
					C108.2,202.9,102.8,208.3,96.2,208.3z"/>
				<path class="st16" d="M90.3,208.3H44.9c-6.6,0-12-5.4-12-12v-32c0-6.6,5.4-12,12-12h45.4c6.6,0,12,5.4,12,12v32
					C102.3,202.9,96.9,208.3,90.3,208.3z"/>
			</g>
			<g>
				<path class="st1" d="M79.8,187.1c0,0-8.7-1.7-11.9-8.2c-3.8-7.8-11.9-20.1-11.4-20.2c0,0,10.8,35.9,17,34.9
					C79.7,192.6,81.5,189.9,79.8,187.1z"/>
				<path class="st0" d="M89.3,196.7c0,0-14.4,4.8-19.1,0.8c-4.7-4-11-21.4-14.3-20.6c-3.3,0.8-2.5,21.4-2.5,21.4h-1.9
					c0,0-0.2-15.3-0.6-17.2c-0.4-1.8-2.3-8.4-2.1-10.5c0.1-2.2,2-10,7.8-11.8c0,0,11.9,32.1,18.6,31.8c6.7-0.3,4.7-3.5,4.7-3.5
					s8.3,3.5,9,4.6C89.5,192.8,90.7,195.5,89.3,196.7z"/>
			</g>
		</g>
		<g>
			<g>
				<path class="st25" d="M177.3,167.3h-48.1c-6.6,0-12-5.4-12-12v-34.7c0-6.6,5.4-12,12-12h48.1c6.6,0,12,5.4,12,12v34.7
					C189.3,161.9,183.9,167.3,177.3,167.3z"/>
				<path class="st21" d="M171.4,167.3H126c-6.6,0-12-5.4-12-12v-32c0-6.6,5.4-12,12-12h45.4c6.6,0,12,5.4,12,12v32
					C183.4,161.9,178,167.3,171.4,167.3z"/>
			</g>
			<g>
				<ellipse class="st0" cx="140.7" cy="149.4" rx="12.7" ry="8.5"/>
				<ellipse class="st21" cx="140.7" cy="149.4" rx="11.2" ry="7.5"/>
				<ellipse class="st0" cx="140.7" cy="149.4" rx="10.2" ry="6.9"/>
				<ellipse class="st0" cx="140.7" cy="132.1" rx="11.1" ry="9.8"/>
				<ellipse class="st21" cx="140.7" cy="132.1" rx="9.3" ry="8.2"/>
				<polygon class="st0" points="145.6,127 134.6,135.6 134.9,136 146.4,127.5 				"/>
				<polygon class="st0" points="145.3,130.6 137.4,136.8 137.6,137.1 145.8,131 				"/>
				<polygon class="st0" points="142.7,125.9 134.8,132 135,132.4 143.2,126.2 				"/>
			</g>
			<g>
				<rect x="160.8" y="133.2" class="st0" width="7.8" height="23"/>
				<rect x="160.8" y="138.1" class="st21" width="7.8" height="1.2"/>
				<path class="st0" d="M161.6,132.1v-3.8c0,0,2.4-5.5,6.3-6v9.8H161.6z"/>
				<path class="st21" d="M167.6,123c0,0-2.7,5.2-5.6,5.3C162,128.3,164.9,122.9,167.6,123z"/>
			</g>
		</g>
		<g>
			<g>
				<path class="st24" d="M326.7,73.1h-48.1c-6.6,0-12-5.4-12-12V26.4c0-6.6,5.4-12,12-12h48.1c6.6,0,12,5.4,12,12v34.8
					C338.7,67.7,333.3,73.1,326.7,73.1z"/>
				<path class="st16" d="M320.9,73.1h-45.4c-6.6,0-12-5.4-12-12v-32c0-6.6,5.4-12,12-12h45.4c6.6,0,12,5.4,12,12v32
					C332.9,67.7,327.5,73.1,320.9,73.1z"/>
			</g>
			<g>
				
					<rect x="284.9" y="42.4" transform="matrix(0.7897 -0.6134 0.6134 0.7897 35.5156 193.5616)" class="st0" width="30.4" height="5.2"/>
				<path class="st0" d="M322.1,34.6c-2,1.6-5,1.2-6.6-0.8s-1.2-5,0.8-6.6c0.2-0.2,0.5-0.3,0.7-0.5c-1.7-0.2-3.5,0.2-5,1.3
					c-2.9,2.2-3.4,6.4-1.2,9.3c2.2,2.9,6.4,3.4,9.3,1.2c1.5-1.1,2.3-2.8,2.5-4.5C322.6,34.2,322.4,34.4,322.1,34.6z"/>
				<path class="st0" d="M284.5,63.1c2-1.6,2.4-4.5,0.8-6.6c-1.6-2-4.5-2.4-6.6-0.8c-0.2,0.2-0.4,0.4-0.6,0.6c0.2-1.7,1-3.4,2.5-4.5
					c2.9-2.2,7-1.7,9.3,1.2c2.2,2.9,1.7,7-1.2,9.3c-1.5,1.1-3.3,1.6-5,1.3C284,63.4,284.2,63.2,284.5,63.1z"/>
			</g>
			<g>
				
					<rect x="285.5" y="42.4" transform="matrix(-0.7897 -0.6134 0.6134 -0.7897 510.644 264.9652)" class="st0" width="30.4" height="5.2"/>
				<path class="st0" d="M278.7,34.6c2,1.6,5,1.2,6.6-0.8s1.2-5-0.8-6.6c-0.2-0.2-0.5-0.3-0.7-0.5c1.7-0.2,3.5,0.2,5,1.3
					c2.9,2.2,3.4,6.4,1.2,9.3c-2.2,2.9-6.4,3.4-9.3,1.2c-1.5-1.1-2.3-2.8-2.5-4.5C278.3,34.2,278.5,34.4,278.7,34.6z"/>
				<path class="st0" d="M316.4,63.1c-2-1.6-2.4-4.5-0.8-6.6c1.6-2,4.5-2.4,6.6-0.8c0.2,0.2,0.4,0.4,0.6,0.6c-0.2-1.7-1-3.4-2.5-4.5
					c-2.9-2.2-7-1.7-9.3,1.2c-2.2,2.9-1.7,7,1.2,9.3c1.5,1.1,3.3,1.6,5,1.3C316.9,63.4,316.6,63.2,316.4,63.1z"/>
			</g>
		</g>
		<g>
			<g>
				<path class="st25" d="M425.8,130.7h-48.1c-6.6,0-12-5.4-12-12V83.9c0-6.6,5.4-12,12-12h48.1c6.6,0,12,5.4,12,12v34.8
					C437.8,125.3,432.4,130.7,425.8,130.7z"/>
				<path class="st21" d="M420,130.7h-45.4c-6.6,0-12-5.4-12-12v-32c0-6.6,5.4-12,12-12H420c6.6,0,12,5.4,12,12v32
					C432,125.3,426.6,130.7,420,130.7z"/>
			</g>
			<path class="st0" d="M421.5,96.5L400.4,79L378,96.5h3.6v24.9h36.1V96.5H421.5z M394.3,120.4h-9.2v-15.8h9.2V120.4z M406.6,108.6
				h-6.4v-8h6.4V108.6z M415.8,108.6h-6.4v-8h6.4V108.6z"/>
		</g>
	</g>
</g>
<g id="DESIGNED_BY_FREEPIK">
</g>
</svg>
