<?xml version="1.0" encoding="utf-8"?>
<!-- Generator: Adobe Illustrator 16.0.0, SVG Export Plug-In . SVG Version: 6.00 Build 0)  -->
<!DOCTYPE svg PUBLIC "-//W3C//DTD SVG 1.1 Basic//EN" "http://www.w3.org/Graphics/SVG/1.1/DTD/svg11-basic.dtd">
<svg version="1.1" baseProfile="basic" id="Layer_1"
	 xmlns="http://www.w3.org/2000/svg" xmlns:xlink="http://www.w3.org/1999/xlink" x="0px" y="0px" width="139px" height="35px"
	 viewBox="0 0 139 35" xml:space="preserve">
<path fill-rule="evenodd" clip-rule="evenodd" fill="#D68633" d="M64.485,33.233c-1.155-0.141-2.752,0.631-2.52-1.563
	c0.056-0.531-0.527-0.464-0.915-0.572c-2.363-0.653-4.353-1.887-5.869-3.845c-0.612-0.79-0.73-1.44,0.347-1.919
	c0.316-0.14,0.589-0.371,0.887-0.556c2.034-1.27,2.008-1.25,3.396,0.605c0.994,1.328,2.134,2.435,4.041,1.905
	c1.145-0.317,2.093-0.923,2.324-2.109c0.245-1.261-0.442-2.276-1.418-3.011c-1.541-1.163-3.32-1.92-5.021-2.812
	c-3.691-1.933-5.171-4.924-4.372-8.981c0.654-3.31,2.879-5.224,5.947-6.253c0.52-0.175,1-0.167,1.075-0.875
	c0.047-0.445-0.33-1.204,0.519-1.236c1.157-0.045,2.319,0.047,3.478,0.085c0.049,0.001,0.139,0.07,0.135,0.095
	c-0.398,2.466,1.999,1.824,3.021,2.707c0.614,0.532,1.36,0.919,1.94,1.48c2.214,2.137,1.942,3.352-0.9,4.572
	c-0.941,0.403-1.094-0.316-1.427-0.817c-1.062-1.598-2.271-2.978-4.455-2.548c-2.32,0.457-3.081,2.704-1.566,4.5
	c0.693,0.822,1.608,1.333,2.562,1.784c1.309,0.619,2.655,1.172,3.923,1.865c3.118,1.7,4.69,4.297,4.311,7.909
	c-0.365,3.481-2.37,5.752-5.488,7.096c-0.963,0.414-1.953,0.418-1.971,2.009C66.457,33.76,65.076,32.915,64.485,33.233z"/>
<path fill-rule="evenodd" clip-rule="evenodd" fill="#D68633" d="M96.025,21.487c-0.083,2.398-0.039,5.553,0.483,8.676
	c0.165,0.987-0.078,1.376-1.142,1.322c-1.573-0.079-3.154-0.017-4.732-0.021c-0.73-0.003-1.528,0.212-1.604-1.003
	c-0.047-0.751-0.519-0.262-0.852-0.098c-6.043,2.995-11.603-0.332-11.791-7.071c-0.035-1.224-0.084-2.475,0.112-3.673
	c0.823-4.997,5.927-7.5,10.901-5.411c0.622,0.261,1.336,1.015,1.624-0.38c0.081-0.391,0.596-0.263,0.93-0.265
	c1.637-0.01,3.274,0.042,4.908-0.021c0.949-0.037,1.2,0.335,1.178,1.225C95.99,16.753,96.025,18.74,96.025,21.487z M88.856,22.72
	c0.036-1.341,0.012-2.687-0.628-3.902c-0.904-1.718-3.058-1.87-3.865-0.202c-1.231,2.536-1.279,5.196,0.065,7.712
	c0.937,1.754,2.63,1.662,3.659-0.065C88.741,25.168,88.779,23.941,88.856,22.72z"/>
<path fill-rule="evenodd" clip-rule="evenodd" fill="#02908C" d="M44.976,19.173c0,3.218-0.075,6.438,0.036,9.651
	c0.046,1.367-0.403,1.704-1.676,1.612c-1.515-0.108-3.051-0.138-4.56,0.007c-1.483,0.142-1.693-0.485-1.682-1.778
	c0.058-6.493-0.016-12.988,0.062-19.48c0.017-1.35-0.376-1.732-1.665-1.614c-1.219,0.111-2.471-0.101-3.68,0.054
	c-1.696,0.217-1.71-0.696-1.698-1.951c0.015-1.217-0.05-2.022,1.672-1.989c6.199,0.119,12.402,0.123,18.602,0
	c1.766-0.036,1.59,0.856,1.637,2.011c0.053,1.282-0.056,2.227-1.705,1.901c-0.113-0.022-0.235-0.01-0.35-0.002
	c-1.613,0.119-3.736-0.708-4.707,0.333c-0.957,1.026-0.245,3.125-0.276,4.752C44.946,14.843,44.976,17.008,44.976,19.173z"/>
<path fill-rule="evenodd" clip-rule="evenodd" fill="#04928F" d="M20.072,16.477c1.456-3.734,2.911-7.47,4.366-11.206
	c0.5-1.284,3.133-2.203,4.299-1.48c0.648,0.402,0.08,0.833-0.064,1.186c-2.039,5.025-4.106,10.04-6.167,15.057
	c-1.286,3.13-2.565,6.263-3.859,9.388c-0.188,0.457-0.221,1.095-0.962,1.06c-0.651-0.031-0.626-0.624-0.786-1.02
	c-3.293-8.105-6.557-16.223-9.873-24.32C6.517,3.896,6.9,3.662,8.084,3.711c1.75,0.072,3.511,0.101,5.258-0.011
	c1.132-0.073,1.636,0.34,2.008,1.37c1.386,3.829,2.854,7.627,4.293,11.437C19.786,16.497,19.929,16.487,20.072,16.477z"/>
<path fill-rule="evenodd" clip-rule="evenodd" fill="#D68632" d="M122.655,24.093c-1.579,0.001-3.161,0.057-4.736-0.018
	c-1.144-0.055-1.28,0.44-1.009,1.367c0.321,1.092,0.96,1.941,2.094,2.108c1.174,0.171,2.281-0.278,2.739-1.427
	c0.364-0.914,0.905-1.024,1.73-0.994c1.401,0.051,2.808,0.05,4.21,0.002c0.938-0.032,1.114,0.431,0.926,1.193
	c-0.436,1.768-1.606,2.973-3.155,3.78c-3.733,1.948-7.565,1.857-11.397,0.319c-1.53-0.614-2.554-1.801-3.186-3.323
	c-0.974-2.35-1.092-4.818-0.596-7.236c0.831-4.032,3.868-5.844,7.805-6.283c1.211-0.135,2.478-0.165,3.676,0.027
	c4.699,0.75,7.613,4.873,7.007,9.667c-0.094,0.747-0.432,0.826-1.02,0.82C126.047,24.082,124.351,24.093,122.655,24.093z
	 M120,20.232c0-0.003,0-0.006,0-0.009c0,0,1.055-0.006,1.697,0.001c0.482,0.007,0.439-0.241,0.376-0.665
	c-0.208-1.386-2.102-2.519-3.405-2.019c-1.031,0.396-1.757,1.259-1.588,2.271c0.141,0.845,1.39,0.267,2.008,0.412
	C119.309,20.276,120,20.232,120,20.232z"/>
<path fill-rule="evenodd" clip-rule="evenodd" fill="#D58636" d="M99.847,19.004c0-3.568,0.08-7.138-0.038-10.702
	c-0.05-1.518,0.452-1.933,1.872-1.79c1.159,0.117,2.345,0.104,3.505,0.002c1.261-0.11,1.722,0.225,1.707,1.608
	c-0.073,7.25-0.073,14.504,0,21.755c0.013,1.375-0.436,1.737-1.701,1.604c-1.728-0.183-3.976,0.726-5.06-0.373
	c-0.993-1.008-0.246-3.228-0.275-4.912C99.816,23.8,99.847,21.401,99.847,19.004z"/>
</svg>
