<?xml version="1.0" encoding="utf-8"?>
<!-- Generator: Adobe Illustrator 21.1.0, SVG Export Plug-In . SVG Version: 6.00 Build 0)  -->
<svg version="1.1" baseProfile="basic" id="Layer_1"
	 xmlns="http://www.w3.org/2000/svg" xmlns:xlink="http://www.w3.org/1999/xlink" x="0px" y="0px" viewBox="0 0 80 80"
	 xml:space="preserve">
<style type="text/css">
	.st0{fill:#EEEEEE;}
	.st1{fill:#E0E6F0;}
	.st2{fill:#CCCCCC;stroke:#CCCCCC;stroke-linecap:round;stroke-linejoin:round;stroke-miterlimit:10;}
	.st3{fill:#7DB8FF;}
	.st4{opacity:0.26;fill:#FFFFFF;}
	.st5{opacity:0.1;}
	.st6{opacity:0.26;}
	.st7{fill:#F03695;}
	.st8{fill:#DCE4F0;stroke:#DCE4F0;stroke-linecap:round;stroke-linejoin:round;stroke-miterlimit:10;}
	.st9{opacity:8.000000e-02;}
	.st10{fill:#1148A1;}
	.st11{fill:#FFFFFF;}
	.st12{fill:#FF8953;}
	.st13{opacity:0.14;}
	.st14{fill:none;stroke:#FFFFFF;stroke-linecap:round;stroke-linejoin:round;stroke-miterlimit:10;}
	.st15{fill:#FFB897;}
	.st16{opacity:0.36;fill:none;stroke:#FFFFFF;stroke-miterlimit:10;}
	.st17{fill:none;}
</style>
<g>
	<g>
		<path class="st0" d="M51.4,7.1H22.3c-2,0-3.6,1.6-3.6,3.6v5.8H55v-5.8C55,8.7,53.4,7.1,51.4,7.1z"/>
		<path class="st0" d="M18.8,60.1V65c0,2,1.6,3.6,3.6,3.6h29.1c2,0,3.6-1.6,3.6-3.6v-4.9H18.8z"/>
		<circle class="st1" cx="36.9" cy="64.4" r="1.7"/>
		<line class="st2" x1="33.6" y1="11.8" x2="38.6" y2="11.8"/>
		<rect x="18.8" y="16.5" class="st3" width="36.2" height="43.6"/>
	</g>
	<g>
		<path class="st0" d="M51.4,7.1H22.3c-2,0-3.6,1.6-3.6,3.6v5.8H55v-5.8C55,8.7,53.4,7.1,51.4,7.1z M33.6,11.8h5H33.6z"/>
		<path class="st0" d="M20.6,61.1l-0.9-0.9l0,0h-1V65c0,2,1.6,3.6,3.6,3.6h29.1c2,0,3.6-1.6,3.6-3.6v-4.9H21.5L20.6,61.1z
			 M36.9,62.6c1,0,1.7,0.8,1.7,1.7c0,1-0.8,1.7-1.7,1.7c-1,0-1.7-0.8-1.7-1.7C35.1,63.4,35.9,62.6,36.9,62.6z"/>
		<circle class="st1" cx="36.9" cy="64.4" r="1.7"/>
		<polygon class="st3" points="18.8,52.4 32.8,38.3 34.8,40.2 18.8,56.3 18.8,60.1 19.8,60.1 37.2,42.7 38.1,43.6 21.5,60.1 
			55,60.1 55,16.5 18.8,16.5 		"/>
		<polygon class="st3" points="32.8,38.3 18.8,52.4 18.8,56.3 34.8,40.2 		"/>
		<polygon class="st4" points="32.8,38.3 18.8,52.4 18.8,56.3 34.8,40.2 		"/>
		<polygon class="st0" points="20.6,61.1 21.5,60.1 19.8,60.1 19.7,60.2 		"/>
		<polygon class="st4" points="20.6,61.1 21.5,60.1 19.8,60.1 19.7,60.2 		"/>
		<polygon class="st3" points="38.1,43.6 37.2,42.7 19.8,60.1 21.5,60.1 		"/>
		<polygon class="st4" points="38.1,43.6 37.2,42.7 19.8,60.1 21.5,60.1 		"/>
	</g>
	<g class="st5">
		<path d="M48.3,53.1H25.6c-0.6,0-1-0.5-1-1V27.7c0-0.5,0.4-1,1-1h22.7c0.5,0,1,0.5,1,1v24.3C49.3,52.6,48.8,53.1,48.3,53.1z"/>
		<circle class="st6" cx="36.9" cy="37.4" r="4.6"/>
		<line x1="34.4" y1="47.1" x2="39.5" y2="47.1"/>
	</g>
	<g>
		<path class="st7" d="M48.3,51.9H25.6c-0.6,0-1-0.5-1-1V26.5c0-0.5,0.4-1,1-1h22.7c0.5,0,1,0.5,1,1v24.3
			C49.3,51.4,48.8,51.9,48.3,51.9z"/>
		<circle class="st4" cx="36.9" cy="36.2" r="4.6"/>
		<line class="st8" x1="34.4" y1="45.9" x2="39.5" y2="45.9"/>
	</g>
	<line class="st2" x1="33.6" y1="11.8" x2="38.6" y2="11.8"/>
	<path class="st9" d="M61.4,11.6h-5.7c-6,0-10.9,4.8-11.2,10.8c0,0.1,0,0.1,0,0.2v0.2l0,0v8.8c0,1.3,1.1,2.4,2.4,2.4h8.8h4.2h1.6
		c6.2,0,11.2-5,11.2-11.2l0,0C72.6,16.6,67.6,11.6,61.4,11.6z"/>
	<path class="st10" d="M62.6,9.2h-5.7c-6,0-10.9,4.8-11.2,10.8c0,0.1,0,0.1,0,0.2v0.2l0,0v8.8c0,1.3,1.1,2.4,2.4,2.4h8.8H61h1.6
		c6.2,0,11.2-5,11.2-11.2l0,0C73.8,14.2,68.8,9.2,62.6,9.2z"/>
	<circle class="st11" cx="53.5" cy="20.7" r="1.6"/>
	<circle class="st11" cx="59.4" cy="20.7" r="1.6"/>
	<circle class="st11" cx="65.3" cy="20.7" r="1.6"/>
	<path class="st12" d="M29.6,74.5H10.9c-1.3,0-2.4-1.1-2.4-2.4l2.4-16.6c0-1.3,1.1-2.4,2.4-2.4h14c1.3,0,2.4,1.1,2.4,2.4l2.4,16.6
		C31.9,73.4,30.9,74.5,29.6,74.5z"/>
	<circle class="st13" cx="16" cy="60.3" r="2"/>
	<circle class="st13" cx="24.5" cy="60.3" r="2"/>
	<path class="st14" d="M24.5,60.8v2.8c0,2.3-1.9,4.3-4.3,4.3h0c-2.3,0-4.3-1.9-4.3-4.3v-2.8"/>
	<circle class="st15" cx="68.2" cy="43.9" r="3.3"/>
	<circle class="st16" cx="75.6" cy="66.1" r="2.7"/>
	<circle class="st17" cx="66.9" cy="71.2" r="1.3"/>
	<circle class="st16" cx="4.6" cy="14.8" r="3.9"/>
	<circle class="st16" cx="10" cy="49.3" r="3.9"/>
</g>
</svg>
