<?xml version="1.0" encoding="utf-8"?>
<!-- Generator: Adobe Illustrator 21.1.0, SVG Export Plug-In . SVG Version: 6.00 Build 0)  -->
<svg version="1.1" baseProfile="basic" id="Layer_1"
	 xmlns="http://www.w3.org/2000/svg" xmlns:xlink="http://www.w3.org/1999/xlink" x="0px" y="0px" viewBox="0 0 80 80"
	 xml:space="preserve">
<style type="text/css">
	.st0{opacity:0.18;}
	.st1{fill:#59D3E8;}
	.st2{opacity:0.16;}
	.st3{fill:#0081E0;}
	.st4{opacity:0.22;}
	.st5{fill:#FFFFFF;}
	.st6{fill:none;stroke:#FFFFFF;stroke-linecap:round;stroke-linejoin:round;stroke-miterlimit:10;}
	.st7{opacity:0.32;fill:none;stroke:#FFFFFF;stroke-linecap:round;stroke-linejoin:round;stroke-miterlimit:10;}
	.st8{opacity:0.52;fill:none;stroke:#FFFFFF;stroke-linecap:round;stroke-linejoin:round;stroke-miterlimit:10;}
	.st9{fill:#1148A1;}
	.st10{fill:none;}
	.st11{fill:#FFCA32;}
	.st12{fill:#FF7A4D;}
	.st13{fill:none;stroke:#FFFFFF;stroke-width:0.4791;stroke-linecap:round;stroke-linejoin:round;stroke-miterlimit:10;}
	.st14{opacity:0.18;fill:none;stroke:#FFFFFF;stroke-miterlimit:10;}
	.st15{opacity:0.36;fill:none;stroke:#FFFFFF;stroke-miterlimit:10;}
	.st16{fill:#F0C200;}
</style>
<g class="st0">
	<g>
		<path d="M60.9,10.4c0,0.4-0.4,0.8-0.8,0.8h-0.5c-0.4,0-0.8-0.4-0.8-0.8V8.3c0-0.4,0.4-0.8,0.8-0.8h0.5c0.4,0,0.8,0.4,0.8,0.8V10.4
			z"/>
		<path d="M62.8,7.6c0,0.4-0.4,0.8-0.8,0.8h-4.8c-0.4,0-0.8-0.4-0.8-0.8V6.7c0-0.4,0.4-0.8,0.8-0.8h4.8c0.4,0,0.8,0.4,0.8,0.8V7.6z"
			/>
	</g>
	<circle cx="59.8" cy="18.7" r="9.4"/>
</g>
<g>
	<path class="st1" d="M60.3,9.9c0,0.4-0.4,0.8-0.8,0.8H59c-0.4,0-0.8-0.4-0.8-0.8V7.8C58.2,7.3,58.6,7,59,7h0.5
		c0.4,0,0.8,0.4,0.8,0.8V9.9z"/>
	<path class="st1" d="M62.3,7.1c0,0.4-0.4,0.8-0.8,0.8h-4.8c-0.4,0-0.8-0.4-0.8-0.8V6.2c0-0.4,0.4-0.8,0.8-0.8h4.8
		c0.4,0,0.8,0.4,0.8,0.8V7.1z"/>
</g>
<path class="st2" d="M60.7,57.3c0.6,1.6-0.2,3.4-1.8,4L24,74.6c-1.6,0.6-3.4-0.2-4-1.8L3.4,29.1c-0.6-1.6,0.2-3.4,1.8-4L40,11.8
	c1.6-0.6,3.4,0.2,4,1.8L60.7,57.3z"/>
<path class="st3" d="M59.3,56.5L42.8,12.9c-0.6-1.6-2.4-2.4-4-1.8l-4.1,1.6l0.6,1.6c0.2,0.5,0,1.1-0.5,1.3l-21.6,8.2
	c-0.5,0.2-1-0.1-1.2-0.6l-0.6-1.6l-7.4,2.8c-1.6,0.6-2.4,2.4-1.8,4L18.6,72c0.6,1.6,2.4,2.4,4,1.8l34.8-13.2
	C59.1,60,60,58.1,59.3,56.5z"/>
<path class="st3" d="M33.5,13.9c0.2,0.4,0,0.9-0.5,1l-18.9,7.2c-0.4,0.2-0.9,0-1-0.5l-0.6-1.6c-0.2-0.4,0-0.9,0.5-1l18.9-7.2
	c0.4-0.2,0.9,0,1,0.5L33.5,13.9z"/>
<path class="st4" d="M11.6,26c-3.3,1.3-5,4.9-3.7,8.2c0.7,1.9,2.3,3.3,4.2,3.9c-0.2-0.2-0.3-0.5-0.4-0.8c-0.7-1.8,0.2-3.8,2-4.5
	c1.8-0.7,3.8,0.2,4.5,2c0.2,0.6,0.3,1.1,0.2,1.7c1.8-1.7,2.4-4.4,1.5-6.8C18.6,26.4,14.9,24.8,11.6,26z"/>
<path class="st5" d="M13.6,32.8c-1.8,0.7-2.7,2.7-2,4.5c0.1,0.3,0.3,0.6,0.4,0.8c1.3,0.4,2.7,0.4,4.1-0.2c0.8-0.3,1.6-0.8,2.2-1.4
	c0.1-0.6,0-1.1-0.2-1.7C17.4,33.1,15.4,32.2,13.6,32.8z"/>
<ellipse transform="matrix(0.9348 -0.3552 0.3552 0.9348 -10.1306 6.5974)" class="st5" cx="12.9" cy="30.9" rx="2.4" ry="2.4"/>
<line class="st6" x1="28.6" y1="24.4" x2="41.5" y2="19.5"/>
<line class="st6" x1="30.3" y1="29" x2="39.4" y2="25.5"/>
<path class="st7" d="M34.2,39.9c2.9-1.7,2.3-6.4,5.9-7.6c2.2-0.7,2.1,0.2,3.2-1.8c0.7-1.3,0.5-3,1.1-4.3"/>
<ellipse transform="matrix(0.9348 -0.3552 0.3552 0.9348 -17.1775 10.588)" class="st8" cx="20.2" cy="52.1" rx="2.2" ry="2.2"/>
<line class="st8" x1="25.8" y1="48.7" x2="39" y2="43.7"/>
<line class="st6" x1="42.7" y1="42.3" x2="49.2" y2="39.8"/>
<line class="st6" x1="26.6" y1="52.7" x2="37.4" y2="48.6"/>
<ellipse transform="matrix(0.9348 -0.3552 0.3552 0.9348 -20.3045 12.4831)" class="st6" cx="23.8" cy="61.5" rx="2" ry="2"/>
<line class="st6" x1="29.2" y1="59.5" x2="46.8" y2="52.8"/>
<circle class="st1" cx="59.2" cy="18.1" r="9.4"/>
<circle class="st9" cx="59.2" cy="18.1" r="7.5"/>
<ellipse transform="matrix(0.5978 -0.8017 0.8017 0.5978 9.2832 54.7957)" class="st10" cx="59.2" cy="18.1" rx="7.3" ry="7.3"/>
<circle class="st6" cx="59.2" cy="18.1" r="1.2"/>
<line class="st6" x1="59.2" y1="17" x2="59.2" y2="13.5"/>
<line class="st6" x1="64" y1="18.1" x2="60.5" y2="18.1"/>
<g>
	<polygon class="st11" points="65.2,40.6 68.8,37.8 64.7,34.8 62.7,39.1 	"/>
	<path class="st12" d="M68.6,37.6c0,0,8.5-10.8,8.3-13.8l-1.1-0.7c0,0-4.2,1.1-10.7,11.9L68.6,37.6z"/>
	<ellipse transform="matrix(0.5146 -0.8574 0.8574 0.5146 17.729 77.0244)" class="st5" cx="76.9" cy="22.9" rx="1" ry="1.5"/>
	<path class="st13" d="M75.6,22.1c0,0-1.3-2.9-7.1,5.3c0,0-1.9,1.8-2.3,0.2"/>
	<g>
		<g>
			<path class="st12" d="M65.2,40.6l-2.5-1.5c-0.4,0.8-2.4,1.1-2.4,1.1L59,46.4l2.3-2.8l0.1-0.1c-0.1-0.2-0.1-0.4,0-0.6
				c0.2-0.2,0.5-0.2,0.7-0.1c0.2,0.2,0.2,0.5,0.1,0.7c-0.1,0.2-0.4,0.2-0.6,0.1l-0.1,0.1l-2.2,2.8l5.6-2.7
				C64.6,43.1,65.2,40.6,65.2,40.6z"/>
		</g>
	</g>
</g>
<circle class="st14" cx="65" cy="52.1" r="1.5"/>
<circle class="st14" cx="4.7" cy="16.8" r="1.5"/>
<circle class="st15" cx="44.4" cy="8.4" r="1.6"/>
<circle class="st16" cx="76.9" cy="44.9" r="1.3"/>
</svg>
