<?xml version="1.0" encoding="utf-8"?>
<!-- Generator: Adobe Illustrator 21.1.0, SVG Export Plug-In . SVG Version: 6.00 Build 0)  -->
<svg version="1.1" baseProfile="basic" id="Layer_1"
	 xmlns="http://www.w3.org/2000/svg" xmlns:xlink="http://www.w3.org/1999/xlink" x="0px" y="0px" viewBox="0 0 80 80"
	 xml:space="preserve">
<style type="text/css">
	.st0{fill:#0081E0;}
	.st1{opacity:0.5;}
	.st2{opacity:0.44;}
	.st3{fill:#D0DBEA;}
	.st4{fill:#60B000;}
	.st5{fill:none;stroke:#FFFFFF;stroke-linecap:round;stroke-miterlimit:10;}
	.st6{opacity:0.18;fill:none;stroke:#FFFFFF;stroke-miterlimit:10;}
	.st7{fill:#F0C200;}
	.st8{opacity:0.36;fill:none;stroke:#FFFFFF;stroke-miterlimit:10;}
	.st9{opacity:0.11;}
	.st10{fill:#EDC418;}
</style>
<g>
	<path class="st0" d="M76,42.3c-0.7,0.2-1.4,0.4-2.2,0.4c-3.6,0-6.6-2.9-6.6-6.6c0-2.6,1.5-4.9,3.8-6c-1.8-2.5-3.9-4.6-6.4-6.4
		c-0.3,0.6-0.7,1.3-1.3,1.8c-2.6,2.6-6.7,2.6-9.3,0c-1.9-1.9-2.4-4.6-1.5-6.9c-1.5-0.2-3.1-0.4-4.6-0.4c-1.5,0-3,0.1-4.4,0.3
		c0.2,0.7,0.4,1.4,0.4,2.2c0,3.6-3,6.6-6.6,6.6c-2.6,0-4.9-1.5-6-3.8c-2.5,1.8-4.6,3.9-6.4,6.4c0.6,0.3,1.3,0.7,1.8,1.3
		c2.6,2.6,2.6,6.7,0,9.3c-1.9,1.9-4.6,2.4-6.9,1.5c-0.2,1.5-0.4,3.1-0.4,4.6c0,1.5,0.1,3,0.3,4.4c0.7-0.2,1.4-0.4,2.2-0.4
		c3.6,0,6.6,2.9,6.6,6.6c0,2.6-1.5,4.9-3.8,6c1.8,2.5,3.9,4.6,6.4,6.4c0.3-0.6,0.7-1.3,1.3-1.8c2.6-2.6,6.7-2.6,9.3,0
		c1.9,1.9,2.4,4.6,1.5,6.9c1.5,0.2,3.1,0.4,4.6,0.4c1.5,0,3-0.1,4.4-0.3c-0.2-0.7-0.4-1.4-0.4-2.2c0-3.6,2.9-6.6,6.6-6.6
		c2.6,0,4.9,1.5,6,3.8c2.5-1.8,4.6-3.9,6.4-6.4c-0.6-0.3-1.3-0.7-1.8-1.3c-2.6-2.6-2.6-6.7,0-9.3c1.9-1.9,4.6-2.4,6.9-1.5
		c0.2-1.5,0.4-3.1,0.4-4.6C76.3,45.2,76.2,43.8,76,42.3z M47.9,56.6c-5.4,0-9.9-4.4-9.9-9.9c0-5.4,4.4-9.9,9.9-9.9
		c5.4,0,9.9,4.4,9.9,9.9C57.7,52.2,53.3,56.6,47.9,56.6z"/>
	<g class="st1">
		<circle class="st2" cx="23.4" cy="61.9" r="15.2"/>
		<polyline class="st3" points="16.4,61.6 21,66.8 30.5,57.1 		"/>
	</g>
	<g>
		<circle class="st4" cx="19.4" cy="61.9" r="15.2"/>
		<polyline class="st5" points="12.4,61.6 17,66.8 26.5,57.1 		"/>
	</g>
</g>
<circle class="st6" cx="76.3" cy="13.6" r="2.1"/>
<circle class="st7" cx="74.2" cy="77.2" r="1.2"/>
<circle class="st6" cx="8.2" cy="43.5" r="6.2"/>
<circle class="st8" cx="26.5" cy="11.4" r="4"/>
<polygon class="st9" points="58.7,6.9 50.2,3.6 51.6,12.7 "/>
<polygon class="st10" points="57.7,6.6 49.2,3.3 50.6,12.4 "/>
</svg>
