<?xml version="1.0" encoding="utf-8"?>
<!-- Generator: Adobe Illustrator 21.1.0, SVG Export Plug-In . SVG Version: 6.00 Build 0)  -->
<svg version="1.1" baseProfile="basic" id="Layer_1"
	 xmlns="http://www.w3.org/2000/svg" xmlns:xlink="http://www.w3.org/1999/xlink" x="0px" y="0px" viewBox="0 0 80 80"
	 xml:space="preserve">
<style type="text/css">
	.st0{opacity:0.1;fill:#505A77;}
	.st1{fill:#0081E0;}
	.st2{fill:#1148A1;}
	.st3{fill:#FF637D;}
	.st4{fill:#DCEAF4;}
	.st5{fill:#FFFFFF;stroke:#FFFFFF;stroke-linecap:round;stroke-linejoin:round;stroke-miterlimit:10;}
	.st6{opacity:0.1;}
	.st7{fill:#FFFFFF;}
	.st8{fill:#60B000;}
	.st9{fill:none;stroke:#FFFFFF;stroke-linecap:round;stroke-linejoin:round;stroke-miterlimit:10;}
</style>
<g>
	<circle class="st0" cx="47.1" cy="35.5" r="31.4"/>
	<circle class="st1" cx="45.3" cy="33.7" r="31.4"/>
	<path class="st2" d="M69.8,31.9c1.1-2.6,4.2-4.6,4.2-11c-2.4-5.5-6.4-10.2-11.4-13.5c-1.5,1.1-2.6,2.5-2.8,3.1
		c-0.4,1.9-2.2,4.3-7.1,4.9c-5,0.6-0.4,0.7-2.2,3.7s-1.7,8.6-3.2,1.7s-0.6-10.5-4.5-8.8s-4.5,8.2-9.3,0c-2.4-4.1-3.8-5.2-4.8-5.2
		c-9,5.5-15,15.5-15,26.8c0,17.4,14.1,31.4,31.4,31.4c4.2,0,8.2-0.8,11.8-2.3c-0.3-1.1-1.1-1.9-2.6-2.2c-6.2-1.3,6.7-3.2-1.5-7.5
		s-7.5-8.8-3.9-8.6s10.8-1.7,11-3.2c0.2-1.5-2.4-7.3,3.4-4.5C69.4,39.5,68.3,35.4,69.8,31.9z"/>
	<path class="st0" d="M40.6,76.1c0,1-0.8,1.7-1.7,1.7H4.6c-1,0-1.7-0.8-1.7-1.7V30.2c0-1,0.8-1.7,1.7-1.7h34.2c1,0,1.7,0.8,1.7,1.7
		V76.1z"/>
	<path class="st3" d="M38.8,73.9c0,1-0.8,1.7-1.7,1.7H2.8c-1,0-1.7-0.8-1.7-1.7V28.1c0-1,0.8-1.7,1.7-1.7H37c1,0,1.7,0.8,1.7,1.7
		V73.9z"/>
	<g>
		<path class="st4" d="M7.8,40.9l-0.5,1.7H6.1l2-6.1h1.4l2,6.1h-1.2l-0.6-1.7H7.8z M9.5,40.1l-0.5-1.5c-0.1-0.4-0.2-0.8-0.3-1.1h0
			c-0.1,0.4-0.2,0.8-0.3,1.1L8,40.1H9.5z"/>
	</g>
	<line class="st5" x1="16.2" y1="37.3" x2="34.2" y2="37.3"/>
	<line class="st5" x1="16.2" y1="42.3" x2="34.2" y2="42.3"/>
	<line class="st5" x1="5.9" y1="46.6" x2="21.8" y2="46.6"/>
	<line class="st5" x1="25.2" y1="46.6" x2="34.2" y2="46.6"/>
	<line class="st5" x1="5.9" y1="50.9" x2="19" y2="50.9"/>
	<line class="st5" x1="21.8" y1="50.9" x2="34.2" y2="50.9"/>
	<line class="st5" x1="5.9" y1="56.3" x2="28" y2="56.3"/>
	<line class="st5" x1="5.9" y1="61.6" x2="25.2" y2="61.6"/>
	<path class="st6" d="M37,26.3H2.8c-1,0-1.7,0.8-1.7,1.7v5.6h37.7v-5.6C38.8,27.1,38,26.3,37,26.3z"/>
	<rect x="5.9" y="66.4" class="st7" width="7.3" height="7.3"/>
	<rect x="16.3" y="66.4" class="st6" width="7.3" height="7.3"/>
	<rect x="26.1" y="66.4" class="st6" width="7.3" height="7.3"/>
	<circle class="st0" cx="38.9" cy="27.5" r="10.3"/>
	<circle class="st8" cx="38.8" cy="26.3" r="10.3"/>
	<polyline class="st9" points="35.2,26 38.9,22.3 42.4,25.8 	"/>
	<line class="st9" x1="38.9" y1="22.3" x2="38.9" y2="30.4"/>
	<path class="st1" d="M59.9,30c0,1-1.5,1.8-3.4,1.8c-1.9,0-5-0.8-5-1.8c0-1,3.1-1.8,5-1.8C58.4,28.2,59.9,29,59.9,30z"/>
</g>
</svg>
