<?xml version="1.0" encoding="utf-8"?>
<!-- Generator: Adobe Illustrator 16.0.0, SVG Export Plug-In . SVG Version: 6.00 Build 0)  -->
<!DOCTYPE svg PUBLIC "-//W3C//DTD SVG 1.1 Basic//EN" "http://www.w3.org/Graphics/SVG/1.1/DTD/svg11-basic.dtd">
<svg version="1.1" baseProfile="basic" id="LOGO" xmlns="http://www.w3.org/2000/svg" xmlns:xlink="http://www.w3.org/1999/xlink"
	 x="0px" y="0px" width="327.241px" height="97.61px" viewBox="0 0 327.241 97.61" xml:space="preserve">
<g>
	<path fill="#333232" d="M110.18,67.966V64.8l-2.88-4.304h1.203l1.473,2.25c0.272,0.422,0.525,0.844,0.76,1.264
		c0.224-0.392,0.496-0.831,0.815-1.319l1.448-2.195h1.151l-2.981,4.304v3.166H110.18z"/>
	<path fill="#333232" d="M121.625,64.327c0-1.241,0.333-2.212,0.999-2.912c0.666-0.702,1.525-1.053,2.579-1.053
		c0.689,0,1.311,0.167,1.865,0.496c0.554,0.329,0.976,0.786,1.266,1.377c0.291,0.59,0.436,1.257,0.436,2.005
		c0,0.758-0.153,1.436-0.459,2.034c-0.306,0.599-0.739,1.052-1.299,1.356c-0.56,0.309-1.166,0.462-1.815,0.462
		c-0.703,0-1.332-0.168-1.885-0.509s-0.974-0.804-1.259-1.391C121.768,65.605,121.625,64.984,121.625,64.327z M122.644,64.342
		c0,0.899,0.243,1.608,0.727,2.128c0.484,0.517,1.092,0.777,1.822,0.777c0.744,0,1.355-0.263,1.837-0.786
		c0.479-0.521,0.721-1.267,0.721-2.227c0-0.607-0.104-1.139-0.309-1.593c-0.205-0.454-0.506-0.806-0.901-1.055
		c-0.396-0.251-0.84-0.374-1.333-0.374c-0.7,0-1.303,0.239-1.808,0.721C122.896,62.414,122.644,63.217,122.644,64.342z"/>
	<path fill="#333232" d="M141.836,60.496h0.989v4.315c0,0.751-0.084,1.347-0.256,1.789c-0.169,0.441-0.476,0.801-0.918,1.076
		c-0.444,0.28-1.026,0.416-1.746,0.416c-0.7,0-1.272-0.12-1.718-0.362c-0.445-0.239-0.762-0.59-0.953-1.046
		c-0.189-0.458-0.285-1.082-0.285-1.873v-4.315h0.988v4.309c0,0.649,0.061,1.128,0.181,1.435c0.121,0.307,0.328,0.545,0.622,0.712
		c0.294,0.166,0.654,0.25,1.079,0.25c0.727,0,1.245-0.165,1.554-0.495c0.31-0.329,0.464-0.962,0.464-1.901V60.496z"/>
	<path fill="#333232" d="M151.376,67.966v-7.47h3.312c0.666,0,1.172,0.066,1.519,0.198c0.347,0.136,0.624,0.372,0.832,0.711
		c0.207,0.341,0.311,0.716,0.311,1.126c0,0.531-0.171,0.977-0.515,1.341c-0.343,0.364-0.873,0.594-1.59,0.694
		c0.262,0.125,0.46,0.249,0.596,0.372c0.288,0.265,0.562,0.597,0.82,0.992l1.3,2.035h-1.244l-0.988-1.555
		c-0.289-0.448-0.526-0.791-0.713-1.03c-0.188-0.237-0.355-0.404-0.502-0.499c-0.148-0.095-0.298-0.161-0.452-0.199
		c-0.112-0.023-0.296-0.035-0.551-0.035h-1.146v3.318H151.376z M152.364,63.792h2.126c0.451,0,0.805-0.048,1.06-0.14
		c0.254-0.093,0.448-0.243,0.581-0.449s0.199-0.429,0.199-0.671c0-0.353-0.128-0.643-0.384-0.871
		c-0.257-0.228-0.662-0.341-1.216-0.341h-2.365V63.792z"/>
	<path fill="#333232" d="M177.289,67.966v-6.59h-2.462v-0.88h5.922v0.88h-2.471v6.59H177.289z"/>
	<path fill="#333232" d="M187.058,67.966l2.869-7.47h1.066l3.058,7.47h-1.127l-0.871-2.263h-3.124l-0.821,2.263H187.058z
		 M189.213,64.897h2.533l-0.779-2.068c-0.239-0.629-0.416-1.146-0.531-1.55c-0.095,0.479-0.229,0.955-0.402,1.428L189.213,64.897z"
		/>
	<path fill="#333232" d="M205.225,65.035v-0.877l3.165-0.006v2.773c-0.485,0.39-0.986,0.679-1.504,0.875
		c-0.516,0.195-1.045,0.292-1.589,0.292c-0.734,0-1.401-0.156-2.001-0.47c-0.599-0.316-1.053-0.771-1.359-1.365
		c-0.305-0.593-0.458-1.259-0.458-1.993c0-0.728,0.152-1.405,0.457-2.034c0.303-0.632,0.74-1.099,1.312-1.404
		c0.57-0.306,1.229-0.459,1.972-0.459c0.542,0,1.028,0.088,1.466,0.262c0.437,0.175,0.779,0.419,1.027,0.731
		c0.248,0.313,0.438,0.722,0.565,1.223l-0.892,0.246c-0.112-0.382-0.252-0.679-0.418-0.897s-0.404-0.393-0.714-0.522
		c-0.31-0.132-0.652-0.195-1.029-0.195c-0.452,0-0.842,0.069-1.172,0.206c-0.33,0.139-0.595,0.317-0.797,0.541
		c-0.203,0.226-0.359,0.472-0.472,0.74c-0.189,0.462-0.285,0.964-0.285,1.504c0,0.667,0.114,1.224,0.344,1.671
		c0.229,0.449,0.562,0.781,1,1.001c0.439,0.216,0.905,0.325,1.397,0.325c0.428,0,0.846-0.082,1.254-0.248
		c0.407-0.164,0.716-0.341,0.928-0.527v-1.392H205.225z"/>
	<path fill="#333232" d="M216.695,67.966v-7.47h0.988v6.586h3.681v0.884H216.695z"/>
	<path fill="#333232" d="M229.599,67.966v-7.47h0.988v7.47H229.599z"/>
	<path fill="#333232" d="M239.21,67.966v-7.47h1.014l3.925,5.864v-5.864h0.947v7.47h-1.015l-3.924-5.872v5.872H239.21z"/>
	<path fill="#333232" d="M253.665,67.966v-7.47h5.403v0.88h-4.413v2.288h4.134v0.876h-4.134v2.542h4.586v0.884H253.665z"/>
	<path fill="#333232" d="M277.316,67.966v-7.47h0.988v3.065h3.884v-3.065h0.99v7.47h-0.99v-3.521h-3.884v3.521H277.316z"/>
	<path fill="#333232" d="M291.732,67.966v-7.47h5.403v0.88h-4.414v2.288h4.134v0.876h-4.134v2.542h4.588v0.884H291.732z"/>
	<path fill="#333232" d="M305.579,67.966v-7.47h3.313c0.664,0,1.172,0.066,1.518,0.198c0.347,0.136,0.623,0.372,0.832,0.711
		c0.207,0.341,0.311,0.716,0.311,1.126c0,0.531-0.173,0.977-0.515,1.341c-0.344,0.364-0.874,0.594-1.592,0.694
		c0.264,0.125,0.461,0.249,0.598,0.372c0.288,0.265,0.562,0.597,0.82,0.992l1.299,2.035h-1.243l-0.988-1.555
		c-0.288-0.448-0.527-0.791-0.714-1.03c-0.188-0.237-0.355-0.404-0.502-0.499c-0.148-0.095-0.299-0.161-0.452-0.199
		c-0.11-0.023-0.295-0.035-0.549-0.035h-1.146v3.318H305.579z M306.569,63.792h2.124c0.45,0,0.805-0.048,1.06-0.14
		c0.254-0.093,0.447-0.243,0.581-0.449c0.133-0.206,0.199-0.429,0.199-0.671c0-0.353-0.129-0.643-0.386-0.871
		c-0.257-0.228-0.661-0.341-1.215-0.341h-2.363V63.792z"/>
	<path fill="#333232" d="M320.011,67.966v-7.47h5.402v0.88h-4.414v2.288h4.133v0.876h-4.133v2.542h4.588v0.884H320.011z"/>
</g>
<g>
	<path fill="#39A2DB" d="M143.896,71.808c-9.872,13.999-34.292,13.95-54.677-0.155c-20.463-14.159-29.096-37.118-19.3-51.275
		c7.761-11.208,24.739-13.52,41.628-6.991h2.299c-21.536-9.794-43.997-7.533-53.916,6.8c-11.784,17.026-1.4,44.635,23.204,61.657
		c24.594,17.024,54.092,17.018,65.876-0.012c2.104-3.051,3.486-6.435,4.224-10.023H143.896z"/>
	<rect x="62.174" y="51.921" fill="#39A2DB" width="0.034" height="0.01"/>
	<rect x="7.89" y="25.936" fill="#39A2DB" width="10.315" height="9.502"/>
	<rect x="20.979" y="41.336" fill="#39A2DB" width="11.361" height="10.448"/>
	<polygon fill="#39A2DB" points="51.396,50.735 38.933,50.735 38.933,62.226 51.426,62.226 51.426,50.744 51.398,50.744 	"/>
	<rect x="30.422" y="19.04" fill="#39A2DB" width="19.314" height="17.78"/>
	<rect x="51.397" y="50.735" fill="#39A2DB" width="0.028" height="0.009"/>
</g>
<g>
	<path d="M121.021,18.276h6.823l11.92,31.727h-6.603l-2.614-7.577h-12.23l-2.614,7.577h-6.602L121.021,18.276z M128.598,36.932
		L125.762,29l-1.152-3.854h-0.354L123.103,29l-2.835,7.932H128.598z"/>
	<path d="M153.233,18.276h5.894l9.705,16.794h0.354l9.704-16.794h5.938v31.727h-5.938V34.361l0.354-5.316h-0.354l-8.065,14.224
		h-3.589l-8.109-14.224h-0.354l0.354,5.316v15.642h-5.894V18.276z"/>
	<path d="M200.469,18.276h6.824l11.92,31.727h-6.603l-2.614-7.577h-12.229l-2.614,7.577h-6.603L200.469,18.276z M208.046,36.932
		L205.21,29l-1.152-3.854h-0.354L202.552,29l-2.836,7.932H208.046z"/>
	<path d="M222.935,18.276H234.5c1.595,0,3.042,0.251,4.342,0.754c1.3,0.503,2.415,1.196,3.346,2.083s1.646,1.943,2.149,3.168
		c0.502,1.226,0.753,2.562,0.753,4.01c0,1.063-0.177,2.06-0.531,2.991s-0.842,1.772-1.463,2.525
		c-0.62,0.753-1.344,1.418-2.171,1.994s-1.699,1.026-2.614,1.352l-0.044,0.31l8.508,12.186v0.354h-6.869l-8.197-11.919h-2.791
		v11.919h-5.982V18.276z M234.456,32.589c1.358,0,2.473-0.414,3.346-1.241c0.87-0.827,1.307-1.875,1.307-3.146
		c0-0.561-0.096-1.107-0.288-1.64c-0.192-0.531-0.48-1.003-0.864-1.417c-0.384-0.414-0.864-0.746-1.439-0.998
		c-0.576-0.25-1.234-0.376-1.973-0.376h-5.627v8.818H234.456z"/>
	<path d="M250.407,18.276h5.982V31.88h0.354l11.608-13.604h7.223v0.354l-11.477,13.116l12.674,17.902v0.354h-7.312l-9.438-13.515
		l-3.633,4.209v9.305h-5.982V18.276z"/>
	<path d="M286.033,23.948v7.356h12.717v5.672h-12.717v7.355h14.136v5.672h-20.118V18.276h20.118v5.672H286.033z"/>
	<path d="M312.397,50.003V23.948h-8.862v-5.672h23.706v5.672h-8.861v26.055H312.397z"/>
</g>
</svg>
