<?xml version="1.0" encoding="utf-8"?>
<!-- Generator: Adobe Illustrator 16.0.0, SVG Export Plug-In . SVG Version: 6.00 Build 0)  -->
<!DOCTYPE svg PUBLIC "-//W3C//DTD SVG 1.1//EN" "http://www.w3.org/Graphics/SVG/1.1/DTD/svg11.dtd">
<svg version="1.1" id="Layer_1" xmlns="http://www.w3.org/2000/svg" xmlns:xlink="http://www.w3.org/1999/xlink" x="0px" y="0px"
	 width="32px" height="32px" viewBox="0 0 32 32" enable-background="new 0 0 32 32" xml:space="preserve">
<g>
	<path fill="#D8271D" d="M24.291,19.057l-0.954-1.475c-0.294-0.453-0.45-0.983-0.45-1.524v-6.19c0-2.471,0.18-7.735-6.875-7.735
		c-5.739,0-7.514,3.059-8.062,4.95C7.731,7.834,8.243,8.599,9.021,8.679l2.224,0.229c0.524,0.054,1.026-0.224,1.253-0.699
		C12.929,7.308,13.681,5.965,16,5.965c0.898,0,2.162,0.38,2.162,1.491c0,1.612-0.002,2.376-0.002,2.376l0,0
		c0.006,0.336-0.266,0.613-0.602,0.613h-2.174c-1.641,0-7.874,0.841-7.874,7.075s6.615,5.517,7.054,5.414
		c0.819-0.192,2.354-0.754,3.797-2.129c0.242-0.231,0.629-0.211,0.84,0.049l1.165,1.442c0.452,0.561,1.286,0.619,1.813,0.128
		l1.914-1.783C24.535,20.229,24.618,19.562,24.291,19.057z M14.728,18.709c-2.215,0-2.151-2.002-1.641-2.953
		c0.478-0.889,1.741-2.466,5.133-2.573l0.029,1.654c0.021,1.23-0.544,2.411-1.55,3.119C16.077,18.395,15.397,18.709,14.728,18.709z"
		/>
	<g>
		<path fill="#D8271D" d="M0.132,24.4c-0.337-0.304,0.029-0.843,0.437-0.643c2.862,1.41,8.249,3.589,14.204,3.589
			c6.085,0,11.176-1.453,13.738-2.351c0.417-0.146,0.717,0.4,0.374,0.678c-2.033,1.646-6.398,4.193-13.953,4.193
			C7.407,29.867,2.519,26.557,0.132,24.4z"/>
		<path fill="#D8271D" d="M25.828,23.514c0.795-0.588,2.767-1.602,5.715-0.715c0.27,0.081,0.455,0.332,0.457,0.615
			c0.007,0.967-0.201,3.236-2.094,5.123c-0.132,0.131-0.354,0.002-0.305-0.176c0.323-1.191,0.98-3.744,0.771-4.102
			c-0.238-0.408-3.226-0.428-4.436-0.418C25.76,23.843,25.688,23.619,25.828,23.514z"/>
	</g>
</g>
</svg>
