<?xml version="1.0" encoding="utf-8"?>
<!-- Generator: Adobe Illustrator 16.0.0, SVG Export Plug-In . SVG Version: 6.00 Build 0)  -->
<!DOCTYPE svg PUBLIC "-//W3C//DTD SVG 1.1//EN" "http://www.w3.org/Graphics/SVG/1.1/DTD/svg11.dtd">
<svg version="1.1" id="Layer_1" xmlns="http://www.w3.org/2000/svg" xmlns:xlink="http://www.w3.org/1999/xlink" x="0px" y="0px"
	 width="32px" height="32px" viewBox="0 0 32 32" enable-background="new 0 0 32 32" xml:space="preserve">
<g>
	<g>
		<path fill="#D8271D" d="M31.821,16.322c0.013-0.012,0.021-0.02,0.021-0.02l-4.733-5.404c0,0-0.011,0.005-0.03,0.013
			c-0.117-0.141-0.294-0.23-0.49-0.23h-4.076V6.858c0-0.352-0.285-0.638-0.637-0.638H1.831c-0.352,0-0.637,0.286-0.637,0.638V20.86
			H0.638C0.285,20.86,0,21.146,0,21.498s0.285,0.637,0.638,0.637h0.556v0.746c0,0.352,0.285,0.637,0.637,0.637h1.256
			c0.292,1.293,1.448,2.262,2.828,2.262c1.379,0,2.537-0.969,2.828-2.262h14.954l0,0c0.291,1.293,1.447,2.262,2.827,2.262
			s2.536-0.969,2.828-2.262h2.011c0.352,0,0.637-0.285,0.637-0.638v-6.115C32,16.593,31.932,16.437,31.821,16.322z M5.916,24.505
			c-0.896,0-1.625-0.729-1.625-1.625s0.729-1.624,1.625-1.624c0.896,0,1.625,0.729,1.625,1.624S6.811,24.505,5.916,24.505z
			 M21.237,22.242H8.743c-0.291-1.293-1.448-2.262-2.828-2.262c-1.38,0-2.537,0.969-2.828,2.262H2.469v-2.809h18.769V22.242
			L21.237,22.242z M21.237,18.158H2.469V7.495h18.769V18.158L21.237,18.158z M27.225,12.966l2.77,3.161h-2.77V12.966z
			 M26.524,24.505c-0.896,0-1.624-0.729-1.624-1.625s0.729-1.624,1.624-1.624s1.624,0.729,1.624,1.624S27.42,24.505,26.524,24.505z
			 M30.725,22.242h-1.372c-0.292-1.293-1.448-2.262-2.828-2.262s-2.536,0.969-2.828,2.262h-1.185V11.956h3.438v4.808
			c0,0.353,0.286,0.639,0.639,0.639h4.137V22.242L30.725,22.242z"/>
	</g>
</g>
<g>
	<g>
		<path fill="#D8271D" d="M19.697,16.191h-5.354c-0.352,0-0.638,0.285-0.638,0.637c0,0.353,0.286,0.638,0.638,0.638h5.354
			c0.352,0,0.637-0.285,0.637-0.638C20.334,16.477,20.049,16.191,19.697,16.191z"/>
	</g>
</g>
<g>
	<g>
		<path fill="#D8271D" d="M12.367,16.191h-0.383c-0.352,0-0.637,0.285-0.637,0.637c0,0.353,0.285,0.638,0.637,0.638h0.383
			c0.352,0,0.637-0.285,0.637-0.638C13.004,16.477,12.719,16.191,12.367,16.191z"/>
	</g>
</g>
</svg>
