<?xml version="1.0" encoding="utf-8"?>
<!-- Generator: Adobe Illustrator 16.0.0, SVG Export Plug-In . SVG Version: 6.00 Build 0)  -->
<!DOCTYPE svg PUBLIC "-//W3C//DTD SVG 1.1 Basic//EN" "http://www.w3.org/Graphics/SVG/1.1/DTD/svg11-basic.dtd">
<svg version="1.1" baseProfile="basic" id="Layer_1"
	 xmlns="http://www.w3.org/2000/svg" xmlns:xlink="http://www.w3.org/1999/xlink" x="0px" y="0px" width="277.632px"
	 height="62.342px" viewBox="0 0 277.632 62.342" xml:space="preserve">
<g>
	<path fill="#D8271D" d="M46.143,0C20.658,0,0,13.956,0,31.171s20.658,31.17,46.143,31.17s46.143-13.956,46.143-31.17
		C92.285,13.956,71.627,0,46.143,0z M46.208,58.694c-23.904,0-43.282-12.322-43.282-27.522c0-15.201,19.378-27.524,43.282-27.524
		S89.49,15.97,89.49,31.171C89.49,46.372,70.112,58.694,46.208,58.694z"/>
	<path fill="#D8271D" d="M24.382,48.153c-0.518-0.527-0.861-1.327-1.053-1.924c-0.68-2.112-1.433-4.188-2.138-6.297
		c-1.677-5.022-3.562-9.975-5.257-14.991c-0.562-1.661-1.397-3.458-1.288-5.25c0.144-2.336,3.214-4.874,5.3-3.01
		c1.524,1.361,1.995,4.022,2.74,5.84c1.239,3.026,2.466,6.058,3.695,9.088c0.25,0.614,0.438,1.55,0.845,2.083
		c0,0,2.127,2.781,1.718-0.572c-0.483-1.763-0.965-3.527-1.441-5.292c-0.375-1.392-0.741-2.79-1.129-4.177
		c-0.45-1.612-1.249-3.677-0.915-5.358c0.438-2.211,2.995-2.967,4.812-1.843c1.24,0.767,1.982,2.225,2.552,3.517
		c1.114,2.523,2.192,5.061,3.309,7.582c0.279,0.629,0.556,1.259,0.831,1.89c0,0,1.309,1.555,2.863,0.655
		c0,0,1.555-0.491,1.063-2.864c-0.273-1.325-0.604-2.644-0.919-3.959c-0.574-2.392-2.165-7.792,1.819-8.396
		c0,0,2.209-0.655,3.682,1.145l1.309,2.455c0,0,0.409,0.491,0.982-1.391c0,0,1.391-3.423,4.663-2.325c0,0,2.7,0.771,2.046,4.943
		l-1.31,7.282c0,0,0.082,4.336,2.619,3.273c0,0,1.227,0.409,2.618-4.091c0,0,3.108-8.835,4.663-9.982
		c2.206-1.627,5.887,0.624,5.318,3.354l-3.354,14.236c0,0,0.245,2.127,1.718-0.246c0,0,4.254-14.642,6.627-16.363
		c3.156-2.289,6.851,0.377,5.646,4.091l-8.019,24.709c0,0-1.473,4.255-4.009,2.373c0,0-2.231-2.966-1.555-8.47
		c0,0-0.409-2.821-2.945,1.515c0,0-2.127,7.097-5.154,7.435c-0.371,0.041-1.096-0.756-1.304-0.984
		c-1.27-1.387-1.63-4.084-2.128-5.866c-0.556-1.991-1.241-3.95-1.82-5.938c-1.199-4.106-2.53-8.175-3.738-12.279
		c-0.27-0.916-0.552-1.827-0.829-2.739c0,0-0.572-1.555-1.309,0.736c-0.735,2.873-1.514,5.734-2.282,8.598
		c-1.179,4.39-2.32,8.861-3.894,13.13c-0.539,1.461-1.603,5.153-3.521,5.324c-2.324,0.206-3.088-3.424-3.753-5.013
		c-0.279-0.668-2.216-5.423-3.405-3.917c-1.397,1.77-1.135,4.072-1.639,6.141c-0.25,1.028-1.097,2.917-2.41,2.674
		C24.951,48.618,24.645,48.42,24.382,48.153z"/>
	<g>
		<path fill="#D8271D" d="M108.001,26.046h-1.972v-0.931h11.438v0.931h-1.923v18.354h1.923v0.932h-11.241v-0.932h1.775V26.046z"/>
		<path fill="#D8271D" d="M129.251,25.843l3.304-1.404v6.93h-0.789c-0.739-1.958-1.726-3.451-2.958-4.479
			c-1.02-0.853-2.055-1.28-3.106-1.28c-0.674,0-1.245,0.189-1.713,0.567c-0.468,0.378-0.703,0.829-0.703,1.353
			c0,0.892,0.69,1.707,2.071,2.443c1.2,0.659,2.408,1.319,3.624,1.978c1.512,0.911,2.654,1.853,3.427,2.821
			c1.019,1.279,1.528,2.705,1.528,4.275c0,0.912-0.148,1.862-0.444,2.852c-0.411,1.242-1.241,2.229-2.49,2.967
			c-1.249,0.736-2.605,1.105-4.067,1.105c-0.904,0-1.73-0.123-2.478-0.365s-1.417-0.645-2.009-1.207l-2.515,1.396h-0.789V38.7h0.789
			c0.805,2.172,1.874,3.82,3.205,4.945c1.118,0.931,2.284,1.396,3.501,1.396c0.772,0,1.417-0.188,1.935-0.567
			c0.518-0.377,0.776-0.848,0.776-1.41c0-0.389-0.14-0.791-0.419-1.207c-0.28-0.418-0.699-0.791-1.257-1.121
			c-1.923-0.949-3.295-1.696-4.117-2.239c-1.397-0.912-2.44-1.872-3.131-2.88c-0.822-1.184-1.233-2.54-1.233-4.072
			c0-0.33,0.033-0.722,0.099-1.178c0.066-0.456,0.148-0.896,0.247-1.323c0.361-1.338,1.093-2.4,2.194-3.186
			c1.101-0.785,2.325-1.178,3.673-1.178c0.69,0,1.356,0.092,1.997,0.276C128.044,25.14,128.66,25.436,129.251,25.843z"/>
		<path fill="#D8271D" d="M144.684,24.912c3.336,0,5.949,1.067,7.839,3.2c1.676,1.901,2.515,4.247,2.515,7.04
			c0,2.852-0.855,5.324-2.564,7.418c-1.89,2.308-4.355,3.461-7.396,3.461c-2.992,0-5.399-1.096-7.223-3.287
			c-1.66-1.997-2.49-4.411-2.49-7.243c0-2.753,0.764-5.139,2.292-7.156C139.399,26.056,141.742,24.912,144.684,24.912z
			 M146.804,28.577v-0.232c0-0.737-0.172-1.328-0.518-1.774c-0.345-0.446-0.731-0.669-1.159-0.669c-0.444,0-0.826,0.228-1.146,0.684
			s-0.48,1.12-0.48,1.992v13.788c0,0.854,0.16,1.542,0.48,2.064c0.32,0.524,0.686,0.786,1.097,0.786
			c0.444,0,0.842-0.257,1.195-0.771c0.354-0.514,0.53-1.207,0.53-2.08L146.804,28.577L146.804,28.577z"/>
	</g>
	<g>
		<path fill="#D8271D" d="M178.428,45.174h-15.149v-1.354l0.316,0.051c0.151,0,0.392-0.025,0.724-0.075s0.573-0.075,0.724-0.075
			c0.256,0,0.43-0.142,0.52-0.426c0.045-0.15,0.068-0.426,0.068-0.827V29.934c0-0.702-0.09-1.136-0.271-1.303
			c-0.181-0.167-0.678-0.251-1.492-0.251h-0.588v-1.303h8.909v1.303h-1.447c-0.483,0-0.784,0.088-0.905,0.264
			c-0.121,0.176-0.181,0.541-0.181,1.094v12.423c0,0.62,0.03,0.998,0.09,1.131c0.121,0.27,0.422,0.428,0.904,0.479
			c0.166,0.033,0.407,0.059,0.724,0.074c0.316,0.018,0.558,0.025,0.724,0.025c1.598,0,2.834-0.48,3.708-1.441
			c0.784-0.861,1.357-2.201,1.719-4.022h1.176L178.428,45.174z"/>
		<path fill="#D8271D" d="M186.161,45.55c-1.764,0-3.233-0.574-4.409-1.726c-1.221-1.201-1.832-2.761-1.832-4.679
			c0-0.883,0.166-1.722,0.498-2.514c0.331-0.792,0.81-1.459,1.436-2.001s1.296-0.95,2.012-1.226
			c0.716-0.275,1.481-0.413,2.295-0.413c1.703,0,3.154,0.592,4.353,1.776c1.198,1.185,1.797,2.692,1.797,4.527
			c0,1.818-0.607,3.314-1.82,4.49C189.278,44.962,187.833,45.55,186.161,45.55z M186.025,34.245c-0.89,0-1.515,0.643-1.877,1.926
			c-0.226,0.816-0.339,1.857-0.339,3.125c0,1.417,0.113,2.475,0.339,3.176c0.377,1.184,1.093,1.774,2.148,1.774
			c0.859,0,1.462-0.634,1.809-1.899c0.211-0.783,0.316-1.816,0.316-3.101c0-1.317-0.121-2.367-0.362-3.149
			C187.683,34.862,187.004,34.245,186.025,34.245z"/>
		<path fill="#D8271D" d="M199.049,42.868c1.251,0,2.295,0.017,3.132,0.05c0.836,0.033,1.45,0.116,1.843,0.248
			c0.331,0.149,0.535,0.249,0.61,0.298c0.362,0.215,0.656,0.497,0.882,0.844c0.362,0.562,0.542,1.174,0.542,1.836
			c0,1.209-0.452,2.16-1.356,2.854c-1.146,0.876-2.834,1.315-5.065,1.315c-0.724,0-1.447-0.043-2.17-0.125
			c-0.83,0-1.561-0.157-2.193-0.472c-0.859-0.43-1.289-1.032-1.289-1.81c0-0.645,0.264-1.17,0.792-1.574
			c0.527-0.404,1.093-0.607,1.696-0.607h0.226v-0.05l-0.226-0.051l-0.362-0.151c-0.528-0.187-0.942-0.465-1.244-0.836
			c-0.347-0.422-0.52-0.92-0.52-1.494c0-0.59,0.249-1.105,0.746-1.545c0.422-0.371,0.927-0.615,1.515-0.733h0.588
			c-0.241-0.101-0.422-0.185-0.543-0.251c-0.678-0.317-1.209-0.76-1.594-1.328c-0.385-0.568-0.577-1.245-0.577-2.03
			c0-1.403,0.595-2.498,1.786-3.284c0.995-0.652,2.178-0.978,3.55-0.978c0.543,0,1.082,0.062,1.617,0.188
			c0.535,0.125,1.006,0.312,1.414,0.563c0.437-0.603,0.859-1.062,1.266-1.379c0.542-0.417,1.1-0.626,1.673-0.626
			c0.437,0,0.817,0.146,1.142,0.438c0.324,0.293,0.486,0.682,0.486,1.166c0,0.469-0.128,0.844-0.385,1.129
			c-0.256,0.284-0.595,0.426-1.017,0.426c-0.302,0-0.573-0.108-0.814-0.326c-0.242-0.217-0.362-0.51-0.362-0.877
			c0-0.1-0.031-0.168-0.091-0.201c-0.121,0.018-0.234,0.072-0.339,0.162c-0.045,0.035-0.204,0.216-0.475,0.539l-0.135,0.101
			c0.437,0.351,0.78,0.777,1.029,1.278s0.373,1.044,0.373,1.629c0,0.719-0.174,1.375-0.52,1.968
			c-0.347,0.593-0.818,1.04-1.414,1.341c-0.596,0.301-1.176,0.493-1.741,0.577c-0.565,0.083-1.271,0.125-2.114,0.125h-0.498
			c-0.302,0-0.513,0.025-0.633,0.075c-0.121,0.05-0.249,0.15-0.385,0.301c-0.135,0.15-0.203,0.311-0.203,0.477
			c0,0.234,0.09,0.418,0.271,0.552c0.151,0.167,0.347,0.25,0.588,0.25L199.049,42.868L199.049,42.868z M201.084,46.327h-3.392
			c-0.242,0.099-0.438,0.261-0.588,0.484c-0.151,0.223-0.226,0.442-0.226,0.657c0,0.265,0.098,0.521,0.294,0.771
			c0.195,0.248,0.414,0.414,0.655,0.496c0.241,0.084,0.528,0.149,0.859,0.199c0.332,0.049,0.769,0.074,1.312,0.074
			c0.769,0,1.409-0.082,1.922-0.244c0.829-0.26,1.244-0.699,1.244-1.315c0-0.537-0.271-0.862-0.814-0.976
			c-0.166-0.033-0.328-0.065-0.486-0.098c-0.158-0.033-0.252-0.049-0.283-0.049H201.084z M199.908,34.194
			c-0.694,0-1.184,0.318-1.47,0.953c-0.226,0.484-0.339,1.152-0.339,2.004c0,0.803,0.105,1.447,0.316,1.931
			c0.286,0.687,0.754,1.028,1.402,1.028c0.633,0,1.101-0.317,1.402-0.953c0.241-0.501,0.361-1.137,0.361-1.905
			c0-1.103-0.147-1.888-0.441-2.356C200.846,34.429,200.436,34.194,199.908,34.194z"/>
		<path fill="#D8271D" d="M208.183,45.174v-1.202h0.905c0.271,0,0.467-0.033,0.588-0.102c0.12-0.066,0.196-0.182,0.226-0.34
			c0.03-0.16,0.045-0.332,0.045-0.518c0-0.185,0-0.336,0-0.453v-6.201c0-0.705-0.083-1.143-0.249-1.311
			c-0.166-0.168-0.565-0.252-1.198-0.252h-0.452v-1.304l5.381-0.25v9.375c0,0.25,0.011,0.476,0.033,0.677
			c0.023,0.201,0.072,0.344,0.147,0.426c0.149,0.168,0.376,0.25,0.679,0.25h0.271h0.588v1.203L208.183,45.174L208.183,45.174z
			 M213.565,28.932c0,0.585-0.192,1.082-0.577,1.491c-0.385,0.41-0.841,0.614-1.368,0.614c-0.513,0-0.972-0.209-1.379-0.627
			c-0.407-0.417-0.61-0.91-0.61-1.479c0-0.635,0.188-1.169,0.565-1.604c0.376-0.434,0.852-0.651,1.424-0.651
			c0.588,0,1.059,0.213,1.413,0.639C213.387,27.741,213.565,28.28,213.565,28.932z"/>
		<path fill="#D8271D" d="M218.628,44.672l-0.903,0.501h-0.858l-0.137-4.311h0.995c0.467,1.045,0.995,1.85,1.583,2.414
			c0.725,0.68,1.552,1.02,2.486,1.02c0.377,0,0.734-0.062,1.074-0.188s0.6-0.33,0.78-0.612c0.09-0.25,0.136-0.5,0.136-0.75
			c0-0.351-0.121-0.642-0.361-0.875c-0.287-0.284-0.799-0.509-1.539-0.675l-1.446-0.301c-0.618-0.148-1.069-0.291-1.356-0.424
			c-0.406-0.184-0.799-0.476-1.174-0.875c-0.664-0.65-0.996-1.518-0.996-2.602c0-1.268,0.452-2.268,1.357-3.001
			c0.828-0.667,1.839-1,3.029-1c0.467,0,0.941,0.075,1.425,0.226c0.483,0.151,0.928,0.359,1.334,0.627l0.858-0.603h0.904l0.09,3.909
			h-0.994c-0.061-0.133-0.121-0.217-0.182-0.25c-0.406-0.801-0.867-1.42-1.379-1.854c-0.618-0.534-1.289-0.802-2.014-0.802
			c-0.541,0-1.01,0.121-1.4,0.363c-0.393,0.242-0.588,0.638-0.588,1.188c0,0.5,0.339,0.859,1.018,1.075
			c0.137,0.05,0.43,0.125,0.883,0.226l1.084,0.301c0.422,0.134,0.867,0.271,1.334,0.412c0.468,0.143,0.853,0.306,1.154,0.488
			c1.055,0.635,1.582,1.635,1.582,3.001c0,0.517-0.068,0.996-0.203,1.438c-0.137,0.441-0.354,0.846-0.656,1.213
			c-0.227,0.267-0.471,0.5-0.733,0.699c-0.265,0.201-0.713,0.418-1.346,0.65c-0.136,0.034-0.419,0.083-0.849,0.15
			c-0.43,0.066-0.689,0.1-0.779,0.1c-0.514,0-1.082-0.076-1.707-0.23C219.507,45.164,219.005,44.949,218.628,44.672z"/>
		<path fill="#D8271D" d="M229.574,34.747h-1.629v-1.303c1.205-0.185,2.11-0.777,2.713-1.78c0.452-0.752,0.784-1.896,0.995-3.434
			h1.401v5.013h2.984v1.504h-2.984v6.999c0,0.183,0,0.351,0,0.5s0.016,0.333,0.046,0.549c0.136,0.5,0.422,0.75,0.858,0.75
			c0.481,0,0.858-0.342,1.131-1.026c0.211-0.535,0.315-1.129,0.315-1.781v-0.2h1.177v0.2c0,1.472-0.295,2.615-0.883,3.435
			c-0.662,0.919-1.636,1.378-2.916,1.378c-0.513,0-0.992-0.083-1.437-0.25c-0.445-0.167-0.812-0.421-1.097-0.763
			c-0.287-0.343-0.472-0.718-0.555-1.125c-0.083-0.408-0.124-0.879-0.124-1.413c0-0.283,0-0.7,0-1.25s0-0.951,0-1.2v-4.802H229.574z
			"/>
		<path fill="#D8271D" d="M237.894,45.174v-1.202h0.904c0.271,0,0.468-0.033,0.588-0.102c0.121-0.066,0.195-0.182,0.227-0.34
			c0.031-0.159,0.045-0.332,0.045-0.518c0-0.185,0-0.336,0-0.453v-6.201c0-0.705-0.082-1.143-0.248-1.311s-0.564-0.252-1.199-0.252
			h-0.451v-1.304l5.382-0.25v9.375c0,0.25,0.011,0.476,0.034,0.677c0.021,0.201,0.07,0.344,0.146,0.426
			c0.15,0.168,0.378,0.25,0.679,0.25h0.271h0.588v1.203L237.894,45.174L237.894,45.174z M243.275,28.932
			c0,0.585-0.191,1.082-0.576,1.491c-0.385,0.41-0.841,0.614-1.367,0.614c-0.514,0-0.974-0.209-1.381-0.627
			c-0.406-0.417-0.609-0.91-0.609-1.479c0-0.635,0.188-1.169,0.564-1.604c0.377-0.434,0.852-0.651,1.426-0.651
			c0.588,0,1.059,0.213,1.412,0.639C243.098,27.741,243.275,28.28,243.275,28.932z"/>
		<path fill="#D8271D" d="M256.435,40.812l1.085,0.399c-0.392,1.363-1.015,2.427-1.865,3.19c-0.853,0.766-1.903,1.147-3.153,1.147
			c-0.361,0-0.772-0.042-1.232-0.125c-0.46-0.084-0.893-0.192-1.301-0.325c-0.768-0.25-1.442-0.688-2.022-1.312
			c-0.581-0.625-0.999-1.292-1.255-2.001c-0.257-0.708-0.385-1.522-0.385-2.438c0-1.886,0.621-3.416,1.865-4.591
			c1.244-1.176,2.746-1.764,4.511-1.764c1.176,0,2.171,0.233,2.983,0.702c1.057,0.602,1.584,1.486,1.584,2.656
			c0,0.652-0.186,1.174-0.555,1.567s-0.848,0.589-1.436,0.589c-0.498,0-0.938-0.179-1.323-0.539
			c-0.384-0.359-0.576-0.781-0.576-1.266c0-0.083,0.015-0.184,0.045-0.301s0.058-0.221,0.079-0.313
			c0.021-0.091,0.045-0.171,0.068-0.237c0.021-0.067,0.062-0.135,0.123-0.201l0.228-0.301l0.181-0.25v-0.201
			c0-0.217-0.146-0.39-0.44-0.515s-0.554-0.188-0.78-0.188c-0.994,0-1.718,0.551-2.17,1.65c-0.332,0.801-0.498,1.834-0.498,3.1
			c0,1.367,0.174,2.443,0.521,3.226c0.481,1.117,1.289,1.675,2.418,1.675c0.83,0,1.531-0.289,2.104-0.869
			C255.733,42.462,256.132,41.741,256.435,40.812z"/>
		<path fill="#D8271D" d="M261.138,44.672l-0.904,0.501h-0.859l-0.135-4.311h0.994c0.467,1.045,0.994,1.85,1.582,2.414
			c0.725,0.68,1.553,1.02,2.487,1.02c0.377,0,0.735-0.062,1.073-0.188c0.34-0.125,0.601-0.33,0.781-0.612
			c0.09-0.25,0.135-0.5,0.135-0.75c0-0.351-0.121-0.642-0.361-0.875c-0.286-0.284-0.799-0.509-1.537-0.675l-1.447-0.301
			c-0.617-0.148-1.07-0.291-1.355-0.424c-0.407-0.184-0.801-0.476-1.176-0.875c-0.664-0.65-0.996-1.518-0.996-2.602
			c0-1.268,0.453-2.268,1.356-3.001c0.829-0.667,1.839-1,3.03-1c0.467,0,0.941,0.075,1.425,0.226
			c0.481,0.15,0.927,0.359,1.334,0.627l0.858-0.603h0.904l0.09,3.909h-0.994c-0.061-0.133-0.12-0.217-0.182-0.25
			c-0.406-0.801-0.867-1.42-1.379-1.854c-0.617-0.534-1.289-0.802-2.013-0.802c-0.543,0-1.011,0.121-1.401,0.363
			c-0.393,0.242-0.588,0.638-0.588,1.188c0,0.5,0.34,0.859,1.018,1.075c0.136,0.05,0.43,0.125,0.883,0.226l1.085,0.301
			c0.422,0.134,0.866,0.271,1.334,0.412c0.467,0.143,0.853,0.306,1.153,0.488c1.055,0.635,1.582,1.635,1.582,3.001
			c0,0.517-0.067,0.996-0.203,1.438c-0.137,0.441-0.354,0.846-0.655,1.213c-0.228,0.267-0.472,0.5-0.735,0.699
			c-0.264,0.201-0.712,0.418-1.345,0.65c-0.136,0.034-0.419,0.083-0.849,0.15c-0.43,0.066-0.689,0.1-0.779,0.1
			c-0.514,0-1.082-0.076-1.708-0.23C262.016,45.164,261.514,44.949,261.138,44.672z"/>
	</g>
</g>
</svg>
