<?xml version="1.0" encoding="utf-8"?>
<!-- Generator: Adobe Illustrator 16.0.0, SVG Export Plug-In . SVG Version: 6.00 Build 0)  -->
<!DOCTYPE svg PUBLIC "-//W3C//DTD SVG 1.1//EN" "http://www.w3.org/Graphics/SVG/1.1/DTD/svg11.dtd">
<svg version="1.1" id="Layer_1" xmlns="http://www.w3.org/2000/svg" xmlns:xlink="http://www.w3.org/1999/xlink" x="0px" y="0px"
	 width="32px" height="32px" viewBox="0 0 32 32" enable-background="new 0 0 32 32" xml:space="preserve">
<g>
	<g>
		<g>
			<path fill="#D8271D" d="M8,27.733H5.867c-0.294,0-0.533,0.239-0.533,0.533S5.572,28.8,5.867,28.8H8
				c0.294,0,0.533-0.239,0.533-0.533S8.294,27.733,8,27.733z"/>
			<path fill="#D8271D" d="M8,24.533H2.667c-0.294,0-0.533,0.239-0.533,0.533c0,0.295,0.239,0.533,0.533,0.533H8
				c0.294,0,0.533-0.238,0.533-0.533C8.533,24.772,8.294,24.533,8,24.533z"/>
			<path fill="#D8271D" d="M8,21.334H4.8c-0.294,0-0.533,0.238-0.533,0.533c0,0.294,0.239,0.533,0.533,0.533H8
				c0.294,0,0.533-0.239,0.533-0.533C8.533,21.572,8.294,21.334,8,21.334z"/>
			<path fill="#D8271D" d="M5.867,7.467H8c0.294,0,0.533-0.239,0.533-0.533C8.533,6.639,8.294,6.4,8,6.4H5.867
				c-0.294,0-0.533,0.239-0.533,0.534C5.333,7.228,5.572,7.467,5.867,7.467z"/>
			<path fill="#D8271D" d="M11.2,8.533c0.294,0,0.533-0.239,0.533-0.533V4.267h2.417c0.065,0,0.23,0.093,0.294,0.238l1.6,3.707
				c0.087,0.202,0.283,0.322,0.489,0.322c0.071,0,0.143-0.014,0.211-0.043c0.271-0.117,0.396-0.431,0.279-0.701L15.422,4.08
				C15.199,3.569,14.664,3.2,14.15,3.2h-2.417c-0.588,0-1.067,0.49-1.067,1.093V8C10.667,8.294,10.906,8.533,11.2,8.533z"/>
			<path fill="#D8271D" d="M11.733,12.8c0-0.588-0.479-1.066-1.067-1.066S9.6,12.212,9.6,12.8c0,0.588,0.478,1.067,1.066,1.067
				S11.733,13.388,11.733,12.8z"/>
			<path fill="#D8271D" d="M6.933,4.267H8c0.294,0,0.533-0.239,0.533-0.533S8.294,3.2,8,3.2H6.933C6.639,3.2,6.4,3.439,6.4,3.733
				S6.639,4.267,6.933,4.267z"/>
			<path fill="#D8271D" d="M20.267,11.733c-0.589,0-1.066,0.479-1.066,1.066c0,0.588,0.478,1.067,1.066,1.067
				s1.067-0.479,1.067-1.067C21.334,12.212,20.855,11.733,20.267,11.733z"/>
			<path fill="#D8271D" d="M21.867,18.133h6.399c0.294,0,0.533-0.238,0.533-0.533c0-0.294-0.239-0.533-0.533-0.533h-6.399
				c-0.295,0-0.533,0.239-0.533,0.533C21.334,17.895,21.572,18.133,21.867,18.133z"/>
			<path fill="#D8271D" d="M6.4,12.8c0,0.588,0.479,1.067,1.067,1.067s1.066-0.479,1.066-1.067c0-0.588-0.478-1.066-1.066-1.066
				S6.4,12.212,6.4,12.8z"/>
			<path fill="#D8271D" d="M18.133,12.8c0-0.588-0.479-1.066-1.066-1.066S16,12.212,16,12.8c0,0.588,0.479,1.067,1.066,1.067
				S18.133,13.388,18.133,12.8z"/>
			<path fill="#D8271D" d="M28.701,12.825C28.352,11.52,27.279,9.6,25.066,9.6H4.319L3.39,7.277C3.19,6.752,2.685,6.4,2.133,6.4
				H1.067C0.479,6.4,0,6.878,0,7.467V11.2c0,5.084,3.982,9.066,9.067,9.066c0.294,0,0.533-0.239,0.533-0.533S9.361,19.2,9.067,19.2
				c-4.486,0-8-3.514-8-8V7.467h1.066c0.076,0,0.207,0.051,0.263,0.198l1.066,2.667c0.081,0.202,0.277,0.335,0.496,0.335h18.558
				l0.433,1.729c0.006,0.021,0.012,0.042,0.02,0.062c0.334,0.869,1.04,1.409,1.842,1.409h1.322c0.295,0,0.533-0.239,0.533-0.533
				S26.428,12.8,26.133,12.8h-1.322c-0.491,0-0.741-0.466-0.835-0.697l-0.358-1.437h1.449c2.177,0,2.655,2.643,2.674,2.754
				c0.043,0.257,0.266,0.445,0.526,0.445c1.47,0,2.667,1.196,2.667,2.667c0,1.471-1.196,2.667-2.667,2.667h-8.7l0.648-1.372
				c0.127-0.266,0.013-0.584-0.254-0.71c-0.266-0.126-0.584-0.013-0.709,0.254l-4.803,10.14c-0.058,0.127-0.222,0.222-0.299,0.222
				h-2.417v-9.601H17.6c0.295,0,0.533-0.238,0.533-0.533c0-0.294-0.238-0.533-0.533-0.533H11.2c-0.294,0-0.534,0.239-0.534,0.533
				v10.134c0,0.589,0.479,1.067,1.067,1.067h2.417c0.51,0,1.043-0.355,1.266-0.839l3.645-7.695h9.206
				c2.059,0,3.733-1.675,3.733-3.733C32,14.622,30.556,13.041,28.701,12.825z"/>
			<path fill="#D8271D" d="M14.933,12.8c0-0.588-0.478-1.066-1.066-1.066S12.8,12.212,12.8,12.8c0,0.588,0.479,1.067,1.067,1.067
				S14.933,13.388,14.933,12.8z"/>
		</g>
	</g>
</g>
</svg>
