<?xml version="1.0" encoding="iso-8859-1"?>
<!-- Generator: Adobe Illustrator 19.0.0, SVG Export Plug-In . SVG Version: 6.00 Build 0)  -->
<svg xmlns="http://www.w3.org/2000/svg" xmlns:xlink="http://www.w3.org/1999/xlink" version="1.1" id="Layer_1" x="0px" y="0px" viewBox="0 0 512 512" style="enable-background:new 0 0 512 512;" xml:space="preserve" width="512px" height="512px">
<g>
	<g>
		<g>
			<path d="M501.331,106.666h-10.667V74.671c0-5.892-4.776-10.669-10.669-10.669H243.49l-8.339-15.675     c-1.852-3.482-5.474-5.659-9.418-5.659H10.669C4.777,42.668,0,47.444,0,53.336v405.327c0,5.892,4.777,10.669,10.669,10.669     h490.663c5.891,0,10.669-4.776,10.669-10.669V117.335C512,111.442,507.223,106.666,501.331,106.666z M469.327,85.339v21.327     H266.181l-11.344-21.327H469.327z M490.663,447.995H21.337V64.005h197.985l8.331,15.664c0.025,0.049,0.05,0.098,0.077,0.146     l22.621,42.531c1.852,3.482,5.476,5.659,9.42,5.659h230.891V447.995z" fill="#d8271d"/>
			<path d="M163.558,106.677c5.89,0,10.669-4.776,10.669-10.669c0-5.892-4.779-10.669-10.669-10.669h-0.254     c-5.892,0-10.669,4.776-10.669,10.669c0,5.892,4.776,10.669,10.669,10.669H163.558z" fill="#d8271d"/>
			<path d="M132.661,85.334H53.335c-5.89,0-10.669,4.776-10.669,10.669c0,5.892,4.779,10.669,10.669,10.669h79.326     c5.89,0,10.669-4.776,10.669-10.669C143.329,90.11,138.551,85.334,132.661,85.334z" fill="#d8271d"/>
			<path d="M250.666,188.157c-4.528,2.614-11.755,4.175-19.333,4.176c-10.854,0-20.402-3.069-25.544-8.211     c-4.165-4.165-10.918-4.166-15.087-0.002l-27.778,27.777c-3.588,3.59-4.153,9.212-1.346,13.443     c15.94,24.027,10.695,39.176,4.624,56.719c-0.725,2.093-1.44,4.161-2.107,6.211c-11.377,35.012,7.429,55.973,22.564,68.692     c14.515,12.199,29.597,18.74,41.717,23.995c8.681,3.764,16.176,7.016,20.078,10.918c2,2,4.713,3.126,7.543,3.126     c0.002,0,0.002,0,0.002,0c2.829,0,5.542-1.124,7.543-3.125c4.075-4.075,11.637-7.343,20.391-11.125     c12.011-5.189,26.956-11.648,41.402-23.789c15.137-12.719,33.943-33.678,22.566-68.692c-0.667-2.051-1.382-4.117-2.105-6.211     c-6.074-17.541-11.318-32.692,4.622-56.719c2.809-4.231,2.246-9.854-1.344-13.443l-27.772-27.776     c-4.167-4.165-10.92-4.166-15.089,0c-5.142,5.141-14.693,8.212-25.548,8.212c-7.577,0-14.803-1.561-19.331-4.176     C258.033,186.252,253.964,186.253,250.666,188.157z M280.666,213.669c12.162,0,23.353-2.819,32.081-7.927l15.334,15.335     c-15.901,29.099-8.194,51.357-2.446,67.959c0.68,1.963,1.351,3.903,1.976,5.825c5.936,18.27,1.449,31.1-16.002,45.765     c-12.052,10.129-24.848,15.658-36.138,20.537c-7.256,3.134-13.845,5.982-19.499,9.636c-5.526-3.53-11.994-6.335-19.105-9.419     c-11.41-4.949-24.346-10.558-36.477-20.755c-17.449-14.665-21.936-27.495-15.999-45.763c0.625-1.924,1.298-3.862,1.978-5.826     c5.747-16.603,13.454-38.86-2.448-67.958l15.336-15.335c8.729,5.108,19.916,7.927,32.081,7.926     c9.062-0.001,17.605-1.555,24.665-4.437C263.061,212.115,271.604,213.669,280.666,213.669z" fill="#d8271d"/>
			<path d="M213.334,287.999c0,23.528,19.139,42.669,42.666,42.669c23.528,0,42.668-19.142,42.668-42.669     c0-23.527-19.141-42.666-42.668-42.666C232.472,245.333,213.334,264.473,213.334,287.999z M256,266.67     c11.762,0,21.331,9.568,21.331,21.329c0,11.762-9.569,21.332-21.331,21.332c-11.76,0-21.329-9.57-21.329-21.332     C234.671,276.238,244.24,266.67,256,266.67z" fill="#d8271d"/>
		</g>
	</g>
</g>
<g>
</g>
<g>
</g>
<g>
</g>
<g>
</g>
<g>
</g>
<g>
</g>
<g>
</g>
<g>
</g>
<g>
</g>
<g>
</g>
<g>
</g>
<g>
</g>
<g>
</g>
<g>
</g>
<g>
</g>
</svg>
