<?xml version="1.0" encoding="utf-8"?>
<!-- Generator: Adobe Illustrator 16.0.0, SVG Export Plug-In . SVG Version: 6.00 Build 0)  -->
<!DOCTYPE svg PUBLIC "-//W3C//DTD SVG 1.1//EN" "http://www.w3.org/Graphics/SVG/1.1/DTD/svg11.dtd">
<svg version="1.1" id="Layer_1" xmlns="http://www.w3.org/2000/svg" xmlns:xlink="http://www.w3.org/1999/xlink" x="0px" y="0px"
	 width="32px" height="32px" viewBox="0 0 32 32" enable-background="new 0 0 32 32" xml:space="preserve">
<g>
	<g>
		<g>
			<rect x="8.348" y="9.391" fill="#D8271D" width="15.305" height="1.392"/>
			<rect x="22.261" y="11.478" fill="#D8271D" width="1.392" height="1.392"/>
			<rect x="8.348" y="11.478" fill="#D8271D" width="1.392" height="1.392"/>
			<rect x="15.304" y="4.87" fill="#D8271D" width="1.391" height="1.391"/>
			<rect x="17.391" y="4.87" fill="#D8271D" width="1.393" height="1.391"/>
			<rect x="13.217" y="4.87" fill="#D8271D" width="1.392" height="1.391"/>
			<rect x="11.13" y="4.87" fill="#D8271D" width="1.392" height="1.391"/>
			<rect x="19.479" y="4.87" fill="#D8271D" width="1.391" height="1.391"/>
			<path fill="#D8271D" d="M28.717,29.995c-0.611,0.325-1.141,0.606-2.244,0.612l4.101-12.301c0.112-0.338-0.05-0.707-0.374-0.854
				l-3.765-1.694V9.043c0-1.151-0.937-2.087-2.087-2.087h-1.043V3.478c0-0.384-0.312-0.695-0.695-0.695h-5.914V0h-1.391v2.783H9.391
				c-0.384,0-0.695,0.312-0.695,0.695v3.479H7.652c-1.151,0-2.087,0.936-2.087,2.087v6.715l-3.764,1.695
				c-0.325,0.146-0.487,0.516-0.374,0.854l4.1,12.301c-1.104-0.006-1.633-0.287-2.243-0.613c-0.684-0.363-1.458-0.777-2.936-0.777
				v1.393c1.13,0,1.664,0.283,2.281,0.613C3.312,31.587,4.087,32,5.565,32c0.391,0,0.725-0.025,1.02-0.079
				c0.854-0.134,1.417-0.435,1.916-0.7c0.617-0.328,1.149-0.611,2.275-0.611c1.13,0,1.664,0.283,2.281,0.613
				C13.741,31.587,14.515,32,15.993,32c1.479,0,2.253-0.413,2.937-0.777c0.617-0.33,1.15-0.613,2.281-0.613
				c1.13,0,1.664,0.283,2.282,0.611c0.499,0.266,1.065,0.566,1.922,0.7C25.71,31.975,26.043,32,26.435,32
				c1.479,0,2.253-0.413,2.937-0.777c0.617-0.33,1.15-0.613,2.281-0.613v-1.393C30.174,29.217,29.399,29.631,28.717,29.995z
				 M29.055,18.463l-0.499,1.497l-11.86-5.449v-1.609L29.055,18.463z M10.087,4.174h11.826v2.783H10.087V4.174z M6.957,9.043
				c0-0.383,0.312-0.696,0.696-0.696h1.739h13.217h1.739c0.384,0,0.695,0.312,0.695,0.696v6.089l-8.758-3.941
				c-0.182-0.082-0.389-0.082-0.571,0l-8.758,3.94V9.043L6.957,9.043z M2.946,18.463l12.358-5.561v1.609L3.444,19.96L2.946,18.463z
				 M25.07,30.414c-0.338-0.11-0.617-0.258-0.925-0.422c-0.684-0.363-1.458-0.775-2.935-0.775c-1.479,0-2.253,0.414-2.937,0.778
				c-0.618,0.329-1.151,0.614-2.281,0.614c-1.13,0-1.664-0.285-2.281-0.614c-0.683-0.364-1.458-0.778-2.936-0.778
				c-1.474,0-2.247,0.412-2.929,0.776c-0.305,0.163-0.583,0.31-0.918,0.42l-3.042-9.126l11.417-5.245v8.306h1.391v-8.306
				l11.418,5.245L25.07,30.414z"/>
		</g>
	</g>
</g>
</svg>
