<?xml version="1.0" encoding="utf-8"?>
<!-- Generator: Adobe Illustrator 16.0.0, SVG Export Plug-In . SVG Version: 6.00 Build 0)  -->
<!DOCTYPE svg PUBLIC "-//W3C//DTD SVG 1.1 Basic//EN" "http://www.w3.org/Graphics/SVG/1.1/DTD/svg11-basic.dtd">
<svg version="1.1" baseProfile="basic" id="Layer_1"
	 xmlns="http://www.w3.org/2000/svg" xmlns:xlink="http://www.w3.org/1999/xlink" x="0px" y="0px" width="304px" height="223.575px"
	 viewBox="0 0 304 223.575" xml:space="preserve">
<g>
	<g>
		<path fill="#77431E" d="M94.176,54.821c0,0-16.67-16.012-40.981,5.521c-24.312,21.534-8.335,38.899-11.114,47.929
			c-2.778,9.03-17.365,8.334-17.365,23.616c0,15.281,13.197,18.06,10.42,29.174c-2.78,11.114-39.593,25.004-10.42,59.736
			l124.334,2.777c0,0,12.756-2.083,11.241-23.615c-1.515-21.533-23.049-24.311-23.049-38.204c0-13.892,6.394-13.939,6.251-25.419
			c-0.271-21.989-12.644-18.143-11.949-29.951C132.239,94.576,135.158,49.3,94.176,54.821z"/>
		<g>
			<path fill="#DDBA9D" d="M116.045,186.782l-41.697-23.528c-0.225,5.415-1.537,11.189-5.284,15.405
				c-4.543,5.11-8.718,6.091-13.772,6.77c9.255,5.069,20.094,7.987,31.683,7.987C97.489,193.416,107.388,191.015,116.045,186.782z"
				/>
			<path fill="#D8271D" d="M150.806,206.397c-1.551-5.867-4.865-11.743-11.564-15.245c-8.85-4.626-15.213-5.003-20.584-5.724
				c-0.858,0.47-1.729,0.919-2.613,1.354c-8.657,4.233-18.556,6.633-29.07,6.633c-11.588,0-22.428-2.917-31.683-7.987
				c-5.371,0.721-11.734,1.098-20.584,5.724c-14.953,7.816-13.044,27.463-12.299,32.423h129.131
				C151.953,220.839,152.718,213.625,150.806,206.397z"/>
			<path fill="#D1AE93" d="M104.885,178.659c-9.369-10.542-3.513-30.843-3.513-30.843H93.27h-5.954H72.578
				c0,0,2.109,7.311,1.77,15.438l41.697,23.528c0.884-0.434,1.755-0.884,2.613-1.354C113.604,184.75,109.429,183.77,104.885,178.659
				z"/>
		</g>
		<g>
			<path fill="#DDBA9D" d="M86.975,65.438c-20.474,0-37.071,21.151-37.071,47.242c0,26.089,16.598,47.239,37.071,47.239l0,0V65.438
				L86.975,65.438z"/>
			<path fill="#EFD4B7" d="M124.046,112.679c0-26.091-16.597-47.242-37.072-47.242v94.481
				C107.45,159.918,124.046,138.768,124.046,112.679z"/>
		</g>
		<path fill="#77431E" d="M102.195,81.792c0,0-13.11,20.384-51.372,20.384c0,0-1.785-40.768,36.152-40.768
			S126.012,99.4,126.012,99.4S118.718,92.44,102.195,81.792z"/>
		<g>
			<g>
				<g>
					<path fill="#E57A7B" d="M75.973,142.827c0,0,0.108,0.461,0.378,1.158c0.598,1.549,1.99,4.344,4.741,6.238
						c1.476,1.015,3.342,1.779,5.69,1.951c2.345-0.172,4.211-0.931,5.688-1.946c2.752-1.895,4.144-4.695,4.742-6.243
						c0.27-0.699,0.378-1.158,0.378-1.158H75.973z"/>
					<path fill="#E32849" d="M86.783,153.004c-0.021,0-0.041,0-0.061-0.002c-2.272-0.168-4.323-0.871-6.095-2.092
						c-2.954-2.031-4.428-5.016-5.046-6.613c-0.284-0.739-0.405-1.226-0.41-1.246c-0.06-0.246-0.003-0.476,0.153-0.675
						c0.157-0.2,0.396-0.285,0.65-0.285h21.618c0.254,0,0.494,0.084,0.651,0.285c0.156,0.2,0.212,0.445,0.153,0.691
						c-0.005,0.02-0.125,0.499-0.411,1.238c-0.616,1.598-2.093,4.578-5.044,6.61c-1.774,1.22-3.824,1.922-6.096,2.089
						C86.823,153.006,86.802,153.004,86.783,153.004z M77.114,143.745c0.004,0,0.005-0.019,0.008-0.013
						c0.548,1.42,1.854,4.053,4.44,5.833c1.512,1.042,3.269,1.639,5.22,1.792c1.951-0.153,3.706-0.764,5.219-1.804
						c2.586-1.779,3.892-4.397,4.439-5.819c0.002-0.006,0.006,0.011,0.008,0.011H77.114z"/>
				</g>
				<path fill="#FFFFFF" d="M92.47,150.229H81.093c1.476,1.016,3.342,1.775,5.69,1.948C89.128,152.005,90.994,151.245,92.47,150.229
					z"/>
			</g>
			<g>
				<path fill="#FFFFFF" d="M75.973,142.854c0,0,0.108,0.448,0.378,1.145c0.084,0.218,0.184,0.46,0.3,0.721h20.26
					c0.117-0.26,0.217-0.503,0.301-0.721c0.27-0.697,0.378-1.145,0.378-1.145H75.973z"/>
				<path fill="#E57A7B" d="M76.652,144.719c0.716,1.594,2.075,3.882,4.441,5.51H92.47c2.366-1.628,3.727-3.917,4.441-5.51H76.652z"
					/>
			</g>
		</g>
		<g>
			<path fill="#FFFFFF" d="M75.586,112.073c0,0-3.64,3.466-8.132,3.466s-8.133-3.466-8.133-3.466s3.641-3.466,8.133-3.466
				S75.586,112.073,75.586,112.073z"/>
			<g>
				<circle fill="#1E1611" cx="67.276" cy="112.122" r="3.292"/>
				<circle fill="#FFFFFF" cx="68.046" cy="111.244" r="1.104"/>
			</g>
		</g>
		<g>
			<path fill="#FFFFFF" d="M114.56,112.073c0,0-3.641,3.466-8.134,3.466c-4.492,0-8.132-3.466-8.132-3.466s3.64-3.466,8.132-3.466
				C110.918,108.607,114.56,112.073,114.56,112.073z"/>
			<g>
				<circle fill="#1E1611" cx="106.365" cy="112.122" r="3.29"/>
				<circle fill="#FFFFFF" cx="107.134" cy="111.244" r="1.104"/>
			</g>
		</g>
		<g>
			<path fill="#77431E" d="M56.802,105.201c0,0,0.309-0.159,0.849-0.435c0.543-0.274,1.321-0.663,2.265-1.105
				c0.472-0.221,0.987-0.457,1.536-0.695c0.553-0.236,1.135-0.48,1.765-0.694c0.316-0.105,0.639-0.208,1.002-0.271
				c0.042-0.01,0.093-0.014,0.141-0.02c0.049-0.003,0.094-0.012,0.152-0.01c0.055,0.001,0.105-0.002,0.167,0.004l0.126,0.015
				c0.168,0.021,0.335,0.04,0.507,0.06c0.678,0.081,1.367,0.161,2.055,0.242c1.383,0.18,2.762,0.36,4.057,0.529
				c1.292,0.172,2.497,0.333,3.531,0.47c2.064,0.278,3.442,0.463,3.442,0.463l-0.293,1.668c0,0-1.358-0.289-3.393-0.722
				c-1.019-0.216-2.206-0.469-3.478-0.737c-1.271-0.266-2.626-0.549-3.982-0.833c-0.682-0.134-1.364-0.267-2.035-0.398
				c-0.168-0.032-0.335-0.065-0.502-0.098l-0.125-0.025c-0.023-0.005-0.057-0.005-0.085-0.008c-0.028-0.005-0.067-0.001-0.1-0.001
				c-0.036,0.002-0.07,0.001-0.109,0.006c-0.3,0.029-0.619,0.1-0.925,0.178c-0.619,0.16-1.213,0.355-1.775,0.547
				c-0.562,0.194-1.089,0.388-1.575,0.572c-0.973,0.37-1.777,0.695-2.338,0.928C57.122,105.066,56.802,105.201,56.802,105.201z"/>
			<path fill="#77431E" d="M116.703,105.201c0,0-0.321-0.135-0.881-0.369c-0.56-0.232-1.364-0.558-2.337-0.928
				c-0.486-0.184-1.014-0.378-1.575-0.572c-0.562-0.192-1.158-0.388-1.775-0.547c-0.307-0.078-0.625-0.149-0.926-0.178
				c-0.039-0.005-0.072-0.004-0.108-0.006c-0.034,0-0.074-0.004-0.1,0.001c-0.029,0.003-0.062,0.002-0.085,0.008l-0.125,0.025
				c-0.167,0.032-0.333,0.065-0.5,0.098c-0.672,0.131-1.354,0.264-2.036,0.398c-1.355,0.284-2.709,0.567-3.982,0.833
				c-1.272,0.268-2.459,0.521-3.477,0.737c-2.036,0.434-3.393,0.722-3.393,0.722l-0.293-1.668c0,0,1.377-0.185,3.443-0.463
				c1.033-0.137,2.239-0.297,3.531-0.47c1.293-0.169,2.674-0.35,4.055-0.529c0.69-0.081,1.379-0.161,2.057-0.242
				c0.169-0.02,0.339-0.039,0.507-0.06l0.125-0.015c0.061-0.006,0.111-0.003,0.167-0.004c0.057-0.002,0.101,0.007,0.151,0.01
				c0.049,0.006,0.098,0.01,0.142,0.02c0.362,0.063,0.686,0.165,1,0.271c0.629,0.213,1.213,0.458,1.765,0.694
				c0.55,0.238,1.064,0.474,1.537,0.695c0.945,0.443,1.721,0.831,2.264,1.105C116.394,105.042,116.703,105.201,116.703,105.201z"/>
		</g>
	</g>
	<path fill="#CAEBFB" d="M89.315,66.473c-31.565,0-38.13,33.08-38.13,33.08h3.282c0,0,9.344-25.504,35.731-25.504
		c26.389,0,34.218,21.717,34.218,21.717l4.798-0.504C129.214,95.26,120.88,66.473,89.315,66.473z"/>
	<path fill="#12B1BD" d="M132.95,104.079c-0.303-0.141-0.621-0.277-0.959-0.402h-5.303h-1.01c0,0,0.45,3.819,0.958,8.615
		c0.813,7.663,1.781,17.823,1.314,18.91c0,0,10.101,1.515,10.354-6.565v-13.889C138.304,110.748,137.94,106.416,132.95,104.079z"/>
	<g>
		<path fill="#8CB8CB" d="M99.514,149.635c-1.755-2.663-7.986-2.049-7.986-2.049s-3.166-0.492-6.393,2.513
			c-3.223,3.005,0.336,5.999,0.336,5.999s1.774,1.938,8.093,0.817c5.163-0.916,6.254-2.681,6.481-3.297
			C99.951,151.824,99.751,150.546,99.514,149.635z"/>
		<path fill="#CAEBFB" d="M132.764,133.61c-2.076-2.924-4.066-0.996-4.066-0.996c-7.364,11.906-29.171,17.037-29.171,17.037
			c-0.003-0.005-0.008-0.011-0.012-0.016c0.237,0.911,0.437,2.189,0.531,3.983c0.05-0.139,0.059-0.218,0.059-0.218
			C112.842,150.846,134.838,136.539,132.764,133.61z"/>
	</g>
	<path fill="#D8271D" d="M252.231,10.037h-82.346c-22.462,0-40.671,18.209-40.671,40.672c0,21.733,17.046,39.482,38.498,40.613
		v17.285l29.835-17.226h54.685c22.463,0,40.672-18.209,40.672-40.672C292.903,28.247,274.694,10.037,252.231,10.037z
		 M201.006,25.493c-1.826,0-3.307-1.48-3.307-3.307s1.48-3.307,3.307-3.307s3.307,1.48,3.307,3.307S202.832,25.493,201.006,25.493z
		 M211.059,25.493c-1.826,0-3.307-1.48-3.307-3.307s1.48-3.307,3.307-3.307s3.307,1.48,3.307,3.307S212.885,25.493,211.059,25.493z
		 M221.111,25.493c-1.826,0-3.307-1.48-3.307-3.307s1.48-3.307,3.307-3.307s3.307,1.48,3.307,3.307S222.938,25.493,221.111,25.493z"
		/>
	<g>
		<path fill="#FFFFFF" d="M195.58,44.062V39.72h-4.788v4.343h-0.929v-9.259h0.929v4.08h4.788v-4.08h0.922v9.259H195.58z"/>
		<path fill="#FFFFFF" d="M206.322,42.835c-0.961,0.928-2.106,1.393-3.438,1.393c-1.311,0-2.45-0.46-3.42-1.381
			c-0.98-0.937-1.472-2.058-1.472-3.364c0-1.344,0.479-2.488,1.436-3.433c0.952-0.937,2.104-1.404,3.456-1.404
			c1.336,0,2.484,0.464,3.445,1.392c0.973,0.937,1.459,2.068,1.459,3.396C207.788,40.761,207.3,41.895,206.322,42.835z
			 M205.688,36.648c-0.782-0.777-1.716-1.167-2.804-1.167c-1.099,0-2.035,0.394-2.809,1.179c-0.77,0.786-1.154,1.727-1.154,2.822
			c0,1.066,0.395,1.984,1.185,2.754c0.782,0.766,1.708,1.148,2.778,1.148c1.083,0,2.016-0.385,2.798-1.154
			c0.785-0.77,1.179-1.698,1.179-2.785S206.469,37.426,205.688,36.648z M203.996,34.034l-1.075-0.916l-1.1,0.916h-1.142l1.813-1.563
			h0.831l1.783,1.563H203.996z M205.724,31.866c-0.439,0.322-0.849,0.482-1.228,0.482c-0.167,0-0.34-0.026-0.519-0.079
			c-0.118-0.032-0.269-0.092-0.452-0.177l-0.421-0.171c-0.151-0.058-0.292-0.086-0.422-0.086c-0.293,0-0.572,0.126-0.837,0.379
			l-0.434-0.629c0.375-0.351,0.809-0.525,1.301-0.525c0.159,0,0.326,0.028,0.501,0.085c0.114,0.033,0.261,0.09,0.439,0.171
			c0.013,0.009,0.031,0.017,0.056,0.024c0.021,0.013,0.036,0.021,0.049,0.024c0.04,0.021,0.075,0.037,0.104,0.049l0.208,0.08
			c0.15,0.053,0.289,0.079,0.415,0.079c0.13,0,0.269-0.034,0.415-0.104l0.281-0.159l0.092-0.061L205.724,31.866z"/>
		<path fill="#FFFFFF" d="M214.909,35.646v8.416h-0.929v-8.416h-2.125v-0.843h5.167v0.843H214.909z"/>
		<path fill="#FFFFFF" d="M223.465,39.757c-0.517,0.517-1.169,0.802-1.954,0.854l2.613,3.451h-1.166l-3.139-4.189l1.001-0.007
			c0.42-0.012,0.749-0.057,0.989-0.134c1.019-0.31,1.527-0.963,1.527-1.961c0-0.817-0.338-1.41-1.014-1.776
			c-0.265-0.143-0.556-0.24-0.874-0.293c-0.235-0.037-0.545-0.056-0.928-0.056h-1.612v8.416h-0.929v-9.259h2.352
			c0.208,0,0.395,0.004,0.562,0.013c0.216,0.012,0.413,0.028,0.593,0.049c0.456,0.057,0.83,0.154,1.124,0.293
			c1.099,0.529,1.648,1.408,1.648,2.639C224.259,38.574,223.994,39.228,223.465,39.757z"/>
		<path fill="#FFFFFF" d="M233.346,35.83c0.077,0.065,0.153,0.134,0.227,0.207c0.973,0.937,1.459,2.068,1.459,3.396
			c0,1.328-0.488,2.462-1.466,3.402c-0.961,0.928-2.106,1.393-3.438,1.393c-1.311,0-2.45-0.46-3.42-1.381
			c-0.98-0.937-1.472-2.058-1.472-3.364c0-1.344,0.479-2.488,1.436-3.433c0.952-0.937,2.104-1.404,3.456-1.404
			c0.957,0,1.818,0.238,2.584,0.714c0.089-0.04,0.16-0.073,0.214-0.098c0.081-0.036,0.201-0.113,0.36-0.231
			c0.158-0.118,0.248-0.263,0.269-0.434h-0.397v-1.1h1.154v1.136c-0.028,0.199-0.079,0.365-0.152,0.498
			c-0.073,0.132-0.162,0.243-0.266,0.333c-0.104,0.089-0.194,0.158-0.271,0.207C233.556,35.716,233.464,35.769,233.346,35.83z
			 M232.931,36.648c-0.782-0.777-1.716-1.167-2.804-1.167c-1.099,0-2.035,0.394-2.809,1.179c-0.77,0.786-1.154,1.727-1.154,2.822
			c0,1.066,0.395,1.984,1.185,2.754c0.782,0.766,1.708,1.148,2.778,1.148c1.083,0,2.016-0.385,2.798-1.154
			c0.785-0.77,1.179-1.698,1.179-2.785S233.712,37.426,232.931,36.648z M229.669,46.413v-1.581h0.929v1.581H229.669z"/>
	</g>
	<g>
		<path fill="#FFDA00" d="M166.231,58.521v9.689h-3.188v-9.689h-2.463v-2.801h8.099v2.801H166.231z"/>
		<path fill="#FFDA00" d="M175.929,68.211l-2.883-4.029h-0.033v4.029h-3.057v-12.49h3.946c0.417,0,0.752,0.008,1.005,0.024
			c0.374,0.017,0.709,0.053,1.005,0.107c0.747,0.126,1.359,0.382,1.838,0.767c1.026,0.823,1.54,1.96,1.54,3.41
			c0,0.994-0.271,1.849-0.815,2.562c-0.565,0.758-1.329,1.214-2.29,1.367l3.386,4.252H175.929z M175.616,58.909
			c-0.357-0.258-0.838-0.388-1.442-0.388h-1.161v3.478h1.129c1.395,0,2.092-0.597,2.092-1.788
			C176.233,59.634,176.028,59.2,175.616,58.909z"/>
		<path fill="#FFDA00" d="M190.52,57.854v5.413c0,0.852-0.071,1.54-0.215,2.067c-0.192,0.676-0.535,1.264-1.029,1.764
			c-0.885,0.9-2.049,1.351-3.493,1.351c-0.698,0-1.346-0.102-1.944-0.305c-0.671-0.23-1.22-0.573-1.648-1.029
			c-0.527-0.555-0.879-1.148-1.054-1.78c-0.077-0.285-0.13-0.606-0.157-0.964c-0.027-0.285-0.041-0.653-0.041-1.104v-7.547h3.188
			v7.547c0,0.329,0.017,0.612,0.05,0.849c0.044,0.302,0.118,0.558,0.222,0.766c0.253,0.511,0.703,0.767,1.352,0.767
			c0.67,0,1.12-0.25,1.352-0.75c0.099-0.203,0.164-0.456,0.197-0.758c0.021-0.22,0.033-0.511,0.033-0.873v-7.547h3.188v0.667
			c0.225-0.235,0.338-0.524,0.338-0.865h-0.659v-1.878h1.887v1.937c-0.077,0.796-0.338,1.39-0.783,1.779
			C191.055,57.569,190.794,57.733,190.52,57.854z M184.39,72.256V69.71h2.686v2.546H184.39z"/>
		<path fill="#FFDA00" d="M205.127,63.539c-0.362,1.467-1.129,2.653-2.299,3.56c-1.159,0.9-2.496,1.351-4.012,1.351
			c-1.824,0-3.376-0.626-4.655-1.878c-1.285-1.258-1.928-2.799-1.928-4.622c0-1.818,0.637-3.354,1.911-4.605
			c1.269-1.236,2.814-1.854,4.639-1.854c2.373,0,4.204,0.978,5.495,2.933c0.45,0.676,0.733,1.356,0.849,2.043h-3.345
			c-0.555-1.449-1.561-2.175-3.016-2.175c-0.983,0-1.793,0.365-2.431,1.096c-0.609,0.703-0.914,1.552-0.914,2.546
			c0,1.005,0.305,1.865,0.914,2.579c0.643,0.758,1.458,1.137,2.447,1.137c1.362,0,2.361-0.703,2.999-2.109H205.127z"/>
		<path fill="#FFDA00" d="M216.67,58.521v9.689h-3.188v-9.689h-2.463v-2.801h8.099v2.801H216.67z"/>
		<path fill="#FFDA00" d="M229.942,63.268c0,0.852-0.071,1.54-0.215,2.067c-0.192,0.676-0.535,1.264-1.029,1.764
			c-0.885,0.9-2.049,1.351-3.493,1.351c-0.703,0-1.352-0.102-1.944-0.305c-0.671-0.23-1.22-0.573-1.648-1.029
			c-0.527-0.555-0.879-1.148-1.054-1.78c-0.077-0.285-0.132-0.606-0.165-0.964c-0.022-0.285-0.033-0.653-0.033-1.104v-7.547h3.188
			v7.547c0,0.329,0.017,0.612,0.05,0.849c0.044,0.302,0.118,0.558,0.222,0.766c0.253,0.511,0.703,0.767,1.352,0.767
			c0.67,0,1.12-0.25,1.352-0.75c0.093-0.203,0.159-0.456,0.197-0.758c0.021-0.22,0.033-0.511,0.033-0.873v-7.547h3.188V63.268z"/>
		<path fill="#FFDA00" d="M238.107,63.671v4.54h-3.188v-4.54l-3.732-7.95h3.46l1.854,5.018l1.871-5.018h3.427L238.107,63.671z"/>
		<path fill="#FFDA00" d="M247.285,54.625l-0.774-0.973l-0.774,0.973h-2.735l2.629-2.802h1.829l2.529,2.802H247.285z
			 M243.084,68.211v-12.49h6.937v2.801h-3.88v1.944h3.765v2.802h-3.765v2.142h3.88v2.802H243.084z M249.584,53.208l-0.791-1.656
			l4.046-2.175l0.897,1.993L249.584,53.208z"/>
		<path fill="#FFDA00" d="M259.751,68.211l-4.754-7.597l-0.041,0.017l0.091,7.58h-3.057v-12.49h2.752l4.827,7.852l0.033-0.033
			l-0.14-7.818h3.057v12.49H259.751z"/>
	</g>
</g>
</svg>
