<?xml version="1.0" encoding="iso-8859-1"?>
<svg xmlns="http://www.w3.org/2000/svg" xmlns:xlink="http://www.w3.org/1999/xlink" version="1.1" viewBox="0 0 489.225 489.225" enable-background="new 0 0 489.225 489.225" width="512px" height="512px">
  <g>
    <g>
      <path d="m483.062,179.925l-232.3-177.6c-3.1-3.1-8.3-3.1-12.5,0l-231.3,176.9c-3.1,2.1-5.8,9.4-5.8,13.5v286.1c0,6.2 4.2,10.4 10.4,10.4h466.1c6.2,0 10.4-4.2 10.4-10.4v-286.1c-0.099-4.4-1.299-9.4-5-12.8zm-238.499-155.7l203.9,155h-406.8l202.9-155zm147.7,444.2h-296.5v-36.4h296.5v36.4zm0-57.2h-296.5v-33.3h296.5v33.3zm0-54.1h-296.5v-35.4h296.5v35.4zm74.9,111.3h-54.1v-157.1c0-6.2-4.2-10.4-10.4-10.4h-317.3c-6.2,0-10.4,4.2-10.4,10.4v157.1h-53.1v-268.4h445.3v268.4z" fill="#d8271d"/>
      <rect width="42.7" x="72.863" y="236.425" height="20.8" fill="#d8271d"/>
      <rect width="42.7" x="147.763" y="236.425" height="20.8" fill="#d8271d"/>
      <rect width="42.7" x="222.663" y="236.425" height="20.8" fill="#d8271d"/>
      <rect width="42.7" x="298.663" y="236.425" height="20.8" fill="#d8271d"/>
      <rect width="42.7" x="373.562" y="236.425" height="20.8" fill="#d8271d"/>
    </g>
  </g>
</svg>
