<?xml version="1.0" encoding="utf-8"?>
<!-- Generator: Adobe Illustrator 16.0.0, SVG Export Plug-In . SVG Version: 6.00 Build 0)  -->
<!DOCTYPE svg PUBLIC "-//W3C//DTD SVG 1.1 Basic//EN" "http://www.w3.org/Graphics/SVG/1.1/DTD/svg11-basic.dtd">
<svg version="1.1" baseProfile="basic" id="Layer_1"
	 xmlns="http://www.w3.org/2000/svg" xmlns:xlink="http://www.w3.org/1999/xlink" x="0px" y="0px" width="115px" height="80px"
	 viewBox="0 0 115 80" xml:space="preserve">
<path fill="#E8DDC9" d="M59.544,27.079c-0.099,0.052-0.214,0.063-0.313,0.013c-0.851-0.429-3.826-1.593-5.282-4.956
	c-0.651-1.505-0.062-3.638,0.19-4.203c1.061-2.356,2.859-3.596,4.636-4.096c1.901-0.534,2.521,2.518,3.697,1.923
	c0.741-0.375,1.297-0.649,1.974,1.221c0.567,1.57,0.765,3.075,0.613,3.875C64.699,22.759,63.231,25.139,59.544,27.079"/>
<path fill="#E8DDC9" d="M62.36,14.337c-0.008,0.534-0.271,0.333-0.402,0.214c-2.034-1.841-2.353-2.173-3.992-1.946
	c-1.283,0.177-2.739,1.254-3.71,2.316c-1.146,1.256-1.791,2.785-1.892,4.226c-0.161,2.271,0.775,3.577,1.467,4.4
	c0.086,0.102-0.028,0.25-0.149,0.195c-1.886-0.842-3.891-2.808-5.191-4.96c-1.933-3.202-2.183-7.229,0.03-6.898
	c0.296-4.901,4.853-5.039,6.551-3.736c0.663,0.508,1.496,0.745,2.331,0.76C62.35,8.996,62.385,12.872,62.36,14.337"/>
<path fill="#E8DDC9" d="M46.921,19.075c1.456,2.119,2.653,3.081,3.534,4.407c0.358-1.058,1.852,0.331,2.65,1.405
	c0.75,1.009,3.266,2.896,6.104,3.64c0.31,0.081,0.194,0.396-0.042,0.417c-1.81,0.162-3.62,0.373-5.425,0.335
	c-9.045,0.003-10.521-5.562-10.755-7.468c-0.32-2.613,1.419-7.615,2.641-7.469C46.083,14.394,45.72,17.326,46.921,19.075"/>
<path fill="#E8DDC9" d="M60.137,27.755c5.314-0.808,7.547-6.06,8.093-4.273c0.257-0.063,0.886-1.254,1.841-1.991
	c0.716-0.552,1.704-1.116,2.202-1.683c1.167-1.32,0.944-2.371,1.313-2.292c0.884,0.187,1.622,2.679,0.918,5.694
	c-0.41,1.755-1.438,3.463-2.699,4.314c-3.278,2.217-8.809,1.365-11.694,0.469C59.938,27.94,60.008,27.774,60.137,27.755"/>
<path fill="#E8DDC9" d="M57.055,30.642c0.049,0.005,0.07,0.065,0.041,0.104c-0.409,0.57-0.15,1.447-0.098,1.309
	c0.251-0.66,0.674-1.081,0.906-1.005c0.398,0.13,0.567,1.191,0.584,1.743c0.093,2.929,0.08,5.802,0.091,8.733
	c0.03,8.524-0.064,16.056-0.054,24.58c0.006,3.361,0.004,9.71,0.002,11.33c0,0.151,0.177,0.229,0.291,0.131l1.699-1.479
	c0.046-0.039,0.069-0.095,0.063-0.153c-0.094-1.086-0.994-11.841-0.99-28.494c0.013-2.466,0.177-11.19,0.342-13.653
	c0.082-1.213,0.16-3.093,1.193-3.199c0.547-0.056,1.386,0.327,1.638,0.746c0.141,0.232,0.131-1.37-1.395-1.428
	c-1.416-0.052-2.803-0.158-4.255,0.027c-1.738,0.221-1.759,1.514-1.703,1.754C55.44,31.811,55.996,30.514,57.055,30.642"/>
<path fill="#E8DDC9" d="M63.66,12.366c-0.067,0.086-0.206,0.067-0.237-0.038c-0.295-1.009-0.25-2.212,0.202-3.025
	c0.258-0.461,0.516-0.815,1.112-0.878c0.836-0.089,1.244,0.45,2.095,0.283c1.315-0.259,2.019-0.479,3.034,0.285
	c1.517,1.139,2.821,2.337,2.905,4.021c0.981-0.522,1.195,1.531,0.835,2.59c-0.416,1.219-1.223,2.51-3.256,3.75
	c-0.128,0.077-0.305-0.051-0.246-0.189c0.29-0.664,0.903-3.358,0.53-5.201c-0.227-1.124-0.633-1.839-2.398-2.144
	c-0.381-0.065-1.218,0.146-1.687,0.004C65.321,11.453,64.615,11.141,63.66,12.366"/>
<path fill="#E8DDC9" d="M65.796,23.357c-0.141,0.101-0.313-0.062-0.227-0.212c1.047-1.766,0.886-3.672,0.596-5.633
	C65.943,16,65.375,14.1,63.187,14.1c-0.172,0-0.196-0.099-0.167-0.205c0.321-1.139,1.312-1.424,1.927-1.239
	c0.484,0.147,1.19,0.365,1.647,0.177c1.033-0.427,1.983-0.117,2.57,0.714c0.92,1.3,0.507,3.329,0.13,4.975
	C68.882,20.324,67.179,22.359,65.796,23.357"/>
<path fill="#E8DDC9" d="M62.309,10.277c-1.361-1.875-3.16-2.401-5.986-2.258c-0.164,0.008-0.195-0.101-0.153-0.201
	c0.584-1.398,2.426-2.2,3.65-1.443c0.304,0.187,0.695,0.525,1.04,0.543c1.929,0.097,2.271,2.369,1.664,3.329
	C62.407,10.432,62.367,10.36,62.309,10.277"/>
<path fill="#999385" d="M13.085,42.943c0.615,0.535,0.921,1.288,0.921,2.264c0,1.025-0.31,1.822-0.927,2.388
	c-0.618,0.568-1.485,0.853-2.603,0.853H8.725v2.521H6.733v-8.824h3.744C11.603,42.144,12.473,42.41,13.085,42.943 M11.668,46.398
	c0.298-0.257,0.448-0.633,0.448-1.128c0-0.487-0.149-0.855-0.448-1.104c-0.298-0.247-0.729-0.372-1.292-0.372H8.725v2.987h1.651
	C10.938,46.782,11.37,46.654,11.668,46.398"/>
<path fill="#999385" d="M22.446,48.818c0.356,0.365,0.834,0.549,1.43,0.549c0.581,0,1.042-0.182,1.388-0.542
	c0.344-0.362,0.516-0.861,0.516-1.499v-5.183h1.992v5.183c0,0.771-0.158,1.44-0.473,2.009c-0.315,0.568-0.767,1.004-1.355,1.312
	c-0.587,0.307-1.281,0.459-2.08,0.459c-0.798,0-1.496-0.152-2.093-0.459c-0.597-0.308-1.054-0.743-1.374-1.312
	c-0.318-0.568-0.479-1.237-0.479-2.009v-5.183h1.992v5.183C21.91,47.955,22.088,48.453,22.446,48.818"/>
<path fill="#999385" d="M39.773,50.969l-1.399-2.522h-2.029v2.522h-1.992v-8.825h3.832c1.151,0,2.042,0.268,2.672,0.801
	c0.63,0.532,0.945,1.287,0.945,2.263c0,0.681-0.141,1.263-0.422,1.746c-0.281,0.483-0.691,0.851-1.229,1.103l1.878,2.913H39.773z
	 M36.344,46.782h1.84c0.555,0,0.98-0.128,1.279-0.383c0.299-0.258,0.449-0.634,0.449-1.129c0-0.487-0.149-0.855-0.449-1.104
	c-0.298-0.247-0.724-0.371-1.279-0.371h-1.84V46.782z"/>
<polygon fill="#999385" points="48.269,42.144 54.987,42.144 54.987,43.796 50.261,43.796 50.261,45.711 54.509,45.711 
	54.509,47.361 50.261,47.361 50.261,49.317 55.127,49.317 55.127,50.968 48.269,50.968 "/>
<polygon fill="#999385" points="83.84,50.968 82.769,50.968 79.429,46.683 77.638,48.623 77.638,50.968 76.769,50.968 
	76.769,42.144 77.638,42.144 77.638,47.515 82.528,42.144 83.588,42.144 80.045,46.001 "/>
<rect x="91.315" y="42.157" fill="#999385" width="0.87" height="8.811"/>
<polygon fill="#999385" points="107.147,42.156 108.006,42.156 108.006,50.968 107.084,50.968 101.626,43.505 101.626,50.968 
	100.756,50.968 100.756,42.156 101.678,42.156 107.147,49.619 "/>
<path fill="#999385" d="M68.196,43.53c0,0-0.988-0.7-2.615-0.7c-0.776,0-1.784,0.348-1.784,1.417c0,1.071,0.959,1.373,2.587,1.868
	c1.826,0.555,2.431,1.248,2.431,2.546c0,1.218-1.136,2.306-3.164,2.306s-3.304-1.335-3.304-1.335l0.403-0.719
	c0,0,1.264,1.235,2.912,1.235c1.649,0,2.194-0.863,2.194-1.513s-0.331-1.372-2.282-1.89c-1.952-0.522-2.781-1.227-2.735-2.522
	c0.047-1.297,1.006-2.205,2.742-2.218c1.778-0.014,2.994,0.781,2.994,0.781L68.196,43.53z"/>
</svg>
