<?xml version="1.0" encoding="utf-8"?>
<!-- Generator: Adobe Illustrator 16.0.0, SVG Export Plug-In . SVG Version: 6.00 Build 0)  -->
<!DOCTYPE svg PUBLIC "-//W3C//DTD SVG 1.1//EN" "http://www.w3.org/Graphics/SVG/1.1/DTD/svg11.dtd">
<svg version="1.1" id="Layer_1" xmlns="http://www.w3.org/2000/svg" xmlns:xlink="http://www.w3.org/1999/xlink" x="0px" y="0px"
	 width="296px" height="20.833px" viewBox="0 0 296 20.833" enable-background="new 0 0 296 20.833" xml:space="preserve">
<g>
	<line fill="none" stroke="#DEDDDD" stroke-linecap="round" stroke-miterlimit="10" x1="0" y1="2" x2="295" y2="2"/>
</g>
<g>
	<g>
		<g>
			
				<path fill="none" stroke="#DEDDDD" stroke-width="1.1065" stroke-linecap="round" stroke-linejoin="round" stroke-miterlimit="10" d="
				M158.542,5.035c-0.253-0.517-0.075-1.457,0.429-2.006c0.633-0.69,1.74-0.878,2.702-0.125c1.705,1.33,0.195,3.887-1.371,3.161"/>
			
				<path fill="none" stroke="#DEDDDD" stroke-width="1.1065" stroke-linecap="round" stroke-linejoin="round" stroke-miterlimit="10" d="
				M162.462,4.647c0,0,0.251,3.144,3.245,3.144c1.71,0,2.979-1.164,3.112-2.704c0.1-1.156-0.443-2.714-1.887-3.099
				c-2.806-0.749-3.389,2.893-1.558,2.902"/>
		</g>
		
			<path fill="none" stroke="#DEDDDD" stroke-width="1.1065" stroke-linecap="round" stroke-linejoin="round" stroke-miterlimit="10" d="
			M177.957,5.228c-1.938-2.219-4.198,1.118-1.815,2.904c1.693,1.271,4.962,0.242,4.72-2.904c-0.29-3.784-4.6-3.512-4.6-3.512
			c-1.815,3.027-7.441,3.371-7.441,3.371s3.502-0.491,3.811,2.238c0.242,2.139-2.3,3.591-4.116,1.654"/>
	</g>
	
		<circle fill="none" stroke="#DEDDDD" stroke-width="1.1065" stroke-linecap="round" stroke-linejoin="round" stroke-miterlimit="10" cx="156.396" cy="9.459" r="5.076"/>
	<g>
		<g>
			
				<path fill="none" stroke="#DEDDDD" stroke-width="1.1065" stroke-linecap="round" stroke-linejoin="round" stroke-miterlimit="10" d="
				M151.457,5.035c0.253-0.517,0.076-1.457-0.429-2.006c-0.632-0.69-1.74-0.878-2.702-0.125c-1.706,1.33-0.195,3.887,1.372,3.161"/>
			
				<path fill="none" stroke="#DEDDDD" stroke-width="1.1065" stroke-linecap="round" stroke-linejoin="round" stroke-miterlimit="10" d="
				M147.536,4.647c0,0-0.25,3.144-3.244,3.144c-1.711,0-2.979-1.164-3.113-2.704c-0.1-1.156,0.443-2.714,1.887-3.099
				c2.806-0.749,3.388,2.893,1.558,2.902"/>
		</g>
		
			<path fill="none" stroke="#DEDDDD" stroke-width="1.1065" stroke-linecap="round" stroke-linejoin="round" stroke-miterlimit="10" d="
			M132.042,5.228c1.938-2.219,4.198,1.118,1.816,2.904c-1.694,1.271-4.962,0.242-4.721-2.904c0.291-3.784,4.6-3.512,4.6-3.512
			c1.816,3.027,7.442,3.371,7.442,3.371s-3.502-0.491-3.811,2.238c-0.242,2.139,2.3,3.591,4.116,1.654"/>
	</g>
	
		<circle fill="none" stroke="#DEDDDD" stroke-width="1.1065" stroke-linecap="round" stroke-linejoin="round" stroke-miterlimit="10" cx="153.602" cy="9.459" r="5.076"/>
</g>
</svg>
