<?xml version="1.0" encoding="utf-8"?>
<!-- Generator: Adobe Illustrator 21.1.0, SVG Export Plug-In . SVG Version: 6.00 Build 0)  -->
<svg version="1.1" baseProfile="basic" id="Layer_1"
	 xmlns="http://www.w3.org/2000/svg" xmlns:xlink="http://www.w3.org/1999/xlink" x="0px" y="0px" viewBox="0 0 230 64"
	 xml:space="preserve">
<style type="text/css">
	.st0{fill:#FFFFFF;}
	.st1{fill:#FFFFFF;stroke:#1A1A18;stroke-width:1.5101;stroke-linecap:round;stroke-miterlimit:10;}
</style>
<g>
	<g>
		<line class="st0" x1="11.3" y1="53.3" x2="11.3" y2="11.6"/>
		<path class="st0" d="M11.3,54.1c-0.4,0-0.8-0.3-0.8-0.8V11.6c0-0.4,0.3-0.8,0.8-0.8s0.8,0.3,0.8,0.8v41.7
			C12.1,53.7,11.7,54.1,11.3,54.1z"/>
	</g>
	<g>
		<line class="st0" x1="69.5" y1="53.4" x2="69.6" y2="11.7"/>
		<path class="st0" d="M69.5,54.2C69.5,54.2,69.5,54.2,69.5,54.2c-0.4,0-0.8-0.3-0.8-0.8l0.1-41.7c0-0.4,0.3-0.8,0.8-0.8
			c0,0,0,0,0,0c0.4,0,0.8,0.3,0.8,0.8l-0.1,41.7C70.3,53.8,69.9,54.2,69.5,54.2z"/>
	</g>
	<g>
		<polyline class="st0" points="19.2,17.2 40.5,2 61.2,17 		"/>
		<path class="st0" d="M19.2,18c-0.2,0-0.5-0.1-0.6-0.3c-0.2-0.3-0.2-0.8,0.2-1.1L40.5,1.1l21.1,15.3c0.3,0.2,0.4,0.7,0.2,1.1
			c-0.2,0.3-0.7,0.4-1.1,0.2L40.5,2.9L19.6,17.8C19.5,17.9,19.4,18,19.2,18z"/>
	</g>
	<g>
		<polyline class="st0" points="53.9,42.1 53.9,22.9 40.5,13.3 		"/>
		<path class="st0" d="M53.9,42.9c-0.4,0-0.8-0.3-0.8-0.8V23.3l-13.1-9.4c-0.3-0.2-0.4-0.7-0.2-1.1c0.2-0.3,0.7-0.4,1.1-0.2
			l13.7,9.8v19.6C54.7,42.5,54.3,42.9,53.9,42.9z"/>
	</g>
	<g>
		<polyline class="st0" points="40.4,51.7 27,42.1 27,22.9 		"/>
		<path class="st0" d="M40.4,52.5c-0.2,0-0.3,0-0.4-0.1l-13.7-9.8V22.9c0-0.4,0.3-0.8,0.8-0.8s0.8,0.3,0.8,0.8v18.8l13.1,9.4
			c0.3,0.2,0.4,0.7,0.2,1.1C40.9,52.3,40.6,52.5,40.4,52.5z"/>
	</g>
	<g>
		<line class="st0" x1="69.5" y1="53.4" x2="11.3" y2="11.6"/>
		<path class="st0" d="M69.5,54.2c-0.2,0-0.3,0-0.4-0.1L10.9,12.2c-0.3-0.2-0.4-0.7-0.2-1.1c0.2-0.3,0.7-0.4,1.1-0.2l58.2,41.8
			c0.3,0.2,0.4,0.7,0.2,1.1C70,54,69.7,54.2,69.5,54.2z"/>
	</g>
	<g>
		<line class="st0" x1="69.5" y1="11.5" x2="11.3" y2="53.3"/>
		<path class="st0" d="M11.3,54.1c-0.2,0-0.5-0.1-0.6-0.3c-0.2-0.3-0.2-0.8,0.2-1.1l58.2-41.8c0.3-0.2,0.8-0.2,1.1,0.2
			c0.2,0.3,0.2,0.8-0.2,1.1L11.7,53.9C11.6,54,11.5,54.1,11.3,54.1z"/>
	</g>
	<g>
		<line class="st0" x1="69.6" y1="11.7" x2="69.5" y2="53.4"/>
		<path class="st0" d="M69.5,54.2C69.5,54.2,69.5,54.2,69.5,54.2c-0.4,0-0.8-0.3-0.8-0.8l0.1-41.7c0-0.4,0.3-0.8,0.8-0.8
			c0,0,0,0,0,0c0.4,0,0.8,0.3,0.8,0.8l-0.1,41.7C70.3,53.8,69.9,54.2,69.5,54.2z"/>
	</g>
	<g>
		<polyline class="st0" points="61.7,47.8 40.4,63 19.7,48 		"/>
		<path class="st0" d="M40.4,63.9L19.3,48.6c-0.3-0.2-0.4-0.7-0.2-1.1c0.2-0.3,0.7-0.4,1.1-0.2l20.3,14.7l20.9-14.9
			c0.3-0.2,0.8-0.2,1.1,0.2c0.2,0.3,0.2,0.8-0.2,1.1L40.4,63.9z"/>
	</g>
	<g>
		<path class="st1" d="M40.4,53.8"/>
	</g>
</g>
<g>
	<g>
		<path class="st0" d="M102.8,21.9c-1-0.7-2.2-1.2-3.4-1.6c-1.2-0.4-2.5-0.6-3.7-0.6c-1.8,0-3.2,0.4-4.3,1.1
			c-1.1,0.7-1.7,1.9-1.7,3.6c0,0.9,0.2,1.6,0.6,2.2s0.9,1.2,1.5,1.6s1.4,0.8,2.2,1.2c0.8,0.3,1.7,0.7,2.6,1c1,0.3,2,0.7,3,1.1
			s1.9,0.9,2.7,1.5c0.8,0.6,1.5,1.4,2,2.3c0.5,0.9,0.8,2,0.8,3.4s-0.3,2.6-0.8,3.6s-1.3,1.8-2.1,2.5c-0.9,0.6-1.9,1.1-3.1,1.4
			c-1.2,0.3-2.3,0.5-3.6,0.5c-1.8,0-3.5-0.3-5.3-0.9c-1.7-0.6-3.2-1.5-4.4-2.8l0.9-2.4c1.2,1.1,2.6,2,4.2,2.6s3.1,0.9,4.7,0.9
			c0.9,0,1.7-0.1,2.5-0.3s1.5-0.5,2.1-0.9s1.1-0.9,1.4-1.5c0.4-0.6,0.5-1.4,0.5-2.2c0-0.9-0.2-1.8-0.6-2.4c-0.5-0.7-1.1-1.3-1.8-1.8
			c-0.7-0.5-1.6-0.9-2.5-1.3c-0.9-0.4-1.8-0.7-2.7-1c-1-0.3-1.9-0.7-2.9-1.2c-0.9-0.5-1.8-1.1-2.5-1.7s-1.3-1.4-1.8-2.2
			c-0.4-0.8-0.7-1.8-0.7-2.8c0-1.3,0.3-2.5,0.8-3.4c0.5-1,1.2-1.7,2-2.4c0.8-0.6,1.8-1.1,2.9-1.3c1.1-0.3,2.2-0.4,3.3-0.4
			c1.4,0,2.8,0.2,4.2,0.6c1.4,0.4,2.6,0.9,3.6,1.6L102.8,21.9z"/>
	</g>
	<g>
		<path class="st0" d="M127.5,20.2H119v25.9h-2.8V20.2h-8.5v-2.4h19.8V20.2z"/>
	</g>
	<g>
		<path class="st0" d="M131.1,17.7h2.8v18.5c0,1.1,0.1,2.1,0.4,3c0.3,0.9,0.7,1.8,1.3,2.5s1.4,1.3,2.3,1.7c0.9,0.4,2.1,0.6,3.4,0.6
			c1.3,0,2.5-0.2,3.4-0.6c0.9-0.4,1.7-1,2.3-1.7s1.1-1.6,1.3-2.5c0.3-0.9,0.4-2,0.4-3V17.7h2.8v18.4c0,1.8-0.3,3.4-0.9,4.7
			c-0.6,1.3-1.4,2.4-2.3,3.3c-1,0.9-2.1,1.5-3.3,1.9s-2.5,0.6-3.8,0.6s-2.6-0.2-3.8-0.6c-1.2-0.4-2.3-1-3.3-1.9s-1.7-1.9-2.3-3.2
			s-0.9-2.9-0.9-4.7V17.7H131.1z"/>
	</g>
	<g>
		<path class="st0" d="M179.5,32c0,2.2-0.3,4.2-0.8,5.9c-0.6,1.7-1.4,3.2-2.6,4.4c-1.2,1.2-2.6,2.1-4.4,2.8c-1.8,0.6-3.9,1-6.3,1
			h-7.3V31.9V17.8h7.3c2.4,0,4.5,0.3,6.3,1s3.2,1.6,4.4,2.8c1.1,1.2,2,2.7,2.6,4.4C179.3,27.8,179.5,29.7,179.5,32L179.5,32z
			 M165.5,43.6c3.7,0,6.5-1,8.4-3.1s2.8-5,2.9-8.6l0,0c0-2-0.3-3.8-0.8-5.2c-0.5-1.5-1.3-2.7-2.3-3.6s-2.2-1.6-3.6-2.1
			c-1.4-0.4-2.9-0.7-4.6-0.7H161v23.4L165.5,43.6L165.5,43.6z"/>
	</g>
	<g>
		<path class="st0" d="M185.3,17.7h2.8V46h-2.8V17.7z"/>
	</g>
	<g>
		<path class="st0" d="M206,17.2c1.3,0,2.6,0.2,4.1,0.6s2.8,1.2,4,2.3c1.2,1.1,2.3,2.6,3.1,4.5s1.2,4.3,1.2,7.2
			c0,2.9-0.4,5.3-1.2,7.3c-0.8,1.9-1.8,3.4-3.1,4.6c-1.2,1.1-2.6,1.9-4,2.4c-1.5,0.4-2.8,0.7-4.1,0.7s-2.7-0.2-4.1-0.7
			c-1.5-0.4-2.8-1.2-4.1-2.4c-1.2-1.1-2.3-2.6-3.1-4.6c-0.8-1.9-1.2-4.3-1.2-7.3c0-2.9,0.4-5.3,1.2-7.2c0.8-1.9,1.9-3.4,3.1-4.5
			c1.2-1.1,2.6-1.9,4.1-2.3C203.3,17.4,204.7,17.2,206,17.2z M206,44.1c1.2,0,2.4-0.2,3.6-0.7c1.1-0.4,2.2-1.2,3.1-2.2
			c0.9-1,1.6-2.3,2.1-3.8c0.5-1.6,0.8-3.4,0.8-5.7c0-2.2-0.3-4-0.8-5.6c-0.5-1.5-1.3-2.8-2.1-3.8c-0.9-1-1.9-1.7-3.1-2.2
			c-1.2-0.5-2.3-0.7-3.6-0.7c-1.2,0-2.4,0.2-3.6,0.7c-1.2,0.5-2.2,1.2-3.1,2.2c-0.9,1-1.6,2.3-2.2,3.8c-0.6,1.6-0.9,3.4-0.9,5.6
			s0.3,4.1,0.9,5.6c0.6,1.5,1.3,2.8,2.2,3.8s1.9,1.7,3.1,2.1C203.6,43.9,204.8,44.1,206,44.1z"/>
	</g>
</g>
<g>
	<line class="st0" x1="138.2" y1="60.3" x2="165.8" y2="60.3"/>
	<path class="st0" d="M165.8,61.1h-27.6c-0.4,0-0.8-0.3-0.8-0.8s0.3-0.8,0.8-0.8h27.6c0.4,0,0.8,0.3,0.8,0.8S166.2,61.1,165.8,61.1z
		"/>
</g>
<g>
	<line class="st0" x1="138.2" y1="4.7" x2="165.8" y2="4.7"/>
	<path class="st0" d="M165.8,5.5h-27.6c-0.4,0-0.8-0.3-0.8-0.8s0.3-0.8,0.8-0.8h27.6c0.4,0,0.8,0.3,0.8,0.8S166.2,5.5,165.8,5.5z"/>
</g>
</svg>
