<?xml version="1.0" encoding="utf-8"?>
<!-- Generator: Adobe Illustrator 21.1.0, SVG Export Plug-In . SVG Version: 6.00 Build 0)  -->
<svg version="1.1" baseProfile="basic" id="Layer_1"
	 xmlns="http://www.w3.org/2000/svg" xmlns:xlink="http://www.w3.org/1999/xlink" x="0px" y="0px" viewBox="0 0 230 64"
	 xml:space="preserve">
<style type="text/css">
	.st0{fill:none;stroke:#1A1A18;stroke-width:1.5101;stroke-linecap:round;stroke-miterlimit:10;}
	.st1{fill:#1A1A18;}
</style>
<g>
	<g>
		<line class="st0" x1="11.3" y1="53.3" x2="11.3" y2="11.6"/>
		<line class="st0" x1="69.5" y1="53.4" x2="69.6" y2="11.7"/>
		<polyline class="st0" points="19.2,17.2 40.5,2 61.2,17 		"/>
		<polyline class="st0" points="53.9,42.1 53.9,22.9 40.5,13.3 		"/>
		<polyline class="st0" points="40.4,51.7 27,42.1 27,22.9 		"/>
		<line class="st0" x1="69.5" y1="53.4" x2="11.3" y2="11.6"/>
		<line class="st0" x1="69.5" y1="11.5" x2="11.3" y2="53.3"/>
		<line class="st0" x1="69.6" y1="11.7" x2="69.5" y2="53.4"/>
		<polyline class="st0" points="61.7,47.8 40.4,63 19.7,48 		"/>
		<path class="st0" d="M40.4,53.8"/>
	</g>
	<g>
		<path class="st1" d="M102.8,21.9c-1-0.7-2.2-1.2-3.4-1.6c-1.2-0.4-2.5-0.6-3.7-0.6c-1.8,0-3.2,0.4-4.3,1.1
			c-1.1,0.7-1.7,1.9-1.7,3.6c0,0.9,0.2,1.6,0.6,2.2c0.4,0.6,0.9,1.2,1.5,1.6c0.6,0.4,1.4,0.8,2.2,1.2c0.8,0.3,1.7,0.7,2.6,1
			c1,0.3,2,0.7,3,1.1c1,0.4,1.9,0.9,2.7,1.5c0.8,0.6,1.5,1.4,2,2.3c0.5,0.9,0.8,2,0.8,3.4c0,1.4-0.3,2.6-0.8,3.6s-1.3,1.8-2.1,2.5
			c-0.9,0.6-1.9,1.1-3.1,1.4c-1.2,0.3-2.3,0.5-3.6,0.5c-1.8,0-3.5-0.3-5.3-0.9c-1.7-0.6-3.2-1.5-4.4-2.8l0.9-2.4
			c1.2,1.1,2.6,2,4.2,2.6c1.6,0.6,3.1,0.9,4.7,0.9c0.9,0,1.7-0.1,2.5-0.3c0.8-0.2,1.5-0.5,2.1-0.9c0.6-0.4,1.1-0.9,1.4-1.5
			c0.4-0.6,0.5-1.4,0.5-2.2c0-0.9-0.2-1.8-0.6-2.4c-0.5-0.7-1.1-1.3-1.8-1.8c-0.7-0.5-1.6-0.9-2.5-1.3c-0.9-0.4-1.8-0.7-2.7-1
			c-1-0.3-1.9-0.7-2.9-1.2c-0.9-0.5-1.8-1.1-2.5-1.7c-0.7-0.6-1.3-1.4-1.8-2.2c-0.4-0.8-0.7-1.8-0.7-2.8c0-1.3,0.3-2.5,0.8-3.4
			c0.5-1,1.2-1.7,2-2.4c0.8-0.6,1.8-1.1,2.9-1.3c1.1-0.3,2.2-0.4,3.3-0.4c1.4,0,2.8,0.2,4.2,0.6c1.4,0.4,2.6,0.9,3.6,1.6L102.8,21.9
			z"/>
		<path class="st1" d="M127.5,20.2H119v25.9h-2.8V20.2h-8.5v-2.4h19.8V20.2z"/>
		<path class="st1" d="M131.1,17.7h2.8v18.5c0,1.1,0.1,2.1,0.4,3c0.3,0.9,0.7,1.8,1.3,2.5c0.6,0.7,1.4,1.3,2.3,1.7
			c0.9,0.4,2.1,0.6,3.4,0.6c1.3,0,2.5-0.2,3.4-0.6c0.9-0.4,1.7-1,2.3-1.7c0.6-0.7,1.1-1.6,1.3-2.5c0.3-0.9,0.4-2,0.4-3V17.7h2.8
			v18.4c0,1.8-0.3,3.4-0.9,4.7c-0.6,1.3-1.4,2.4-2.3,3.3c-1,0.9-2.1,1.5-3.3,1.9c-1.2,0.4-2.5,0.6-3.8,0.6c-1.3,0-2.6-0.2-3.8-0.6
			c-1.2-0.4-2.3-1-3.3-1.9c-1-0.9-1.7-1.9-2.3-3.2c-0.6-1.3-0.9-2.9-0.9-4.7V17.7z"/>
		<path class="st1" d="M179.5,32c0,2.2-0.3,4.2-0.8,5.9c-0.6,1.7-1.4,3.2-2.6,4.4c-1.2,1.2-2.6,2.1-4.4,2.8c-1.8,0.6-3.9,1-6.3,1
			h-7.3V31.9V17.8h7.3c2.4,0,4.5,0.3,6.3,1c1.8,0.7,3.2,1.6,4.4,2.8c1.1,1.2,2,2.7,2.6,4.4C179.3,27.8,179.5,29.7,179.5,32L179.5,32
			z M165.5,43.6c3.7,0,6.5-1,8.4-3.1c1.9-2.1,2.8-5,2.9-8.6v0c0-2-0.3-3.8-0.8-5.2c-0.5-1.5-1.3-2.7-2.3-3.6c-1-0.9-2.2-1.6-3.6-2.1
			c-1.4-0.4-2.9-0.7-4.6-0.7H161v23.4H165.5z"/>
		<path class="st1" d="M185.3,17.7h2.8v28.3h-2.8V17.7z"/>
		<path class="st1" d="M206,17.2c1.3,0,2.6,0.2,4.1,0.6c1.5,0.4,2.8,1.2,4,2.3c1.2,1.1,2.3,2.6,3.1,4.5c0.8,1.9,1.2,4.3,1.2,7.2
			c0,2.9-0.4,5.3-1.2,7.3c-0.8,1.9-1.8,3.4-3.1,4.6c-1.2,1.1-2.6,1.9-4,2.4c-1.5,0.4-2.8,0.7-4.1,0.7c-1.3,0-2.7-0.2-4.1-0.7
			c-1.5-0.4-2.8-1.2-4.1-2.4c-1.2-1.1-2.3-2.6-3.1-4.6c-0.8-1.9-1.2-4.3-1.2-7.3c0-2.9,0.4-5.3,1.2-7.2c0.8-1.9,1.9-3.4,3.1-4.5
			c1.2-1.1,2.6-1.9,4.1-2.3C203.3,17.4,204.7,17.2,206,17.2z M206,44.1c1.2,0,2.4-0.2,3.6-0.7c1.1-0.4,2.2-1.2,3.1-2.2
			c0.9-1,1.6-2.3,2.1-3.8c0.5-1.6,0.8-3.4,0.8-5.7c0-2.2-0.3-4-0.8-5.6c-0.5-1.5-1.3-2.8-2.1-3.8c-0.9-1-1.9-1.7-3.1-2.2
			c-1.2-0.5-2.3-0.7-3.6-0.7c-1.2,0-2.4,0.2-3.6,0.7c-1.2,0.5-2.2,1.2-3.1,2.2c-0.9,1-1.6,2.3-2.2,3.8c-0.6,1.6-0.9,3.4-0.9,5.6
			c0,2.2,0.3,4.1,0.9,5.6c0.6,1.5,1.3,2.8,2.2,3.8c0.9,1,1.9,1.7,3.1,2.1C203.6,43.9,204.8,44.1,206,44.1z"/>
	</g>
	<line class="st0" x1="138.2" y1="60.3" x2="165.8" y2="60.3"/>
	<line class="st0" x1="138.2" y1="4.7" x2="165.8" y2="4.7"/>
</g>
</svg>
