<?xml version="1.0" encoding="utf-8"?>
<!-- Generator: Adobe Illustrator 16.0.0, SVG Export Plug-In . SVG Version: 6.00 Build 0)  -->
<!DOCTYPE svg PUBLIC "-//W3C//DTD SVG 1.1//EN" "http://www.w3.org/Graphics/SVG/1.1/DTD/svg11.dtd">
<svg version="1.1" id="Layer_1" xmlns="http://www.w3.org/2000/svg" xmlns:xlink="http://www.w3.org/1999/xlink" x="0px" y="0px"
	 width="207px" height="30.921px" viewBox="0 0 207 30.921" enable-background="new 0 0 207 30.921" xml:space="preserve">
<rect x="123" y="15.46" fill="#EADFCB" width="84" height="2"/>
<rect y="15.46" fill="#EADFCB" width="84" height="2"/>
<path fill="#E8DDC9" d="M104.125,21.997c-0.1,0.052-0.214,0.062-0.314,0.013c-0.851-0.429-3.826-1.593-5.281-4.956
	c-0.651-1.505-0.062-3.638,0.189-4.203c1.062-2.356,2.859-3.596,4.637-4.096c1.9-0.534,2.521,2.518,3.697,1.923
	c0.74-0.375,1.297-0.649,1.973,1.221c0.568,1.57,0.766,3.075,0.613,3.875C109.279,17.676,107.811,20.057,104.125,21.997"/>
<path fill="#E8DDC9" d="M106.939,9.254c-0.008,0.534-0.27,0.333-0.4,0.214c-2.035-1.841-2.354-2.173-3.993-1.946
	c-1.282,0.177-2.739,1.254-3.71,2.316c-1.146,1.256-1.791,2.785-1.893,4.226c-0.16,2.271,0.775,3.577,1.468,4.4
	c0.086,0.103-0.028,0.25-0.149,0.195c-1.886-0.843-3.891-2.809-5.19-4.96c-1.933-3.202-2.183-7.229,0.03-6.898
	c0.296-4.901,4.853-5.039,6.551-3.736c0.662,0.508,1.496,0.745,2.33,0.76C106.93,3.913,106.965,7.789,106.939,9.254"/>
<path fill="#E8DDC9" d="M91.501,13.992c1.456,2.119,2.653,3.082,3.534,4.407c0.358-1.058,1.852,0.332,2.65,1.406
	c0.75,1.008,3.266,2.896,6.104,3.639c0.31,0.082,0.193,0.396-0.042,0.418c-1.81,0.162-3.62,0.373-5.425,0.334
	c-9.045,0.004-10.521-5.562-10.755-7.468c-0.32-2.613,1.419-7.615,2.641-7.469C90.664,9.311,90.301,12.243,91.501,13.992"/>
<path fill="#E8DDC9" d="M104.717,22.672c5.314-0.809,7.548-6.061,8.095-4.273c0.256-0.062,0.885-1.254,1.84-1.99
	c0.717-0.553,1.705-1.117,2.203-1.684c1.166-1.32,0.943-2.371,1.312-2.292c0.885,0.187,1.621,2.679,0.918,5.694
	c-0.41,1.755-1.438,3.463-2.699,4.314c-3.277,2.217-8.81,1.365-11.694,0.469C104.518,22.858,104.588,22.692,104.717,22.672"/>
<path fill="#E8DDC9" d="M101.635,25.559c0.049,0.006,0.07,0.065,0.041,0.104c-0.408,0.569-0.15,1.446-0.098,1.31
	c0.251-0.66,0.674-1.082,0.906-1.006c0.397,0.131,0.566,1.191,0.584,1.743c0.093,2.929,0.08,5.802,0.091,8.732
	c0.03,8.524-0.063,16.056-0.054,24.579c0.006,3.361,0.004,9.711,0.002,11.33c0,0.152,0.177,0.23,0.291,0.131l1.699-1.479
	c0.045-0.039,0.068-0.094,0.062-0.152c-0.094-1.086-0.994-11.842-0.99-28.493c0.014-2.467,0.178-11.19,0.342-13.653
	c0.082-1.213,0.16-3.094,1.193-3.199c0.547-0.056,1.387,0.327,1.639,0.746c0.141,0.232,0.131-1.37-1.395-1.428
	c-1.416-0.053-2.804-0.158-4.255,0.027c-1.738,0.221-1.76,1.514-1.703,1.754C100.02,26.729,100.577,25.432,101.635,25.559"/>
<path fill="#E8DDC9" d="M108.24,7.283c-0.066,0.086-0.205,0.067-0.236-0.038c-0.295-1.009-0.25-2.212,0.201-3.025
	c0.258-0.461,0.516-0.815,1.111-0.878c0.838-0.089,1.244,0.45,2.096,0.283c1.315-0.259,2.021-0.479,3.034,0.285
	c1.518,1.139,2.822,2.337,2.906,4.021c0.98-0.522,1.193,1.531,0.834,2.59c-0.416,1.219-1.223,2.51-3.256,3.75
	c-0.127,0.077-0.305-0.051-0.246-0.189c0.291-0.664,0.902-3.358,0.529-5.201c-0.227-1.124-0.633-1.839-2.396-2.144
	c-0.381-0.065-1.219,0.146-1.688,0.004C109.9,6.37,109.195,6.058,108.24,7.283"/>
<path fill="#E8DDC9" d="M110.377,18.274c-0.143,0.102-0.314-0.062-0.229-0.211c1.049-1.767,0.887-3.673,0.598-5.634
	c-0.223-1.512-0.791-3.412-2.979-3.412c-0.172,0-0.195-0.099-0.168-0.205c0.322-1.139,1.312-1.424,1.928-1.239
	c0.484,0.147,1.189,0.365,1.646,0.177c1.034-0.427,1.983-0.117,2.571,0.714c0.92,1.3,0.506,3.329,0.129,4.975
	C113.462,15.241,111.761,17.276,110.377,18.274"/>
<path fill="#E8DDC9" d="M106.889,5.194c-1.359-1.875-3.16-2.401-5.985-2.258c-0.164,0.008-0.195-0.101-0.153-0.201
	c0.584-1.398,2.426-2.2,3.65-1.443c0.305,0.187,0.695,0.525,1.039,0.543c1.93,0.097,2.271,2.369,1.664,3.329
	C106.988,5.349,106.947,5.277,106.889,5.194"/>
</svg>
