<?xml version="1.0" encoding="utf-8"?>
<!-- Generator: Adobe Illustrator 16.0.0, SVG Export Plug-In . SVG Version: 6.00 Build 0)  -->
<!DOCTYPE svg PUBLIC "-//W3C//DTD SVG 1.1 Basic//EN" "http://www.w3.org/Graphics/SVG/1.1/DTD/svg11-basic.dtd">
<svg version="1.1" baseProfile="basic" id="Layer_1"
	 xmlns="http://www.w3.org/2000/svg" xmlns:xlink="http://www.w3.org/1999/xlink" x="0px" y="0px" width="64px" height="25px"
	 viewBox="0 0 64 25" xml:space="preserve">
<g>
	<path fill="#FFF200" d="M6.72,3.043c0.751,0,1.45,0.141,2.097,0.42c0.647,0.279,1.214,0.663,1.702,1.15
		c0.487,0.488,0.871,1.054,1.15,1.702c0.279,0.647,0.42,1.346,0.42,2.097v5.393H6.72c-0.735,0-1.43-0.141-2.085-0.42
		c-0.655-0.279-1.23-0.667-1.725-1.163c-0.496-0.495-0.883-1.07-1.163-1.726c-0.28-0.655-0.419-1.35-0.419-2.085
		c0-0.751,0.14-1.45,0.419-2.097C2.026,5.668,2.414,5.102,2.91,4.614c0.495-0.487,1.07-0.871,1.725-1.15
		C5.291,3.184,5.985,3.043,6.72,3.043z M9.956,11.672V8.413c0-0.447-0.084-0.867-0.251-1.258c-0.168-0.391-0.4-0.735-0.695-1.031
		C8.713,5.828,8.37,5.596,7.979,5.428C7.587,5.261,7.167,5.177,6.72,5.177c-0.448,0-0.871,0.084-1.27,0.251
		c-0.399,0.168-0.748,0.4-1.042,0.695C4.112,6.419,3.88,6.763,3.712,7.154C3.544,7.546,3.461,7.966,3.461,8.413
		c0,0.448,0.083,0.871,0.251,1.27c0.168,0.399,0.399,0.748,0.695,1.042c0.295,0.296,0.643,0.527,1.042,0.695
		c0.399,0.168,0.822,0.251,1.27,0.251H9.956z"/>
	<path fill="#FFF200" d="M14.294,4.625c0.527-0.527,1.122-0.922,1.786-1.186c0.663-0.264,1.337-0.396,2.025-0.396
		c0.687,0,1.362,0.132,2.025,0.396c0.663,0.264,1.258,0.659,1.786,1.186l0.743,0.743l-1.486,1.51l-0.767-0.743
		c-0.32-0.32-0.679-0.56-1.078-0.719c-0.4-0.16-0.807-0.24-1.223-0.24s-0.823,0.08-1.222,0.24s-0.759,0.399-1.079,0.719
		c-0.32,0.303-0.56,0.655-0.719,1.054c-0.16,0.4-0.239,0.807-0.239,1.223s0.08,0.823,0.239,1.222s0.399,0.759,0.719,1.079
		c0.639,0.639,1.406,0.958,2.301,0.958c0.432,0,0.847-0.08,1.247-0.239c0.399-0.16,0.75-0.399,1.054-0.719l0.767-0.743l1.486,1.51
		l-0.743,0.743c-0.527,0.527-1.123,0.923-1.786,1.187c-0.664,0.264-1.339,0.396-2.025,0.396c-0.688,0-1.362-0.132-2.025-0.396
		c-0.664-0.264-1.258-0.66-1.786-1.187s-0.919-1.118-1.175-1.773c-0.256-0.655-0.383-1.33-0.383-2.025
		c0-0.695,0.127-1.37,0.383-2.025S13.767,5.153,14.294,4.625z"/>
	<path fill="#FFF200" d="M37.471,3.043c0.751,0,1.449,0.141,2.097,0.42s1.218,0.663,1.713,1.15c0.496,0.488,0.883,1.054,1.163,1.702
		c0.279,0.647,0.42,1.346,0.42,2.097v5.393h-2.134V8.413c0-0.447-0.084-0.867-0.251-1.258c-0.168-0.391-0.4-0.735-0.695-1.031
		c-0.295-0.295-0.644-0.527-1.042-0.695c-0.4-0.167-0.823-0.251-1.271-0.251c-0.448,0-0.867,0.084-1.259,0.251
		c-0.391,0.168-0.734,0.4-1.03,0.695c-0.296,0.296-0.527,0.64-0.695,1.031c-0.168,0.392-0.252,0.812-0.252,1.258v5.393h-2.133V8.413
		c0-0.447-0.083-0.867-0.251-1.258c-0.168-0.391-0.4-0.735-0.695-1.031c-0.296-0.295-0.644-0.527-1.043-0.695
		c-0.399-0.167-0.824-0.251-1.271-0.251s-0.867,0.084-1.257,0.251c-0.393,0.168-0.736,0.4-1.031,0.695
		c-0.296,0.296-0.527,0.64-0.695,1.031c-0.167,0.392-0.251,0.812-0.251,1.258v5.393h-2.133V8.413c0-0.751,0.14-1.45,0.419-2.097
		c0.28-0.647,0.663-1.214,1.15-1.702c0.487-0.487,1.059-0.871,1.714-1.15c0.656-0.279,1.351-0.42,2.085-0.42
		c0.896,0,1.714,0.196,2.457,0.588c0.744,0.392,1.362,0.922,1.858,1.594c0.495-0.671,1.118-1.202,1.869-1.594
		C35.776,3.239,36.592,3.043,37.471,3.043z"/>
	<path fill="#FFF200" d="M52.066,10.019l1.51,1.51l-0.743,0.743c-0.512,0.512-1.095,0.903-1.749,1.174
		c-0.656,0.272-1.343,0.407-2.062,0.407s-1.406-0.135-2.062-0.407c-0.655-0.271-1.238-0.663-1.749-1.174
		c-0.527-0.527-0.919-1.122-1.175-1.786c-0.257-0.662-0.383-1.337-0.383-2.025c0-0.687,0.126-1.358,0.383-2.013
		c0.256-0.655,0.647-1.247,1.175-1.773c0.527-0.527,1.121-0.923,1.785-1.187c0.662-0.264,1.338-0.396,2.025-0.396
		c0.687,0,1.361,0.132,2.025,0.396c0.662,0.264,1.258,0.659,1.785,1.187l0.743,0.743l-5.968,5.968
		c0.606,0.303,1.25,0.403,1.929,0.299c0.68-0.104,1.274-0.411,1.785-0.923L52.066,10.019z M46.722,6.16
		c-0.64,0.639-0.958,1.406-0.958,2.301c0,0.496,0.11,0.967,0.334,1.414C46.29,9.683,46.581,9.392,46.974,9
		c0.391-0.392,0.806-0.807,1.245-1.247c0.44-0.439,0.863-0.859,1.271-1.258c0.407-0.399,0.722-0.711,0.946-0.935
		c-0.608-0.304-1.25-0.408-1.93-0.312C47.827,5.345,47.232,5.648,46.722,6.16z"/>
</g>
<g>
	<path fill="#FFFFFF" d="M2.059,17.608h4.152v0.813H2.874v1.63h2.849v0.814H2.874v1.626h3.338v0.814H2.059V17.608z"/>
	<path fill="#FFFFFF" d="M9.874,17.608v4.884h2.929v0.814H9.06v-5.698H9.874z"/>
	<path fill="#FFFFFF" d="M15.408,17.608h4.153v0.813h-3.338v1.63h2.849v0.814h-2.849v1.626h3.338v0.814h-4.153V17.608z"/>
	<path fill="#FFFFFF" d="M22.409,18.422c0-0.11,0.021-0.216,0.063-0.315c0.042-0.099,0.101-0.186,0.175-0.258
		c0.074-0.073,0.161-0.132,0.261-0.176c0.099-0.043,0.204-0.064,0.315-0.064h3.092c0.112,0,0.217,0.021,0.316,0.064
		c0.1,0.044,0.187,0.103,0.261,0.176c0.074,0.072,0.132,0.159,0.174,0.258c0.042,0.1,0.064,0.205,0.064,0.315v0.735h-0.815v-0.735
		h-3.092v4.07h3.092v-0.731h0.815v0.731c0,0.11-0.022,0.217-0.064,0.315c-0.042,0.1-0.1,0.187-0.174,0.26
		c-0.074,0.074-0.161,0.134-0.261,0.176c-0.099,0.042-0.204,0.063-0.316,0.063h-3.092c-0.111,0-0.216-0.021-0.315-0.063
		c-0.1-0.042-0.187-0.102-0.261-0.176c-0.074-0.073-0.132-0.16-0.175-0.26c-0.042-0.099-0.063-0.205-0.063-0.315V18.422z"/>
	<path fill="#FFFFFF" d="M29.573,17.608h4.558v0.813h-1.872v4.885h-0.815v-4.885h-1.871V17.608z"/>
	<path fill="#FFFFFF" d="M41.238,19.643c0,0.795-0.34,1.248-1.018,1.359l1.072,2.305h-0.9l-1.059-2.277h-1.783v2.277h-0.814v-5.698
		h3.119c0.922,0,1.383,0.462,1.383,1.387V19.643z M37.551,20.215h2.261c0.217,0,0.374-0.048,0.469-0.143
		c0.096-0.096,0.143-0.252,0.143-0.469v-0.569c0-0.217-0.047-0.373-0.143-0.469c-0.095-0.096-0.252-0.144-0.469-0.144h-2.261V20.215
		z"/>
	<path fill="#FFFFFF" d="M45.04,17.608v5.698h-0.814v-5.698H45.04z"/>
	<path fill="#FFFFFF" d="M48.13,18.422c0-0.11,0.021-0.216,0.063-0.315c0.043-0.099,0.101-0.186,0.175-0.258
		c0.074-0.073,0.161-0.132,0.261-0.176c0.1-0.043,0.204-0.064,0.315-0.064h3.092c0.111,0,0.216,0.021,0.315,0.064
		c0.1,0.044,0.187,0.103,0.261,0.176c0.074,0.072,0.132,0.159,0.176,0.258c0.041,0.1,0.063,0.205,0.063,0.315v0.735h-0.815v-0.735
		h-3.092v4.07h3.092v-0.731h0.815v0.731c0,0.11-0.022,0.217-0.063,0.315c-0.044,0.1-0.102,0.187-0.176,0.26
		c-0.074,0.074-0.161,0.134-0.261,0.176s-0.204,0.063-0.315,0.063h-3.092c-0.111,0-0.216-0.021-0.315-0.063
		s-0.187-0.102-0.261-0.176c-0.074-0.073-0.132-0.16-0.175-0.26c-0.042-0.099-0.063-0.205-0.063-0.315V18.422z"/>
</g>
<g>
	<path fill="#FFF200" d="M58.187,6.037h-0.348V3.338h0.92c0.234,0,0.433,0.078,0.598,0.232c0.165,0.154,0.246,0.344,0.246,0.57
		c0,0.186-0.061,0.352-0.183,0.496c-0.121,0.145-0.275,0.237-0.461,0.277l-0.008,0.011l0.757,1.097v0.015h-0.41L58.57,4.943h-0.384
		V6.037z M58.187,3.67v0.95h0.557c0.142,0,0.261-0.046,0.358-0.138c0.098-0.091,0.147-0.206,0.147-0.341
		c0-0.125-0.046-0.235-0.138-0.33C59.02,3.717,58.904,3.67,58.767,3.67H58.187z"/>
</g>
<circle fill="none" stroke="#FFF200" stroke-width="0.4358" stroke-miterlimit="10" cx="58.657" cy="4.511" r="2.76"/>
</svg>
