<?xml version="1.0" encoding="utf-8"?>
<!-- Generator: Adobe Illustrator 16.0.0, SVG Export Plug-In . SVG Version: 6.00 Build 0)  -->
<!DOCTYPE svg PUBLIC "-//W3C//DTD SVG 1.1 Basic//EN" "http://www.w3.org/Graphics/SVG/1.1/DTD/svg11-basic.dtd">
<svg version="1.1" baseProfile="basic" id="Layer_1"
	 xmlns="http://www.w3.org/2000/svg" xmlns:xlink="http://www.w3.org/1999/xlink" x="0px" y="0px" width="207px" height="30.921px"
	 viewBox="0 0 207 30.921" xml:space="preserve">
<g>
	<g>
		<circle fill="#EADFCB" cx="105.058" cy="15.46" r="4.099"/>
		<path fill="#EADFCB" d="M107.619,11.361c0,0,2.05-11.104,7.432-7.772C115.051,3.589,119.491,7.773,107.619,11.361z"/>
		<path fill="#EADFCB" d="M103.973,10.749c0,0-6.401-9.301-0.242-10.749C103.73,0,109.83-0.182,103.973,10.749z"/>
		<path fill="#EADFCB" d="M100.96,12.894c0,0-11.103-2.048-7.771-7.428C93.188,5.466,97.371,1.024,100.96,12.894z"/>
		<path fill="#EADFCB" d="M100.348,16.542c0,0-9.302,6.401-10.751,0.245C89.597,16.787,89.417,10.687,100.348,16.542z"/>
		<path fill="#EADFCB" d="M102.492,19.554c0,0-2.051,11.103-7.43,7.776C95.062,27.331,90.624,23.143,102.492,19.554z"/>
		<path fill="#EADFCB" d="M106.14,20.169c0,0,6.4,9.298,0.246,10.752C106.386,30.921,100.286,31.098,106.14,20.169z"/>
		<path fill="#EADFCB" d="M109.153,18.025c0,0,11.102,2.048,7.777,7.429C116.931,25.454,112.74,29.89,109.153,18.025z"/>
		<path fill="#EADFCB" d="M109.768,14.375c0,0,9.297-6.401,10.751-0.245C120.519,14.131,120.695,20.232,109.768,14.375z"/>
	</g>
	<rect x="123" y="15.46" fill="#EADFCB" width="84" height="2"/>
	<rect y="15.46" fill="#EADFCB" width="84" height="2"/>
</g>
</svg>
