<?xml version="1.0" encoding="utf-8"?>
<!-- Generator: Adobe Illustrator 16.0.0, SVG Export Plug-In . SVG Version: 6.00 Build 0)  -->
<!DOCTYPE svg PUBLIC "-//W3C//DTD SVG 1.1 Basic//EN" "http://www.w3.org/Graphics/SVG/1.1/DTD/svg11-basic.dtd">
<svg version="1.1" baseProfile="basic" id="Layer_1"
	 xmlns="http://www.w3.org/2000/svg" xmlns:xlink="http://www.w3.org/1999/xlink" x="0px" y="0px" width="600px" height="400px"
	 viewBox="0 0 600 400" xml:space="preserve">
<g opacity="0.1">
	<g opacity="0.5">
		<path fill="#328999" d="M577.797,91.43c3.187,0,5.793-4.154,5.793-9.232c0-5.078-2.606-9.232-5.793-9.232
			s-5.793-4.154-5.793-9.232c0-5.078-5.85-9.232-13-9.232h-10.739c-7.15,0-13-4.154-13-9.232c0-5.078-5.85-9.232-13-9.232h-65.776
			c-7.15,0-13-4.154-13-9.232c0-5.078-5.85-9.232-13-9.232h-47.993c-7.15,0-13-4.154-13-9.232c0-5.078-5.85-9.232-13-9.232h-154.51
			c-7.15,0-13,4.154-13,9.232c0,5.078-5.85,9.232-13,9.232h-20.411c-7.15,0-13,4.154-13,9.232c0,5.078-5.85,9.232-13,9.232H95.649
			c-7.15,0-13,4.154-13,9.232c0,5.078-5.85,9.232-13,9.232h-0.71c-7.15,0-13,4.154-13,9.232c0,5.078-5.85,9.232-13,9.232h-1.718
			c-7.15,0-13,4.154-13,9.232c0,5.078,5.85,9.232,13,9.232h10.872c7.15,0,13,4.155,13,9.232s-5.85,9.232-13,9.232H12.496
			c-7.15,0-13,4.154-13,9.232c0,5.078,5.85,9.232,13,9.232h26.16c7.15,0,13,4.155,13,9.232s-4.989,9.232-11.087,9.232
			s-11.087,4.154-11.087,9.232c0,5.078,5.85,9.232,13,9.232h5.247c7.15,0,13,4.154,13,9.232s-5.85,9.232-13,9.232H18.039
			c-7.15,0-13,4.154-13,9.232c0,5.078,5.85,9.232,13,9.232h29.688c7.15,0,13,4.154,13,9.232s-5.85,9.232-13,9.232h-4.238
			c-7.15,0-13,4.154-13,9.232s5.85,9.232,13,9.232h1.214c7.15,0,13,4.154,13,9.232c0,5.077-5.85,9.231-13,9.231h-8.774
			c-7.15,0-13,4.154-13,9.231c0,5.078,5.85,9.232,13,9.232h30.192c7.15,0,13,4.154,13,9.232s-5.85,9.232-13,9.232H46.26
			c-7.15,0-13,4.154-13,9.232s5.85,9.232,13,9.232h19.862c7.15,0,13,4.154,13,9.232c0,5.077-5.028,9.231-11.172,9.231
			c-6.145,0-11.173,4.154-11.173,9.232s5.85,9.232,13,9.232h21.901c7.15,0,13,4.154,13,9.231c0,5.078,5.85,9.232,13,9.232h35.455
			c7.15,0,13-4.154,13-9.232c0-5.077,5.85-9.231,13-9.231h15.354c7.15,0,13,4.154,13,9.231c0,5.078,5.85,9.232,13,9.232h14.875
			c7.15,0,13,4.154,13,9.232s5.85,9.232,13,9.232h123.97c7.15,0,13-4.154,13-9.232s5.85-9.232,13-9.232h29.026
			c7.15,0,13-4.154,13-9.232c0-5.077,5.85-9.231,13-9.231h29.594c7.15,0,13,4.154,13,9.231c0,5.078,5.85,9.232,13,9.232h30.289
			c7.15,0,13-4.154,13-9.232c0-5.077-1.047-9.231-2.326-9.231s-2.326-4.154-2.326-9.232s-4.309-9.232-9.574-9.232
			s-9.574-4.154-9.574-9.231c0-5.078,5.85-9.232,13-9.232h4.564c7.15,0,13-4.154,13-9.232s-4.197-9.232-9.326-9.232
			s-9.326-4.154-9.326-9.232s4.197-9.232,9.326-9.232s9.326-4.154,9.326-9.232c0-5.077-2.568-9.231-5.708-9.231
			s-5.708-4.154-5.708-9.231c0-5.078-5.85-9.232-13-9.232h-2.26c-7.15,0-13-4.154-13-9.232s5.85-9.232,13-9.232h13.676
			c7.15,0,13-4.154,13-9.232s-5.728-9.232-12.729-9.232c-7,0-12.728-4.154-12.728-9.232c0-5.078,5.728-9.232,12.728-9.232
			c7.001,0,12.729-4.154,12.729-9.232s-4.197-9.232-9.326-9.232s-9.326-4.154-9.326-9.232c0-5.078,5.85-9.232,13-9.232h0.459
			c7.15,0,13-4.155,13-9.232s-4.325-9.232-9.611-9.232s-9.611-4.154-9.611-9.232c0-5.078,2.568-9.232,5.708-9.232
			s5.708-4.155,5.708-9.232S574.61,91.43,577.797,91.43z M342.089,368.396c-7.15,0-13-4.154-13-9.232c0-5.077,5.85-9.231,13-9.231
			h19.301c7.15,0,13,4.154,13,9.231c0,5.078-5.85,9.232-13,9.232H342.089z M253.822,359.164c0-5.077,5.85-9.231,13-9.231h6.572
			c7.15,0,13,4.154,13,9.231c0,5.078-5.85,9.232-13,9.232h-6.572C259.672,368.396,253.822,364.242,253.822,359.164z M302.222,26.805
			c0,5.078-5.85,9.232-13,9.232h-41.621c-7.15,0-13-4.154-13-9.232c0-5.078,5.85-9.232,13-9.232h41.621
			C296.372,17.573,302.222,21.727,302.222,26.805z"/>
	</g>
	<g opacity="0.5">
		<path fill="#328999" d="M23.361,157.658c0,5.078-4.689,9.232-10.421,9.232s-10.421-4.154-10.421-9.232
			c0-5.078,4.689-9.232,10.421-9.232S23.361,152.58,23.361,157.658z"/>
	</g>
	<g opacity="0.5">
		<path fill="#328999" d="M50.062,341.847c0,5.078-4.689,9.232-10.421,9.232c-5.732,0-10.421-4.154-10.421-9.232
			s4.689-9.232,10.421-9.232C45.373,332.614,50.062,336.769,50.062,341.847z"/>
	</g>
	<g opacity="0.5">
		<path fill="#328999" d="M492.403,377.629c0,5.078-4.689,9.232-10.421,9.232s-10.421-4.154-10.421-9.232s4.689-9.232,10.421-9.232
			S492.403,372.551,492.403,377.629z"/>
	</g>
</g>
<g>
	<rect x="325.065" y="66.527" fill="#366381" width="1.817" height="67.987"/>
	<g>
		<polygon fill="#FA4F3D" points="327.856,66.527 327.856,79.771 370.764,79.771 		"/>
		<polygon fill="#E84939" points="327.856,79.771 327.856,94.642 370.823,79.789 370.764,79.771 		"/>
	</g>
</g>
<g>
	<circle fill="#FA4F3D" cx="232.187" cy="315.503" r="55.921"/>
	<circle fill="#FFFFFF" cx="232.187" cy="315.554" r="44.483"/>
	<circle fill="#FFFFFF" cx="232.187" cy="315.757" r="44.483"/>
	<circle fill="#FA4F3D" cx="232.188" cy="315.604" r="34.315"/>
	<circle fill="#FFFFFF" cx="232.187" cy="315.655" r="22.877"/>
	<circle fill="#FA4F3D" cx="232.187" cy="315.706" r="11.439"/>
</g>
<g>
	<polygon fill="#366381" points="413.212,65.828 517.277,278.572 310.461,277.255 	"/>
	<polygon fill="#FFFFFF" points="411.162,127.887 396.78,155.77 377.777,138.938 413.278,65.888 442.755,126.147 429.713,148.744 	
		"/>
</g>
<g>
	<rect x="114" y="340" fill="#366381" width="97" height="35"/>
	<polygon fill="#366381" points="184.819,287 183.462,287 141.395,287 136,287 136,309 141,309 141,292 183,292 183,309 188,309 
		188,287 	"/>
	<rect x="112" y="300" fill="#4F91BD" width="101" height="41"/>
	<rect x="132" y="325" fill="#E6E6E8" width="11" height="28"/>
	<rect x="131.521" y="332.718" fill="#FFFFFF" width="13.365" height="13.365"/>
	<rect x="181" y="325" fill="#E6E6E8" width="11" height="28"/>
	<rect x="179.97" y="332.718" fill="#FFFFFF" width="13.366" height="13.365"/>
</g>
<g>
	<polygon fill="#328999" points="325.715,120.789 248.533,278.572 401.921,277.596 	"/>
	<polygon fill="#FFFFFF" points="325.096,171.229 340.728,193.373 352.077,174.931 325.747,120.751 303.885,165.445 315,181.324 	
		"/>
</g>
<g>
	<path fill="#FAD000" d="M128.346,192.748c10.896-0.017,21.803,8.014,21.821,19.86c0.017,11.846-9.87,13.425-9.859,20.576
		c0.01,7.152,0.022,15.367,0.022,15.367l-11.902,0.017l-11.902,0.018c0,0-0.011-8.214-0.022-15.366
		c-0.01-7.151-9.902-8.702-9.92-20.548C106.566,200.825,117.451,192.764,128.346,192.748z"/>
	<g>
		<path fill="#FFFFFF" d="M117.09,211.108c0.173,0.021,0.343,0.029,0.518,0.058c0.177,0.056,0.37,0.099,0.534,0.172
			c0.331,0.144,0.64,0.318,0.942,0.478c0.303,0.164,0.602,0.312,0.914,0.382c0.153,0.057,0.313,0.028,0.466,0.05l0.058,0.004
			c-0.045,0.006,0.024-0.005,0.031-0.007c0.052-0.006,0.081-0.021,0.08-0.031c0.01-0.005,0.083-0.06,0.123-0.105
			c0.378-0.445,0.662-1.126,0.962-1.747c0.302-0.636,0.645-1.268,1.061-1.876c0.808-1.218,2.061-2.302,3.581-2.803
			c1.509-0.479,3.106-0.589,4.727-0.106c1.631,0.462,2.999,1.669,3.873,2.939c0.446,0.639,0.8,1.301,1.129,1.891
			c0.16,0.29,0.325,0.57,0.446,0.739c0.058,0.096,0.101,0.126,0.062,0.109c-0.017-0.014-0.038-0.023-0.06-0.028
			c-0.037-0.021-0.081-0.038-0.124-0.044c-0.046-0.012-0.11-0.027-0.166-0.022l-0.148,0.009l0.032-0.002l0.065-0.004
			c0.147-0.016,0.403-0.014,0.461-0.042c0.068-0.037,0.086-0.011,0.21-0.062c0.226-0.082,0.474-0.196,0.796-0.355
			c0.302-0.147,0.694-0.357,1.206-0.494c0.111-0.041,0.272-0.055,0.415-0.071c0.17-0.011,0.242-0.033,0.49-0.021l0.258,0.031
			l0.133,0.017l0.199,0.043c0.55,0.11,0.969,0.321,1.401,0.646c0.205,0.159,0.384,0.375,0.547,0.577
			c0.125,0.228,0.28,0.457,0.347,0.693c0.058,0.235,0.151,0.482,0.155,0.706l0.015,0.338l0.005,0.168l0.002,0.084v0.021
			c0.003-0.022-0.021,0.278-0.013,0.158l-0.009,0.031c-0.004,0.076-0.194,0.583-0.304,0.726c-0.108,0.173-0.218,0.339-0.328,0.481
			c-0.87,1.172-1.776,2.188-2.617,3.295c-0.865,1.079-1.655,2.21-2.435,3.345c-0.749,1.156-1.489,2.318-2.139,3.531
			c-0.664,1.203-1.254,2.445-1.8,3.7c-0.538,1.26-1.003,2.545-1.421,3.837c-0.428,1.289-0.742,2.607-1.049,3.912
			c-0.577,2.62-0.912,5.265-0.849,7.889l-2.902,0.004c-0.041-0.747-0.076-1.491-0.166-2.235c-0.067-0.743-0.194-1.484-0.326-2.223
			c-0.13-0.739-0.314-1.469-0.479-2.203c-0.186-0.73-0.371-1.462-0.603-2.183c-0.208-0.728-0.48-1.438-0.72-2.158
			c-0.247-0.719-0.517-1.431-0.8-2.141c-0.292-0.706-0.586-1.412-0.91-2.107c-0.316-0.697-0.625-1.403-0.962-2.096
			c-0.665-1.391-1.35-2.779-2.053-4.173c-0.704-1.393-1.458-2.767-2.249-4.126c-0.786-1.364-1.634-2.69-2.517-4.01l-0.326-0.506
			c-0.106-0.197-0.212-0.292-0.306-0.63c0-0.477,0.192-0.884,0.41-1.245c0.468-0.692,1.253-1.206,2.112-1.207L117.09,211.108z
			 M117.075,211.408c-0.738,0.018-1.419,0.476-1.789,1.108c-0.179,0.312-0.291,0.671-0.264,0.979
			c0.025,0.039,0.17,0.261,0.276,0.393l0.363,0.456c1.001,1.21,2.069,2.39,3.108,3.598c1.041,1.208,2.056,2.446,3.031,3.724
			c0.978,1.275,1.885,2.61,2.704,4.003c0.406,0.698,0.818,1.396,1.179,2.122c0.37,0.722,0.712,1.458,1.05,2.197
			c0.331,0.744,0.648,1.495,0.944,2.257c0.292,0.764,0.552,1.54,0.783,2.327c0.246,0.782,0.445,1.581,0.643,2.38
			c0.188,0.803,0.329,1.616,0.448,2.435c0.112,0.819,0.217,1.641,0.26,2.47c0.069,0.826,0.059,1.659,0.061,2.489l-2.902,0.004
			c0.085-2.919,0.576-5.799,1.478-8.518c0.894-2.723,2.139-5.283,3.519-7.729c0.686-1.226,1.412-2.423,2.143-3.612
			c0.753-1.177,1.485-2.361,2.267-3.515l2.3-3.483c0.764-1.151,1.542-2.337,2.183-3.488c0.082-0.146,0.143-0.281,0.201-0.412
			c0.043-0.165,0.025,0.031,0.062-0.239l0.004-0.032c0.011-0.131-0.012,0.159-0.011,0.126l-0.003-0.012l-0.01-0.046l-0.02-0.091
			l-0.034-0.179c-0.014-0.124-0.089-0.194-0.116-0.293c-0.037-0.094-0.117-0.136-0.154-0.212c-0.075-0.044-0.124-0.1-0.201-0.137
			c-0.136-0.065-0.369-0.139-0.505-0.129l-0.055-0.01l-0.126-0.001l-0.26-0.002c0.075,0.01-0.024,0.028-0.026,0.034
			c-0.027,0.012-0.043-0.001-0.092,0.031c-0.151,0.069-0.369,0.198-0.666,0.396c-0.278,0.184-0.636,0.407-1.053,0.587
			c-0.191,0.096-0.519,0.182-0.779,0.251c-0.274,0.066-0.372,0.058-0.566,0.091l-0.064,0.009l-0.032,0.004
			c0.026,0-0.248,0.014-0.159,0.007l-0.054-0.002c-0.141-0.009-0.292-0.026-0.421-0.062c-0.125-0.036-0.25-0.083-0.367-0.137
			c-0.095-0.051-0.188-0.107-0.279-0.167c-0.313-0.227-0.51-0.452-0.655-0.637c-0.295-0.385-0.471-0.71-0.654-1.021
			c-0.352-0.616-0.667-1.169-1.018-1.665c-0.677-1.011-1.465-1.756-2.473-2.206c-1-0.42-2.289-0.59-3.463-0.417
			c-1.187,0.153-2.305,0.77-3.22,1.709c-0.458,0.47-0.856,1.012-1.242,1.578c-0.415,0.559-0.677,1.187-1.257,1.751
			c-0.087,0.068-0.151,0.13-0.304,0.185c-0.079,0.031-0.133,0.04-0.168,0.04c-0.036,0.002-0.01,0.004-0.098,0.006l-0.071-0.01
			c-0.187-0.039-0.386-0.035-0.556-0.114c-0.356-0.115-0.68-0.284-0.976-0.466c-0.301-0.181-0.589-0.356-0.896-0.489
			c-0.151-0.068-0.301-0.1-0.451-0.154c-0.165-0.029-0.342-0.041-0.513-0.062L117.075,211.408z"/>
	</g>
	
		<ellipse transform="matrix(-1 0.0014 -0.0014 -1 257.1115 503.5715)" fill="#366381" cx="128.375" cy="251.878" rx="8.172" ry="7.334"/>
	
		<rect x="115.929" y="240.73" transform="matrix(-1 0.0015 -0.0015 -1 257.1091 493.3437)" fill="#4F91BD" width="24.893" height="12.07"/>
</g>
<circle fill="#E7E7E9" cx="433.051" cy="309.941" r="8.491"/>
<rect x="453.825" y="275.698" fill="#FAD000" width="14.373" height="81.881"/>
<rect x="425.002" y="289.381" fill="#FA4F3D" width="14.373" height="68.198"/>
<rect x="396.179" y="305.22" fill="#FAD000" width="14.373" height="52.359"/>
<rect x="366.645" y="319.44" fill="#328999" width="14.372" height="38.139"/>
<g>
	<path fill="#E66E6E" d="M457.844,239.227c-1.955-1.01-2.039-2.808-0.187-3.995l11.185-7.175c1.852-1.188,3.451-0.361,3.554,1.837
		l0.62,13.273c0.103,2.198-1.412,3.17-3.367,2.16L457.844,239.227z"/>
	<path fill="none" stroke="#E66E6E" stroke-width="5" stroke-linecap="round" stroke-linejoin="round" stroke-miterlimit="10" d="
		M465.892,237.452c0,0-22.111,53.553-104.472,53.553"/>
</g>
<g>
	<circle fill="#FAB802" cx="478.083" cy="180.955" r="31.356"/>
	<circle fill="#FAD000" cx="478.084" cy="180.954" r="26.292"/>
	<text transform="matrix(1 0 0 1 466.7324 194.2373)" fill="#FFFFFF" font-family="'BloggerSans-Medium'" font-size="44.2557">$</text>
</g>
<g>
	<g>
		<path fill="none" stroke="#D5DFE0" stroke-width="4" stroke-linecap="round" stroke-linejoin="round" d="M240.082,119.37
			c-0.381,0.325-0.764,0.648-1.147,0.97"/>
		
			<path fill="none" stroke="#D5DFE0" stroke-width="4" stroke-linecap="round" stroke-linejoin="round" stroke-dasharray="2.9711,4.9518" d="
			M235.087,123.462c-1.426,1.124-2.869,2.225-4.326,3.307"/>
		
			<path fill="none" stroke="#D5DFE0" stroke-width="4" stroke-linecap="round" stroke-linejoin="round" stroke-dasharray="2.9711,4.9518,2.9711,4.9518" d="
			M228.766,128.233c-10.595,7.682-21.865,14.438-32.906,21.44c-14.086,8.933-28.877,17.967-44.971,22.783
			c-8.733,2.613-18.713,3.814-27.826,2.946c-19.618-1.872-37.961-8.354-49.441-25.337c-14.302-21.156-12.635-53.872,7.738-70.208
			c7.188-5.764,15.26-10.334,24.23-12.589c15.434-3.879,32.332-6.06,47.328,0.655c14.861,6.656,23.115,26.482,9.209,38.57
			c-11.026,9.587-27.718,4.029-31.26-9.613c-3.96-15.259,9.275-28.876,21.575-35.729c28.917-16.108,63.098-8.268,94.207-5.744
			c31.754,2.576,68.454,3.382,99.167-6.193c17.022-5.308,33.713-16.567,43.736-31.635"/>
		<path fill="none" stroke="#D5DFE0" stroke-width="4" stroke-linecap="round" stroke-linejoin="round" d="M390.883,15.493
			c0.261-0.427,0.516-0.857,0.766-1.29"/>
	</g>
	<path fill="#ACBFC1" d="M384.749,18.596c-1.8-1.265-1.64-3.058,0.355-3.984l6.2-2.878c1.995-0.927,3.468,0.108,3.272,2.3
		l-0.606,6.808c-0.195,2.191-1.828,2.95-3.628,1.685L384.749,18.596z"/>
	<g>
		<g>
			<g>
				<path fill="#328999" d="M246.602,110.048c0,0-4.77-3.765-5.764-5.301s-11.423-7.555-22.398-0.456
					c-7.683,4.967-8.337,12.862-8.337,12.862s10.523-0.579,17.479,10.177c6.956,10.756,18.724-16.778,18.724-16.778"/>
				<path fill="#328999" d="M253.435,120.614c0,0,1.477,5.894,2.471,7.43c0.994,1.536,2.205,13.517-8.771,20.615
					c-7.682,4.969-15.15,2.327-15.15,2.327s4.845-9.358-2.111-20.114c-6.957-10.755,22.981-10.194,22.981-10.194"/>
			</g>
			<path fill="#366381" d="M269.624,120.784c17.894-11.573,19.02-29.1,18.407-30.047c-0.613-0.946-17.051-7.096-34.944,4.477
				c-17.908,11.582-30.287,30.645-30.287,30.645l3.398,4.878l3.054,5.099C229.253,135.835,251.717,132.366,269.624,120.784z"/>
			<path fill="#328999" d="M216.095,137.008"/>
		</g>
		<circle fill="#E9F8FF" cx="268.221" cy="103.787" r="8.181"/>
		<path fill="#328999" d="M244.965,117.986c-0.961-1.597-17.903-0.828-32.578,20.877
			C238.487,134.938,245.926,119.583,244.965,117.986z"/>
	</g>
</g>
<g>
	<g>
		<g>
			<path fill="#FAB802" d="M408.586,212.512l-75.823,0.014l-0.094,11.24c0,0,45.488,0.672,61.007,0.506
				c-0.121,14.607-21.339,53.263-64.224,54.652c0,0,0.006,2.945-0.103,12.161C343.29,291.201,407.122,278.007,408.586,212.512z"/>
			<path fill="#FAB802" d="M173.41,212.512l75.824,0.014l0.093,11.24c0,0-45.488,0.672-61.006,0.506
				c0.121,14.607,21.338,53.263,64.225,54.652c0,0-0.007,2.945,0.102,12.161C238.707,291.201,174.874,278.007,173.41,212.512z"/>
		</g>
		<path fill="#FAD000" d="M355.038,194.268h-62.405h-0.068H230.16c0,0-5.871,19.738-5.36,41.753
			c1.41,60.938,49.653,90.56,58.962,96.767v44.011h8.803h0.068h8.803v-44.011c9.31-6.207,57.552-35.829,58.963-96.767
			C360.907,214.006,355.038,194.268,355.038,194.268z"/>
		<path fill="#FAB802" d="M230.251,194.55c0,0-1.554,5.233-2.994,13.308h130.865c-1.439-8.075-2.993-13.308-2.993-13.308h-62.405
			h-0.068H230.251z"/>
		<rect x="244.779" y="370.075" fill="#FAB802" width="95.638" height="12.694"/>
		<rect x="231.097" y="381.358" fill="#FAD000" width="123.003" height="18.903"/>
	</g>
	<path fill="#FAB802" d="M288.342,235.616c1.461-2.959,3.851-2.959,5.311,0.001l4.54,9.198c1.46,2.96,5.327,5.77,8.593,6.244
		l10.153,1.475c3.266,0.475,4.004,2.748,1.641,5.051l-7.346,7.161c-2.363,2.303-3.841,6.849-3.282,10.102l1.733,10.111
		c0.559,3.253-1.375,4.657-4.296,3.122l-9.081-4.773c-2.921-1.535-7.701-1.535-10.622,0l-9.08,4.773
		c-2.921,1.535-4.855,0.131-4.297-3.122l1.733-10.111c0.558-3.253-0.919-7.799-3.282-10.103l-7.346-7.159
		c-2.363-2.304-1.625-4.577,1.641-5.052l10.152-1.475c3.266-0.475,7.132-3.284,8.593-6.243L288.342,235.616z"/>
</g>
</svg>
